Amiamie-BlackItalic.ufo
<glyph name="exclam" format="2">
	<advance width="280"/>
	<unicode hex="0021"/>
	<note>
		exclam
	</note>
	<outline>
		<contour>
			<point x="59" y="210" type="line"/>
			<point x="197" y="210" type="line"/>
			<point x="311" y="690" type="line"/>
			<point x="149" y="690" type="line"/>
		</contour>
		<contour>
			<point x="45" y="164" type="line"/>
			<point x="7" y="-14" type="line"/>
			<point x="160" y="-14" type="line"/>
			<point x="198" y="164" type="line"/>
		</contour>
	</outline>
</glyph>
<glyph name="dollar" format="2">
	<advance width="662"/>
	<unicode hex="0024"/>
	<note>
		dollar
	</note>
	<outline>
		<contour>
			<point x="603" y="188" type="curve" smooth="yes"/>
			<point x="628" y="307"/>
			<point x="571" y="368"/>
			<point x="419" y="419" type="curve"/>
			<point x="451" y="573" type="line"/>
			<point x="486" y="558"/>
			<point x="497" y="527"/>
			<point x="494" y="487" type="curve"/>
			<point x="664" y="487" type="line"/>
			<point x="676" y="602"/>
			<point x="622" y="686"/>
			<point x="479" y="701" type="curve"/>
			<point x="495" y="780" type="line"/>
			<point x="395" y="780" type="line"/>
			<point x="379" y="701" type="line"/>
			<point x="263" y="687"/>
			<point x="147" y="622"/>
			<point x="119" y="491" type="curve" smooth="yes"/>
			<point x="95" y="378"/>
			<point x="161" y="323"/>
			<point x="288" y="275" type="curve"/>
			<point x="254" y="115" type="line"/>
			<point x="219" y="128"/>
			<point x="197" y="155"/>
			<point x="198" y="201" type="curve"/>
			<point x="28" y="201" type="line"/>
			<point x="13" y="63"/>
			<point x="94" y="0"/>
			<point x="227" y="-12" type="curve"/>
			<point x="211" y="-90" type="line"/>
			<point x="311" y="-90" type="line"/>
			<point x="327" y="-12" type="line"/>
			<point x="465" y="1"/>
			<point x="577" y="69"/>
		</contour>
		<contour>
			<point x="286" y="509" type="curve" smooth="yes"/>
			<point x="293" y="543"/>
			<point x="318" y="566"/>
			<point x="352" y="576" type="curve"/>
			<point x="323" y="440" type="line"/>
			<point x="292" y="453"/>
			<point x="278" y="472"/>
		</contour>
		<contour>
			<point x="353" y="112" type="curve"/>
			<point x="383" y="251" type="line"/>
			<point x="426" y="232"/>
			<point x="435" y="209"/>
			<point x="429" y="179" type="curve" smooth="yes"/>
			<point x="420" y="140"/>
			<point x="395" y="120"/>
		</contour>
	</outline>
</glyph>
<glyph name="quotesingle" format="2">
	<advance width="220"/>
	<unicode hex="0027"/>
	<note>
		quotesingle
	</note>
	<outline>
		<contour>
			<point x="82" y="439" type="line"/>
			<point x="200" y="439" type="line"/>
			<point x="279" y="735" type="line"/>
			<point x="129" y="735" type="line"/>
		</contour>
	</outline>
</glyph>
<glyph name="plus" format="2">
	<advance width="662"/>
	<unicode hex="002B"/>
	<note>
		plus
	</note>
	<outline>
		<contour>
			<point x="383" y="273" type="line"/>
			<point x="558" y="273" type="line"/>
			<point x="576" y="361" type="line"/>
			<point x="401" y="361" type="line"/>
			<point x="443" y="558" type="line"/>
			<point x="343" y="558" type="line"/>
			<point x="301" y="361" type="line"/>
			<point x="126" y="361" type="line"/>
			<point x="108" y="273" type="line"/>
			<point x="283" y="273" type="line"/>
			<point x="241" y="76" type="line"/>
			<point x="341" y="76" type="line"/>
		</contour>
	</outline>
</glyph>
<glyph name="comma" format="2">
	<advance width="266"/>
	<unicode hex="002C"/>
	<note>
		comma
	</note>
	<outline>
		<contour>
			<point x="29" y="-124" type="line"/>
			<point x="199" y="162" type="line"/>
			<point x="201" y="172" type="line"/>
			<point x="34" y="172" type="line"/>
			<point x="-109" y="-124" type="line"/>
		</contour>
	</outline>
</glyph>
<glyph name="period" format="2">
	<advance width="266"/>
	<unicode hex="002E"/>
	<note>
		period
	</note>
	<outline>
		<contour>
			<point x="26" y="191" type="line"/>
			<point x="-17" y="-11" type="line"/>
			<point x="183" y="-11" type="line"/>
			<point x="226" y="191" type="line"/>
		</contour>
	</outline>
</glyph>
<glyph name="zero" format="2">
	<advance width="662"/>
	<unicode hex="0030"/>
	<note>
		zero
	</note>
	<outline>
		<contour>
			<point x="424" y="704" type="curve" smooth="yes"/>
			<point x="224" y="704"/>
			<point x="112" y="576"/>
			<point x="63" y="345" type="curve" smooth="yes"/>
			<point x="14" y="115"/>
			<point x="72" y="-14"/>
			<point x="272" y="-14" type="curve" smooth="yes"/>
			<point x="472" y="-14"/>
			<point x="584" y="115"/>
			<point x="633" y="345" type="curve" smooth="yes"/>
			<point x="682" y="576"/>
			<point x="624" y="704"/>
		</contour>
		<contour>
			<point x="300" y="118" type="curve" smooth="yes"/>
			<point x="237" y="118"/>
			<point x="215" y="175"/>
			<point x="251" y="345" type="curve" smooth="yes"/>
			<point x="287" y="516"/>
			<point x="333" y="572"/>
			<point x="396" y="572" type="curve" smooth="yes"/>
			<point x="459" y="572"/>
			<point x="481" y="516"/>
			<point x="445" y="345" type="curve" smooth="yes"/>
			<point x="409" y="175"/>
			<point x="363" y="118"/>
		</contour>
	</outline>
</glyph>
<glyph name="one" format="2">
	<advance width="662"/>
	<unicode hex="0031"/>
	<note>
		one
	</note>
	<outline>
		<contour>
			<point x="452" y="0" type="line"/>
			<point x="598" y="690" type="line"/>
			<point x="520" y="690" type="line" smooth="yes"/>
			<point x="469" y="690"/>
			<point x="420" y="676"/>
			<point x="371" y="651" type="curve" smooth="yes"/>
			<point x="179" y="553" type="line"/>
			<point x="145" y="392" type="line"/>
			<point x="378" y="502" type="line"/>
			<point x="272" y="0" type="line"/>
		</contour>
	</outline>
</glyph>
<glyph name="two" format="2">
	<advance width="662"/>
	<unicode hex="0032"/>
	<note>
		two
	</note>
	<outline>
		<contour>
			<point x="566" y="140" type="line"/>
			<point x="312" y="140" type="line"/>
			<point x="423" y="229" type="line" smooth="yes"/>
			<point x="584" y="357"/>
			<point x="634" y="419"/>
			<point x="651" y="500" type="curve" smooth="yes"/>
			<point x="678" y="629"/>
			<point x="605" y="706"/>
			<point x="444" y="706" type="curve" smooth="yes"/>
			<point x="275" y="706"/>
			<point x="161" y="621"/>
			<point x="113" y="469" type="curve" smooth="yes"/>
			<point x="110" y="459" type="line"/>
			<point x="290" y="459" type="line"/>
			<point x="293" y="469" type="line" smooth="yes"/>
			<point x="316" y="541"/>
			<point x="349" y="574"/>
			<point x="401" y="574" type="curve" smooth="yes"/>
			<point x="450" y="574"/>
			<point x="473" y="545"/>
			<point x="461" y="493" type="curve" smooth="yes"/>
			<point x="447" y="427"/>
			<point x="402" y="379"/>
			<point x="279" y="282" type="curve" smooth="yes"/>
			<point x="18" y="78" type="line"/>
			<point x="2" y="0" type="line"/>
			<point x="537" y="0" type="line"/>
		</contour>
	</outline>
</glyph>
<glyph name="seven" format="2">
	<advance width="662"/>
	<unicode hex="0037"/>
	<note>
		seven
	</note>
	<outline>
		<contour>
			<point x="687" y="590" type="line"/>
			<point x="708" y="690" type="line"/>
			<point x="147" y="690" type="line"/>
			<point x="118" y="550" type="line"/>
			<point x="466" y="550" type="line"/>
			<point x="45" y="0" type="line"/>
			<point x="242" y="0" type="line"/>
		</contour>
	</outline>
</glyph>
<glyph name="eight" format="2">
	<advance width="662"/>
	<unicode hex="0038"/>
	<note>
		eight
	</note>
	<outline>
		<contour>
			<point x="501" y="366" type="curve"/>
			<point x="566" y="385"/>
			<point x="629" y="425"/>
			<point x="647" y="509" type="curve" smooth="yes"/>
			<point x="671" y="623"/>
			<point x="599" y="704"/>
			<point x="434" y="704" type="curve" smooth="yes"/>
			<point x="269" y="704"/>
			<point x="161" y="623"/>
			<point x="137" y="509" type="curve" smooth="yes"/>
			<point x="119" y="426"/>
			<point x="154" y="385"/>
			<point x="204" y="366" type="curve"/>
			<point x="131" y="342"/>
			<point x="56" y="289"/>
			<point x="36" y="196" type="curve" smooth="yes"/>
			<point x="4" y="46"/>
			<point x="98" y="-15"/>
			<point x="269" y="-15" type="curve" smooth="yes"/>
			<point x="430" y="-15"/>
			<point x="564" y="46"/>
			<point x="596" y="196" type="curve" smooth="yes"/>
			<point x="616" y="290"/>
			<point x="565" y="343"/>
		</contour>
		<contour>
			<point x="403" y="572" type="curve" smooth="yes"/>
			<point x="447" y="572"/>
			<point x="472" y="547"/>
			<point x="462" y="501" type="curve" smooth="yes"/>
			<point x="452" y="451"/>
			<point x="413" y="426"/>
			<point x="371" y="426" type="curve" smooth="yes"/>
			<point x="330" y="426"/>
			<point x="308" y="451"/>
			<point x="318" y="501" type="curve" smooth="yes"/>
			<point x="328" y="547"/>
			<point x="364" y="572"/>
		</contour>
		<contour>
			<point x="300" y="117" type="curve" smooth="yes"/>
			<point x="241" y="117"/>
			<point x="212" y="149"/>
			<point x="224" y="206" type="curve" smooth="yes"/>
			<point x="237" y="264"/>
			<point x="286" y="297"/>
			<point x="337" y="297" type="curve" smooth="yes"/>
			<point x="397" y="297"/>
			<point x="424" y="261"/>
			<point x="412" y="203" type="curve" smooth="yes"/>
			<point x="401" y="150"/>
			<point x="366" y="117"/>
		</contour>
	</outline>
</glyph>
<glyph name="nine" format="2">
	<advance width="662"/>
	<unicode hex="0039"/>
	<note>
		nine
	</note>
	<outline>
		<contour>
			<point x="419" y="704" type="curve" smooth="yes"/>
			<point x="275" y="704"/>
			<point x="124" y="617"/>
			<point x="88" y="447" type="curve" smooth="yes"/>
			<point x="63" y="329"/>
			<point x="109" y="228"/>
			<point x="266" y="228" type="curve" smooth="yes"/>
			<point x="314" y="228"/>
			<point x="352" y="235"/>
			<point x="395" y="264" type="curve"/>
			<point x="440" y="326" type="line"/>
			<point x="404" y="182"/>
			<point x="355" y="118"/>
			<point x="288" y="118" type="curve" smooth="yes"/>
			<point x="242" y="118"/>
			<point x="221" y="138"/>
			<point x="221" y="186" type="curve" smooth="yes"/>
			<point x="221" y="196" type="line"/>
			<point x="41" y="196" type="line"/>
			<point x="40" y="186" type="line" smooth="yes"/>
			<point x="26" y="63"/>
			<point x="92" y="-14"/>
			<point x="250" y="-14" type="curve" smooth="yes"/>
			<point x="434" y="-14"/>
			<point x="577" y="120"/>
			<point x="628" y="358" type="curve" smooth="yes"/>
			<point x="679" y="597"/>
			<point x="607" y="704"/>
		</contour>
		<contour>
			<point x="350" y="360" type="curve" smooth="yes"/>
			<point x="291" y="360"/>
			<point x="266" y="402"/>
			<point x="280" y="469" type="curve" smooth="yes"/>
			<point x="292" y="523"/>
			<point x="332" y="572"/>
			<point x="393" y="572" type="curve" smooth="yes"/>
			<point x="450" y="572"/>
			<point x="476" y="530"/>
			<point x="463" y="465" type="curve" smooth="yes"/>
			<point x="448" y="398"/>
			<point x="399" y="360"/>
		</contour>
	</outline>
</glyph>
<glyph name="semicolon" format="2">
	<advance width="266"/>
	<unicode hex="003B"/>
	<note>
		semicolon
	</note>
	<outline>
		<contour>
			<point x="29" y="-124" type="line"/>
			<point x="197" y="152" type="line"/>
			<point x="201" y="172" type="line"/>
			<point x="34" y="172" type="line"/>
			<point x="-109" y="-124" type="line"/>
		</contour>
		<contour>
			<point x="101" y="547" type="line"/>
			<point x="58" y="345" type="line"/>
			<point x="258" y="345" type="line"/>
			<point x="301" y="547" type="line"/>
		</contour>
	</outline>
</glyph>
<glyph name="equal" format="2">
	<advance width="662"/>
	<unicode hex="003D"/>
	<note>
		equal
	</note>
	<outline>
		<contour>
			<point x="109" y="373" type="line"/>
			<point x="599" y="373" type="line"/>
			<point x="618" y="461" type="line"/>
			<point x="128" y="461" type="line"/>
		</contour>
		<contour>
			<point x="66" y="173" type="line"/>
			<point x="556" y="173" type="line"/>
			<point x="575" y="261" type="line"/>
			<point x="85" y="261" type="line"/>
		</contour>
	</outline>
</glyph>
<glyph name="question" format="2">
	<advance width="589"/>
	<unicode hex="003F"/>
	<note>
		question
	</note>
	<outline>
		<contour>
			<point x="389" y="704" type="curve" smooth="yes"/>
			<point x="228" y="704"/>
			<point x="109" y="618"/>
			<point x="74" y="474" type="curve"/>
			<point x="254" y="474" type="line"/>
			<point x="272" y="541"/>
			<point x="304" y="572"/>
			<point x="348" y="572" type="curve" smooth="yes"/>
			<point x="396" y="572"/>
			<point x="413" y="546"/>
			<point x="402" y="496" type="curve" smooth="yes"/>
			<point x="395" y="461"/>
			<point x="368" y="430"/>
			<point x="302" y="373" type="curve" smooth="yes"/>
			<point x="249" y="327"/>
			<point x="222" y="291"/>
			<point x="202" y="210" type="curve"/>
			<point x="348" y="210" type="line"/>
			<point x="366" y="263"/>
			<point x="390" y="287"/>
			<point x="448" y="328" type="curve" smooth="yes"/>
			<point x="533" y="386"/>
			<point x="576" y="431"/>
			<point x="593" y="511" type="curve" smooth="yes"/>
			<point x="619" y="634"/>
			<point x="543" y="704"/>
		</contour>
		<contour>
			<point x="192" y="164" type="line"/>
			<point x="154" y="-14" type="line"/>
			<point x="307" y="-14" type="line"/>
			<point x="345" y="164" type="line"/>
		</contour>
	</outline>
</glyph>
<glyph name="B" format="2">
	<advance width="681"/>
	<unicode hex="0042"/>
	<note>
		B
	</note>
	<outline>
		<contour>
			<point x="551" y="375" type="curve"/>
			<point x="624" y="399"/>
			<point x="668" y="447"/>
			<point x="681" y="510" type="curve" smooth="yes"/>
			<point x="700" y="600"/>
			<point x="652" y="672"/>
			<point x="540" y="686" type="curve" smooth="yes"/>
			<point x="506" y="690"/>
			<point x="490" y="690"/>
			<point x="453" y="690" type="curve" smooth="yes"/>
			<point x="170" y="690" type="line"/>
			<point x="24" y="0" type="line"/>
			<point x="299" y="0" type="line" smooth="yes"/>
			<point x="343" y="0"/>
			<point x="366" y="0"/>
			<point x="402" y="4" type="curve" smooth="yes"/>
			<point x="497" y="15"/>
			<point x="615" y="79"/>
			<point x="643" y="208" type="curve" smooth="yes"/>
			<point x="661" y="292"/>
			<point x="633" y="350"/>
		</contour>
		<contour>
			<point x="293" y="418" type="line"/>
			<point x="321" y="550" type="line"/>
			<point x="402" y="550" type="line" smooth="yes"/>
			<point x="418" y="550"/>
			<point x="433" y="549"/>
			<point x="446" y="547" type="curve" smooth="yes"/>
			<point x="479" y="542"/>
			<point x="496" y="523"/>
			<point x="488" y="484" type="curve" smooth="yes"/>
			<point x="479" y="443"/>
			<point x="452" y="426"/>
			<point x="418" y="421" type="curve" smooth="yes"/>
			<point x="405" y="419"/>
			<point x="390" y="418"/>
			<point x="374" y="418" type="curve" smooth="yes"/>
		</contour>
		<contour>
			<point x="376" y="141" type="curve" smooth="yes"/>
			<point x="362" y="140"/>
			<point x="346" y="140"/>
			<point x="330" y="140" type="curve" smooth="yes"/>
			<point x="233" y="140" type="line"/>
			<point x="265" y="288" type="line"/>
			<point x="357" y="288" type="line" smooth="yes"/>
			<point x="373" y="288"/>
			<point x="389" y="288"/>
			<point x="402" y="287" type="curve" smooth="yes"/>
			<point x="438" y="284"/>
			<point x="466" y="260"/>
			<point x="456" y="214" type="curve" smooth="yes"/>
			<point x="447" y="169"/>
			<point x="408" y="143"/>
		</contour>
	</outline>
</glyph>
<glyph name="F" format="2">
	<advance width="615"/>
	<unicode hex="0046"/>
	<note>
		F
	</note>
	<outline>
		<contour>
			<point x="292" y="416" type="line"/>
			<point x="321" y="550" type="line"/>
			<point x="660" y="550" type="line"/>
			<point x="689" y="690" type="line"/>
			<point x="170" y="690" type="line"/>
			<point x="24" y="0" type="line"/>
			<point x="204" y="0" type="line"/>
			<point x="262" y="276" type="line"/>
			<point x="571" y="276" type="line"/>
			<point x="601" y="416" type="line"/>
		</contour>
	</outline>
</glyph>
<glyph name="J" format="2">
	<advance width="638"/>
	<unicode hex="004A"/>
	<note>
		J
	</note>
	<outline>
		<contour>
			<point x="593" y="299" type="curve" smooth="yes"/>
			<point x="676" y="690" type="line"/>
			<point x="496" y="690" type="line"/>
			<point x="407" y="271" type="line" smooth="yes"/>
			<point x="403" y="250"/>
			<point x="398" y="228"/>
			<point x="391" y="205" type="curve" smooth="yes"/>
			<point x="375" y="150"/>
			<point x="342" y="118"/>
			<point x="292" y="118" type="curve" smooth="yes"/>
			<point x="241" y="118"/>
			<point x="210" y="144"/>
			<point x="223" y="234" type="curve" smooth="yes"/>
			<point x="228" y="264" type="line"/>
			<point x="48" y="264" type="line"/>
			<point x="42" y="234" type="line" smooth="yes"/>
			<point x="16" y="84"/>
			<point x="72" y="-14"/>
			<point x="259" y="-14" type="curve" smooth="yes"/>
			<point x="438" y="-14"/>
			<point x="535" y="73"/>
			<point x="568" y="194" type="curve" smooth="yes"/>
			<point x="582" y="245"/>
			<point x="586" y="267"/>
		</contour>
	</outline>
</glyph>
<glyph name="K" format="2">
	<advance width="743"/>
	<unicode hex="004B"/>
	<note>
		K
	</note>
	<outline>
		<contour>
			<point x="673" y="0" type="line"/>
			<point x="461" y="365" type="line"/>
			<point x="828" y="690" type="line"/>
			<point x="613" y="690" type="line"/>
			<point x="286" y="385" type="line"/>
			<point x="350" y="690" type="line"/>
			<point x="170" y="690" type="line"/>
			<point x="24" y="0" type="line"/>
			<point x="204" y="0" type="line"/>
			<point x="249" y="212" type="line"/>
			<point x="309" y="266" type="line"/>
			<point x="448" y="0" type="line"/>
		</contour>
	</outline>
</glyph>
<glyph name="M" format="2">
	<advance width="923"/>
	<unicode hex="004D"/>
	<note>
		M
	</note>
	<outline>
		<contour>
			<point x="813" y="0" type="line"/>
			<point x="959" y="690" type="line"/>
			<point x="685" y="690" type="line"/>
			<point x="459" y="175" type="line"/>
			<point x="451" y="690" type="line"/>
			<point x="170" y="690" type="line"/>
			<point x="24" y="0" type="line"/>
			<point x="204" y="0" type="line"/>
			<point x="265" y="290" type="line" smooth="yes"/>
			<point x="278" y="350"/>
			<point x="297" y="439"/>
			<point x="310" y="509" type="curve"/>
			<point x="306" y="439"/>
			<point x="307" y="350"/>
			<point x="310" y="290" type="curve" smooth="yes"/>
			<point x="326" y="0" type="line"/>
			<point x="511" y="0" type="line"/>
			<point x="648" y="290" type="line" smooth="yes"/>
			<point x="677" y="351"/>
			<point x="716" y="439"/>
			<point x="743" y="509" type="curve"/>
			<point x="726" y="439"/>
			<point x="707" y="350"/>
			<point x="694" y="290" type="curve" smooth="yes"/>
			<point x="633" y="0" type="line"/>
		</contour>
	</outline>
</glyph>
<glyph name="Q" format="2">
	<advance width="791"/>
	<unicode hex="0051"/>
	<note>
		Q
	</note>
	<outline>
		<contour>
			<point x="643" y="127" type="curve"/>
			<point x="713" y="182"/>
			<point x="759" y="261"/>
			<point x="777" y="345" type="curve" smooth="yes"/>
			<point x="824" y="567"/>
			<point x="716" y="705"/>
			<point x="501" y="705" type="curve" smooth="yes"/>
			<point x="286" y="705"/>
			<point x="118" y="567"/>
			<point x="71" y="345" type="curve" smooth="yes"/>
			<point x="24" y="124"/>
			<point x="133" y="-14"/>
			<point x="348" y="-14" type="curve" smooth="yes"/>
			<point x="374" y="-14"/>
			<point x="397" y="-12"/>
			<point x="420" y="-7" type="curve" smooth="yes"/>
			<point x="449" y="-1"/>
			<point x="467" y="2"/>
			<point x="495" y="2" type="curve" smooth="yes"/>
			<point x="542" y="2"/>
			<point x="571" y="-9"/>
			<point x="626" y="-48" type="curve"/>
			<point x="737" y="66" type="line"/>
			<point x="706" y="97"/>
			<point x="677" y="116"/>
		</contour>
		<contour>
			<point x="255" y="345" type="curve" smooth="yes"/>
			<point x="286" y="492"/>
			<point x="368" y="573"/>
			<point x="472" y="573" type="curve" smooth="yes"/>
			<point x="576" y="573"/>
			<point x="624" y="492"/>
			<point x="593" y="345" type="curve" smooth="yes"/>
			<point x="562" y="199"/>
			<point x="480" y="118"/>
			<point x="376" y="118" type="curve" smooth="yes"/>
			<point x="272" y="118"/>
			<point x="224" y="199"/>
		</contour>
	</outline>
</glyph>
<glyph name="T" format="2">
	<advance width="632"/>
	<unicode hex="0054"/>
	<note>
		T
	</note>
	<outline>
		<contour>
			<point x="479" y="550" type="line"/>
			<point x="703" y="550" type="line"/>
			<point x="732" y="690" type="line"/>
			<point x="104" y="690" type="line"/>
			<point x="75" y="550" type="line"/>
			<point x="299" y="550" type="line"/>
			<point x="182" y="0" type="line"/>
			<point x="362" y="0" type="line"/>
		</contour>
	</outline>
</glyph>
<glyph name="V" format="2">
	<advance width="742"/>
	<unicode hex="0056"/>
	<note>
		V
	</note>
	<outline>
		<contour>
			<point x="225" y="0" type="line"/>
			<point x="445" y="0" type="line"/>
			<point x="840" y="690" type="line"/>
			<point x="649" y="690" type="line"/>
			<point x="366" y="139" type="line"/>
			<point x="318" y="690" type="line"/>
			<point x="122" y="690" type="line"/>
		</contour>
	</outline>
</glyph>
<glyph name="W" format="2">
	<advance width="1016"/>
	<unicode hex="0057"/>
	<note>
		W
	</note>
	<outline>
		<contour>
			<point x="797" y="0" type="line"/>
			<point x="1119" y="690" type="line"/>
			<point x="935" y="690" type="line"/>
			<point x="718" y="138" type="line"/>
			<point x="746" y="680" type="line"/>
			<point x="488" y="680" type="line"/>
			<point x="282" y="140" type="line"/>
			<point x="307" y="690" type="line"/>
			<point x="116" y="690" type="line"/>
			<point x="136" y="0" type="line"/>
			<point x="377" y="0" type="line"/>
			<point x="584" y="537" type="line"/>
			<point x="557" y="0" type="line"/>
		</contour>
	</outline>
</glyph>
<glyph name="bracketleft" format="2">
	<advance width="410"/>
	<unicode hex="005B"/>
	<note>
		bracketleft
	</note>
	<outline>
		<contour>
			<point x="471" y="684" type="line"/>
			<point x="491" y="780" type="line"/>
			<point x="218" y="780" type="line"/>
			<point x="36" y="-80" type="line"/>
			<point x="309" y="-80" type="line"/>
			<point x="329" y="16" type="line"/>
			<point x="156" y="16" type="line"/>
			<point x="298" y="684" type="line"/>
		</contour>
	</outline>
</glyph>
<glyph name="backslash" format="2">
	<advance width="346"/>
	<unicode hex="005C"/>
	<note>
		backslash
	</note>
	<outline>
		<contour>
			<point x="183" y="-30" type="line"/>
			<point x="288" y="-30" type="line"/>
			<point x="197" y="720" type="line"/>
			<point x="92" y="720" type="line"/>
		</contour>
	</outline>
</glyph>
<glyph name="asciicircum" format="2">
	<advance width="662"/>
	<unicode hex="005E"/>
	<note>
		asciicircum
	</note>
	<outline>
		<contour>
			<point x="383" y="518" type="line"/>
			<point x="434" y="215" type="line"/>
			<point x="546" y="215" type="line"/>
			<point x="463" y="616" type="line"/>
			<point x="348" y="616" type="line"/>
			<point x="93" y="215" type="line"/>
			<point x="202" y="215" type="line"/>
		</contour>
	</outline>
</glyph>
<glyph name="f" format="2">
	<advance width="378"/>
	<unicode hex="0066"/>
	<note>
		f
	</note>
	<outline>
		<contour>
			<point x="323" y="574" type="curve" smooth="yes"/>
			<point x="338" y="621"/>
			<point x="389" y="640"/>
			<point x="451" y="629" type="curve"/>
			<point x="476" y="746" type="line"/>
			<point x="459" y="751"/>
			<point x="439" y="754"/>
			<point x="418" y="754" type="curve" smooth="yes"/>
			<point x="253" y="754"/>
			<point x="176" y="692"/>
			<point x="147" y="592" type="curve" smooth="yes"/>
			<point x="142" y="574"/>
			<point x="137" y="550"/>
			<point x="133" y="534" type="curve" smooth="yes"/>
			<point x="132" y="530" type="line"/>
			<point x="75" y="530" type="line"/>
			<point x="52" y="418" type="line"/>
			<point x="109" y="418" type="line"/>
			<point x="20" y="0" type="line"/>
			<point x="200" y="0" type="line"/>
			<point x="289" y="418" type="line"/>
			<point x="398" y="418" type="line"/>
			<point x="421" y="530" type="line"/>
			<point x="312" y="530" type="line"/>
			<point x="313" y="534" type="line" smooth="yes"/>
			<point x="316" y="547"/>
			<point x="319" y="560"/>
		</contour>
	</outline>
</glyph>
<glyph name="i" format="2">
	<advance width="288"/>
	<unicode hex="0069"/>
	<note>
		i
	</note>
	<outline>
		<contour>
			<point x="-2" y="0" type="line"/>
			<point x="178" y="0" type="line"/>
			<point x="291" y="534" type="line"/>
			<point x="111" y="534" type="line"/>
		</contour>
		<contour>
			<point x="156" y="748" type="line"/>
			<point x="118" y="572" type="line"/>
			<point x="301" y="572" type="line"/>
			<point x="339" y="748" type="line"/>
		</contour>
	</outline>
</glyph>
<glyph name="m" format="2">
	<advance width="966"/>
	<unicode hex="006D"/>
	<note>
		m
	</note>
	<outline>
		<contour>
			<point x="944" y="413" type="curve" smooth="yes"/>
			<point x="948" y="486"/>
			<point x="901" y="548"/>
			<point x="794" y="548" type="curve" smooth="yes"/>
			<point x="745" y="548"/>
			<point x="710" y="537"/>
			<point x="673" y="517" type="curve"/>
			<point x="601" y="444" type="line"/>
			<point x="591" y="503"/>
			<point x="543" y="548"/>
			<point x="452" y="548" type="curve" smooth="yes"/>
			<point x="403" y="548"/>
			<point x="368" y="537"/>
			<point x="331" y="517" type="curve"/>
			<point x="273" y="448" type="line"/>
			<point x="291" y="534" type="line"/>
			<point x="111" y="534" type="line"/>
			<point x="-2" y="0" type="line"/>
			<point x="178" y="0" type="line"/>
			<point x="238" y="282" type="line" smooth="yes"/>
			<point x="257" y="373"/>
			<point x="291" y="426"/>
			<point x="349" y="426" type="curve" smooth="yes"/>
			<point x="396" y="426"/>
			<point x="414" y="396"/>
			<point x="409" y="345" type="curve" smooth="yes"/>
			<point x="406" y="318"/>
			<point x="401" y="289"/>
			<point x="397" y="272" type="curve" smooth="yes"/>
			<point x="340" y="0" type="line"/>
			<point x="520" y="0" type="line"/>
			<point x="580" y="282" type="line" smooth="yes"/>
			<point x="599" y="373"/>
			<point x="633" y="426"/>
			<point x="691" y="426" type="curve" smooth="yes"/>
			<point x="738" y="426"/>
			<point x="756" y="396"/>
			<point x="751" y="345" type="curve" smooth="yes"/>
			<point x="748" y="318"/>
			<point x="743" y="289"/>
			<point x="739" y="272" type="curve" smooth="yes"/>
			<point x="682" y="0" type="line"/>
			<point x="862" y="0" type="line"/>
			<point x="928" y="312" type="line" smooth="yes"/>
			<point x="937" y="355"/>
			<point x="943" y="386"/>
		</contour>
	</outline>
</glyph>
<glyph name="x" format="2">
	<advance width="590"/>
	<unicode hex="0078"/>
	<note>
		x
	</note>
	<outline>
		<contour>
			<point x="535" y="0" type="line"/>
			<point x="408" y="269" type="line"/>
			<point x="646" y="534" type="line"/>
			<point x="439" y="534" type="line"/>
			<point x="324" y="380" type="line"/>
			<point x="273" y="534" type="line"/>
			<point x="63" y="534" type="line"/>
			<point x="186" y="271" type="line"/>
			<point x="-57" y="0" type="line"/>
			<point x="150" y="0" type="line"/>
			<point x="274" y="161" type="line"/>
			<point x="325" y="0" type="line"/>
		</contour>
	</outline>
</glyph>
<glyph name="bar" format="2">
	<advance width="312"/>
	<unicode hex="007C"/>
	<note>
		bar
	</note>
	<outline>
		<contour>
			<point x="-1" y="-200" type="line"/>
			<point x="115" y="-200" type="line"/>
			<point x="328" y="800" type="line"/>
			<point x="212" y="800" type="line"/>
		</contour>
	</outline>
</glyph>
<glyph name="braceright" format="2">
	<advance width="430"/>
	<unicode hex="007D"/>
	<note>
		braceright
	</note>
	<outline>
		<contour>
			<point x="325" y="302" type="curve"/>
			<point x="345" y="398" type="line"/>
			<point x="277" y="402"/>
			<point x="270" y="429"/>
			<point x="275" y="455" type="curve" smooth="yes"/>
			<point x="280" y="478"/>
			<point x="289" y="505"/>
			<point x="304" y="545" type="curve" smooth="yes"/>
			<point x="323" y="597"/>
			<point x="334" y="630"/>
			<point x="341" y="664" type="curve" smooth="yes"/>
			<point x="358" y="743"/>
			<point x="330" y="780"/>
			<point x="230" y="780" type="curve" smooth="yes"/>
			<point x="179" y="780" type="line"/>
			<point x="159" y="684" type="line"/>
			<point x="181" y="684" type="line" smooth="yes"/>
			<point x="230" y="684"/>
			<point x="244" y="679"/>
			<point x="237" y="644" type="curve" smooth="yes"/>
			<point x="234" y="630"/>
			<point x="227" y="609"/>
			<point x="208" y="555" type="curve" smooth="yes"/>
			<point x="191" y="510"/>
			<point x="178" y="468"/>
			<point x="175" y="452" type="curve" smooth="yes"/>
			<point x="163" y="397"/>
			<point x="182" y="361"/>
			<point x="237" y="347" type="curve"/>
			<point x="177" y="335"/>
			<point x="143" y="303"/>
			<point x="131" y="248" type="curve" smooth="yes"/>
			<point x="128" y="232"/>
			<point x="123" y="190"/>
			<point x="120" y="145" type="curve" smooth="yes"/>
			<point x="117" y="91"/>
			<point x="115" y="70"/>
			<point x="112" y="56" type="curve" smooth="yes"/>
			<point x="104" y="21"/>
			<point x="88" y="16"/>
			<point x="39" y="16" type="curve" smooth="yes"/>
			<point x="17" y="16" type="line"/>
			<point x="-3" y="-80" type="line"/>
			<point x="48" y="-80" type="line" smooth="yes"/>
			<point x="148" y="-80"/>
			<point x="191" y="-43"/>
			<point x="207" y="36" type="curve" smooth="yes"/>
			<point x="215" y="70"/>
			<point x="218" y="103"/>
			<point x="221" y="155" type="curve" smooth="yes"/>
			<point x="223" y="195"/>
			<point x="226" y="222"/>
			<point x="231" y="245" type="curve" smooth="yes"/>
			<point x="236" y="271"/>
			<point x="255" y="298"/>
		</contour>
	</outline>
</glyph>
<glyph name="asciitilde" format="2">
	<advance width="662"/>
	<unicode hex="007E"/>
	<note>
		asciitilde
	</note>
	<outline>
		<contour>
			<point x="606" y="406" type="curve"/>
			<point x="510" y="406" type="line"/>
			<point x="498" y="349"/>
			<point x="479" y="330"/>
			<point x="449" y="330" type="curve" smooth="yes"/>
			<point x="426" y="330"/>
			<point x="406" y="341"/>
			<point x="366" y="365" type="curve" smooth="yes"/>
			<point x="324" y="390"/>
			<point x="294" y="406"/>
			<point x="249" y="406" type="curve" smooth="yes"/>
			<point x="164" y="406"/>
			<point x="105" y="349"/>
			<point x="78" y="223" type="curve"/>
			<point x="174" y="223" type="line"/>
			<point x="185" y="273"/>
			<point x="201" y="299"/>
			<point x="235" y="299" type="curve" smooth="yes"/>
			<point x="255" y="299"/>
			<point x="273" y="290"/>
			<point x="318" y="264" type="curve" smooth="yes"/>
			<point x="363" y="238"/>
			<point x="392" y="223"/>
			<point x="435" y="223" type="curve" smooth="yes"/>
			<point x="520" y="223"/>
			<point x="579" y="281"/>
		</contour>
	</outline>
</glyph>
<glyph name="exclamdown" format="2">
	<advance width="280"/>
	<unicode hex="00A1"/>
	<note>
		exclamdown
	</note>
	<outline>
		<contour>
			<point x="221" y="320" type="line"/>
			<point x="83" y="320" type="line"/>
			<point x="-31" y="-160" type="line"/>
			<point x="131" y="-160" type="line"/>
		</contour>
		<contour>
			<point x="122" y="541" type="line"/>
			<point x="84" y="363" type="line"/>
			<point x="237" y="363" type="line"/>
			<point x="275" y="541" type="line"/>
		</contour>
	</outline>
</glyph>
<glyph name="cent" format="2">
	<advance width="662"/>
	<unicode hex="00A2"/>
	<note>
		cent
	</note>
	<outline>
		<contour>
			<point x="589" y="196" type="curve"/>
			<point x="432" y="196" type="line"/>
			<point x="418" y="159"/>
			<point x="388" y="133"/>
			<point x="357" y="119" type="curve"/>
			<point x="419" y="412" type="line"/>
			<point x="445" y="399"/>
			<point x="466" y="372"/>
			<point x="461" y="326" type="curve"/>
			<point x="615" y="326" type="line"/>
			<point x="633" y="434"/>
			<point x="574" y="525"/>
			<point x="447" y="541" type="curve"/>
			<point x="463" y="620" type="line"/>
			<point x="363" y="620" type="line"/>
			<point x="346" y="539" type="line"/>
			<point x="213" y="518"/>
			<point x="96" y="420"/>
			<point x="62" y="259" type="curve" smooth="yes"/>
			<point x="30" y="108"/>
			<point x="102" y="7"/>
			<point x="229" y="-11" type="curve"/>
			<point x="213" y="-90" type="line"/>
			<point x="313" y="-90" type="line"/>
			<point x="330" y="-10" type="line"/>
			<point x="449" y="6"/>
			<point x="547" y="76"/>
		</contour>
		<contour>
			<point x="228" y="270" type="curve" smooth="yes"/>
			<point x="243" y="341"/>
			<point x="278" y="387"/>
			<point x="318" y="408" type="curve"/>
			<point x="258" y="123" type="line"/>
			<point x="226" y="145"/>
			<point x="211" y="192"/>
		</contour>
	</outline>
</glyph>
<glyph name="brokenbar" format="2">
	<advance width="296"/>
	<unicode hex="00A6"/>
	<note>
		brokenbar
	</note>
	<outline>
		<contour>
			<point x="116" y="350" type="line"/>
			<point x="216" y="350" type="line"/>
			<point x="288" y="690" type="line"/>
			<point x="188" y="690" type="line"/>
		</contour>
		<contour>
			<point x="8" y="-160" type="line"/>
			<point x="108" y="-160" type="line"/>
			<point x="180" y="180" type="line"/>
			<point x="80" y="180" type="line"/>
		</contour>
	</outline>
</glyph>
<glyph name="section" format="2">
	<advance width="630"/>
	<unicode hex="00A7"/>
	<note>
		section
	</note>
	<outline>
		<contour>
			<point x="600" y="234" type="curve" smooth="yes"/>
			<point x="623" y="341"/>
			<point x="565" y="398"/>
			<point x="423" y="438" type="curve" smooth="yes"/>
			<point x="327" y="465"/>
			<point x="310" y="485"/>
			<point x="321" y="536" type="curve" smooth="yes"/>
			<point x="328" y="572"/>
			<point x="353" y="592"/>
			<point x="378" y="592" type="curve" smooth="yes"/>
			<point x="410" y="592"/>
			<point x="421" y="571"/>
			<point x="419" y="526" type="curve"/>
			<point x="596" y="526" type="line"/>
			<point x="605" y="631"/>
			<point x="544" y="704"/>
			<point x="411" y="704" type="curve" smooth="yes"/>
			<point x="269" y="704"/>
			<point x="159" y="621"/>
			<point x="134" y="505" type="curve" smooth="yes"/>
			<point x="129" y="481"/>
			<point x="129" y="460"/>
			<point x="135" y="441" type="curve"/>
			<point x="80" y="408"/>
			<point x="42" y="358"/>
			<point x="29" y="296" type="curve" smooth="yes"/>
			<point x="5" y="183"/>
			<point x="64" y="139"/>
			<point x="176" y="102" type="curve" smooth="yes"/>
			<point x="294" y="63"/>
			<point x="316" y="33"/>
			<point x="307" y="-9" type="curve" smooth="yes"/>
			<point x="299" y="-44"/>
			<point x="270" y="-62"/>
			<point x="238" y="-62" type="curve" smooth="yes"/>
			<point x="200" y="-62"/>
			<point x="174" y="-35"/>
			<point x="173" y="6" type="curve"/>
			<point x="-4" y="6" type="line"/>
			<point x="-16" y="-114"/>
			<point x="74" y="-174"/>
			<point x="213" y="-174" type="curve" smooth="yes"/>
			<point x="348" y="-174"/>
			<point x="466" y="-107"/>
			<point x="490" y="8" type="curve" smooth="yes"/>
			<point x="497" y="39"/>
			<point x="495" y="65"/>
			<point x="485" y="87" type="curve"/>
			<point x="543" y="117"/>
			<point x="586" y="166"/>
		</contour>
		<contour>
			<point x="292" y="214" type="curve" smooth="yes"/>
			<point x="229" y="237"/>
			<point x="201" y="259"/>
			<point x="210" y="302" type="curve" smooth="yes"/>
			<point x="214" y="322"/>
			<point x="222" y="337"/>
			<point x="234" y="347" type="curve"/>
			<point x="260" y="335"/>
			<point x="289" y="324"/>
			<point x="323" y="314" type="curve" smooth="yes"/>
			<point x="403" y="290"/>
			<point x="426" y="262"/>
			<point x="417" y="218" type="curve" smooth="yes"/>
			<point x="413" y="198"/>
			<point x="402" y="184"/>
			<point x="388" y="174" type="curve"/>
			<point x="361" y="188"/>
			<point x="328" y="201"/>
		</contour>
	</outline>
</glyph>
<glyph name="macron" format="2">
	<advance width="300"/>
	<unicode hex="00AF"/>
	<note>
		macron
	</note>
	<outline>
		<contour>
			<point x="68" y="586" type="line"/>
			<point x="368" y="586" type="line"/>
			<point x="389" y="682" type="line"/>
			<point x="89" y="682" type="line"/>
		</contour>
	</outline>
</glyph>
<glyph name="Acircumflex" format="2">
	<advance width="707"/>
	<unicode hex="00C2"/>
	<note>
		Acircumflex
	</note>
	<outline>
		<contour>
			<point x="327" y="735" type="line"/>
			<point x="430" y="735" type="line"/>
			<point x="478" y="811" type="line"/>
			<point x="496" y="735" type="line"/>
			<point x="600" y="735" type="line"/>
			<point x="564" y="860" type="line"/>
			<point x="415" y="860" type="line"/>
		</contour>
		<contour>
			<point x="235" y="179" type="line"/>
			<point x="450" y="179" type="line"/>
			<point x="470" y="0" type="line"/>
			<point x="666" y="0" type="line"/>
			<point x="563" y="690" type="line"/>
			<point x="343" y="690" type="line"/>
			<point x="-52" y="0" type="line"/>
			<point x="139" y="0" type="line"/>
		</contour>
		<contour>
			<point x="308" y="319" type="line"/>
			<point x="418" y="531" type="line"/>
			<point x="436" y="319" type="line"/>
		</contour>
	</outline>
</glyph>
<glyph name="Atilde" format="2">
	<advance width="707"/>
	<unicode hex="00C3"/>
	<note>
		Atilde
	</note>
	<outline>
		<contour>
			<point x="418" y="773" type="curve" smooth="yes"/>
			<point x="426" y="773"/>
			<point x="438" y="768"/>
			<point x="460" y="758" type="curve" smooth="yes"/>
			<point x="493" y="742"/>
			<point x="509" y="739"/>
			<point x="538" y="739" type="curve" smooth="yes"/>
			<point x="600" y="739"/>
			<point x="636" y="780"/>
			<point x="656" y="873" type="curve"/>
			<point x="560" y="873" type="line"/>
			<point x="556" y="851"/>
			<point x="550" y="842"/>
			<point x="539" y="842" type="curve" smooth="yes"/>
			<point x="531" y="842"/>
			<point x="518" y="846"/>
			<point x="497" y="857" type="curve" smooth="yes"/>
			<point x="464" y="873"/>
			<point x="448" y="876"/>
			<point x="419" y="876" type="curve" smooth="yes"/>
			<point x="357" y="876"/>
			<point x="320" y="835"/>
			<point x="300" y="742" type="curve"/>
			<point x="396" y="742" type="line"/>
			<point x="401" y="764"/>
			<point x="407" y="773"/>
		</contour>
		<contour>
			<point x="235" y="179" type="line"/>
			<point x="450" y="179" type="line"/>
			<point x="470" y="0" type="line"/>
			<point x="666" y="0" type="line"/>
			<point x="563" y="690" type="line"/>
			<point x="343" y="690" type="line"/>
			<point x="-52" y="0" type="line"/>
			<point x="139" y="0" type="line"/>
		</contour>
		<contour>
			<point x="308" y="319" type="line"/>
			<point x="418" y="531" type="line"/>
			<point x="436" y="319" type="line"/>
		</contour>
	</outline>
</glyph>
<glyph name="Adieresis" format="2">
	<advance width="707"/>
	<unicode hex="00C4"/>
	<note>
		Adieresis
	</note>
	<outline>
		<contour>
			<point x="235" y="179" type="line"/>
			<point x="450" y="179" type="line"/>
			<point x="470" y="0" type="line"/>
			<point x="666" y="0" type="line"/>
			<point x="563" y="690" type="line"/>
			<point x="343" y="690" type="line"/>
			<point x="-52" y="0" type="line"/>
			<point x="139" y="0" type="line"/>
		</contour>
		<contour>
			<point x="308" y="319" type="line"/>
			<point x="418" y="531" type="line"/>
			<point x="436" y="319" type="line"/>
		</contour>
		<contour>
			<point x="318" y="871" type="line"/>
			<point x="287" y="724" type="line"/>
			<point x="437" y="724" type="line"/>
			<point x="468" y="871" type="line"/>
		</contour>
		<contour>
			<point x="519" y="871" type="line"/>
			<point x="488" y="724" type="line"/>
			<point x="638" y="724" type="line"/>
			<point x="669" y="871" type="line"/>
		</contour>
	</outline>
</glyph>
<glyph name="AE" format="2">
	<advance width="996"/>
	<unicode hex="00C6"/>
	<note>
		AE
	</note>
	<outline>
		<contour>
			<point x="910" y="0" type="line"/>
			<point x="939" y="140" type="line"/>
			<point x="607" y="140" type="line"/>
			<point x="620" y="276" type="line"/>
			<point x="938" y="276" type="line"/>
			<point x="968" y="416" type="line"/>
			<point x="634" y="416" type="line"/>
			<point x="648" y="560" type="line"/>
			<point x="652" y="550" type="line"/>
			<point x="1017" y="550" type="line"/>
			<point x="1046" y="690" type="line"/>
			<point x="407" y="690" type="line"/>
			<point x="-98" y="0" type="line"/>
			<point x="93" y="0" type="line"/>
			<point x="236" y="209" type="line"/>
			<point x="434" y="209" type="line"/>
			<point x="414" y="0" type="line"/>
		</contour>
		<contour>
			<point x="466" y="543" type="line"/>
			<point x="448" y="349" type="line"/>
			<point x="333" y="349" type="line"/>
		</contour>
	</outline>
</glyph>
<glyph name="Eacute" format="2">
	<advance width="639"/>
	<unicode hex="00C9"/>
	<note>
		Eacute
	</note>
	<outline>
		<contour>
			<point x="386" y="735" type="line"/>
			<point x="482" y="735" type="line"/>
			<point x="663" y="860" type="line"/>
			<point x="503" y="860" type="line"/>
		</contour>
		<contour>
			<point x="553" y="0" type="line"/>
			<point x="582" y="140" type="line"/>
			<point x="233" y="140" type="line"/>
			<point x="262" y="276" type="line"/>
			<point x="581" y="276" type="line"/>
			<point x="611" y="416" type="line"/>
			<point x="292" y="416" type="line"/>
			<point x="321" y="550" type="line"/>
			<point x="660" y="550" type="line"/>
			<point x="689" y="690" type="line"/>
			<point x="170" y="690" type="line"/>
			<point x="24" y="0" type="line"/>
		</contour>
	</outline>
</glyph>
<glyph name="Igrave" format="2">
	<advance width="314"/>
	<unicode hex="00CC"/>
	<note>
		Igrave
	</note>
	<outline>
		<contour>
			<point x="235" y="735" type="line"/>
			<point x="331" y="735" type="line"/>
			<point x="266" y="860" type="line"/>
			<point x="106" y="860" type="line"/>
		</contour>
		<contour>
			<point x="24" y="0" type="line"/>
			<point x="204" y="0" type="line"/>
			<point x="350" y="690" type="line"/>
			<point x="170" y="690" type="line"/>
		</contour>
	</outline>
</glyph>
<glyph name="Iacute" format="2">
	<advance width="314"/>
	<unicode hex="00CD"/>
	<note>
		Iacute
	</note>
	<outline>
		<contour>
			<point x="216" y="735" type="line"/>
			<point x="312" y="735" type="line"/>
			<point x="493" y="860" type="line"/>
			<point x="333" y="860" type="line"/>
		</contour>
		<contour>
			<point x="24" y="0" type="line"/>
			<point x="204" y="0" type="line"/>
			<point x="350" y="690" type="line"/>
			<point x="170" y="690" type="line"/>
		</contour>
	</outline>
</glyph>
<glyph name="Ntilde" format="2">
	<advance width="794"/>
	<unicode hex="00D1"/>
	<note>
		Ntilde
	</note>
	<outline>
		<contour>
			<point x="461" y="876" type="curve" smooth="yes"/>
			<point x="399" y="876"/>
			<point x="362" y="835"/>
			<point x="342" y="742" type="curve"/>
			<point x="438" y="742" type="line"/>
			<point x="443" y="764"/>
			<point x="449" y="773"/>
			<point x="460" y="773" type="curve" smooth="yes"/>
			<point x="468" y="773"/>
			<point x="480" y="768"/>
			<point x="502" y="758" type="curve" smooth="yes"/>
			<point x="535" y="742"/>
			<point x="551" y="739"/>
			<point x="580" y="739" type="curve" smooth="yes"/>
			<point x="642" y="739"/>
			<point x="678" y="780"/>
			<point x="698" y="873" type="curve"/>
			<point x="602" y="873" type="line"/>
			<point x="598" y="851"/>
			<point x="592" y="842"/>
			<point x="581" y="842" type="curve" smooth="yes"/>
			<point x="573" y="842"/>
			<point x="560" y="846"/>
			<point x="539" y="857" type="curve" smooth="yes"/>
			<point x="506" y="873"/>
			<point x="490" y="876"/>
		</contour>
		<contour>
			<point x="449" y="0" type="line"/>
			<point x="684" y="0" type="line"/>
			<point x="830" y="690" type="line"/>
			<point x="650" y="690" type="line"/>
			<point x="588" y="395" type="line" smooth="yes"/>
			<point x="579" y="355"/>
			<point x="565" y="284"/>
			<point x="555" y="214" type="curve"/>
			<point x="394" y="690" type="line"/>
			<point x="170" y="690" type="line"/>
			<point x="24" y="0" type="line"/>
			<point x="204" y="0" type="line"/>
			<point x="264" y="285" type="line" smooth="yes"/>
			<point x="273" y="325"/>
			<point x="286" y="386"/>
			<point x="295" y="456" type="curve"/>
		</contour>
	</outline>
</glyph>
<glyph name="Oacute" format="2">
	<advance width="788"/>
	<unicode hex="00D3"/>
	<note>
		Oacute
	</note>
	<outline>
		<contour>
			<point x="453" y="735" type="line"/>
			<point x="549" y="735" type="line"/>
			<point x="730" y="860" type="line"/>
			<point x="570" y="860" type="line"/>
		</contour>
		<contour>
			<point x="500" y="704" type="curve" smooth="yes"/>
			<point x="285" y="704"/>
			<point x="118" y="567"/>
			<point x="71" y="345" type="curve" smooth="yes"/>
			<point x="24" y="124"/>
			<point x="133" y="-14"/>
			<point x="348" y="-14" type="curve" smooth="yes"/>
			<point x="563" y="-14"/>
			<point x="730" y="124"/>
			<point x="777" y="345" type="curve" smooth="yes"/>
			<point x="824" y="567"/>
			<point x="715" y="704"/>
		</contour>
		<contour>
			<point x="376" y="118" type="curve" smooth="yes"/>
			<point x="272" y="118"/>
			<point x="224" y="199"/>
			<point x="255" y="345" type="curve" smooth="yes"/>
			<point x="286" y="492"/>
			<point x="368" y="572"/>
			<point x="472" y="572" type="curve" smooth="yes"/>
			<point x="576" y="572"/>
			<point x="624" y="492"/>
			<point x="593" y="345" type="curve" smooth="yes"/>
			<point x="562" y="199"/>
			<point x="480" y="118"/>
		</contour>
	</outline>
</glyph>
<glyph name="Otilde" format="2">
	<advance width="788"/>
	<unicode hex="00D5"/>
	<note>
		Otilde
	</note>
	<outline>
		<contour>
			<point x="462" y="773" type="curve" smooth="yes"/>
			<point x="470" y="773"/>
			<point x="482" y="768"/>
			<point x="504" y="758" type="curve" smooth="yes"/>
			<point x="537" y="742"/>
			<point x="553" y="739"/>
			<point x="582" y="739" type="curve" smooth="yes"/>
			<point x="644" y="739"/>
			<point x="680" y="780"/>
			<point x="700" y="873" type="curve"/>
			<point x="604" y="873" type="line"/>
			<point x="600" y="851"/>
			<point x="594" y="842"/>
			<point x="583" y="842" type="curve" smooth="yes"/>
			<point x="575" y="842"/>
			<point x="562" y="846"/>
			<point x="541" y="857" type="curve" smooth="yes"/>
			<point x="508" y="873"/>
			<point x="492" y="876"/>
			<point x="463" y="876" type="curve" smooth="yes"/>
			<point x="401" y="876"/>
			<point x="364" y="835"/>
			<point x="344" y="742" type="curve"/>
			<point x="440" y="742" type="line"/>
			<point x="445" y="764"/>
			<point x="451" y="773"/>
		</contour>
		<contour>
			<point x="500" y="704" type="curve" smooth="yes"/>
			<point x="285" y="704"/>
			<point x="118" y="567"/>
			<point x="71" y="345" type="curve" smooth="yes"/>
			<point x="24" y="124"/>
			<point x="133" y="-14"/>
			<point x="348" y="-14" type="curve" smooth="yes"/>
			<point x="563" y="-14"/>
			<point x="730" y="124"/>
			<point x="777" y="345" type="curve" smooth="yes"/>
			<point x="824" y="567"/>
			<point x="715" y="704"/>
		</contour>
		<contour>
			<point x="376" y="118" type="curve" smooth="yes"/>
			<point x="272" y="118"/>
			<point x="224" y="199"/>
			<point x="255" y="345" type="curve" smooth="yes"/>
			<point x="286" y="492"/>
			<point x="368" y="572"/>
			<point x="472" y="572" type="curve" smooth="yes"/>
			<point x="576" y="572"/>
			<point x="624" y="492"/>
			<point x="593" y="345" type="curve" smooth="yes"/>
			<point x="562" y="199"/>
			<point x="480" y="118"/>
		</contour>
	</outline>
</glyph>
<glyph name="Odieresis" format="2">
	<advance width="788"/>
	<unicode hex="00D6"/>
	<note>
		Odieresis
	</note>
	<outline>
		<contour>
			<point x="500" y="704" type="curve" smooth="yes"/>
			<point x="285" y="704"/>
			<point x="118" y="567"/>
			<point x="71" y="345" type="curve" smooth="yes"/>
			<point x="24" y="124"/>
			<point x="133" y="-14"/>
			<point x="348" y="-14" type="curve" smooth="yes"/>
			<point x="563" y="-14"/>
			<point x="730" y="124"/>
			<point x="777" y="345" type="curve" smooth="yes"/>
			<point x="824" y="567"/>
			<point x="715" y="704"/>
		</contour>
		<contour>
			<point x="376" y="118" type="curve" smooth="yes"/>
			<point x="272" y="118"/>
			<point x="224" y="199"/>
			<point x="255" y="345" type="curve" smooth="yes"/>
			<point x="286" y="492"/>
			<point x="368" y="572"/>
			<point x="472" y="572" type="curve" smooth="yes"/>
			<point x="576" y="572"/>
			<point x="624" y="492"/>
			<point x="593" y="345" type="curve" smooth="yes"/>
			<point x="562" y="199"/>
			<point x="480" y="118"/>
		</contour>
		<contour>
			<point x="362" y="871" type="line"/>
			<point x="331" y="724" type="line"/>
			<point x="481" y="724" type="line"/>
			<point x="512" y="871" type="line"/>
		</contour>
		<contour>
			<point x="563" y="871" type="line"/>
			<point x="532" y="724" type="line"/>
			<point x="682" y="724" type="line"/>
			<point x="713" y="871" type="line"/>
		</contour>
	</outline>
</glyph>
<glyph name="Yacute" format="2">
	<advance width="663"/>
	<unicode hex="00DD"/>
	<note>
		Yacute
	</note>
	<outline>
		<contour>
			<point x="393" y="735" type="line"/>
			<point x="489" y="735" type="line"/>
			<point x="670" y="860" type="line"/>
			<point x="510" y="860" type="line"/>
		</contour>
		<contour>
			<point x="381" y="0" type="line"/>
			<point x="437" y="264" type="line"/>
			<point x="770" y="690" type="line"/>
			<point x="573" y="690" type="line"/>
			<point x="384" y="417" type="line"/>
			<point x="306" y="690" type="line"/>
			<point x="104" y="690" type="line"/>
			<point x="257" y="264" type="line"/>
			<point x="201" y="0" type="line"/>
		</contour>
	</outline>
</glyph>
<glyph name="Thorn" format="2">
	<advance width="653"/>
	<unicode hex="00DE"/>
	<note>
		Thorn
	</note>
	<outline>
		<contour>
			<point x="528" y="597" type="curve" smooth="yes"/>
			<point x="491" y="601"/>
			<point x="464" y="602"/>
			<point x="421" y="602" type="curve" smooth="yes"/>
			<point x="332" y="602" type="line"/>
			<point x="350" y="690" type="line"/>
			<point x="170" y="690" type="line"/>
			<point x="24" y="0" type="line"/>
			<point x="204" y="0" type="line"/>
			<point x="241" y="174" type="line"/>
			<point x="330" y="174" type="line" smooth="yes"/>
			<point x="373" y="174"/>
			<point x="401" y="175"/>
			<point x="439" y="179" type="curve" smooth="yes"/>
			<point x="541" y="191"/>
			<point x="637" y="255"/>
			<point x="665" y="388" type="curve" smooth="yes"/>
			<point x="693" y="521"/>
			<point x="625" y="585"/>
		</contour>
		<contour>
			<point x="389" y="315" type="curve" smooth="yes"/>
			<point x="375" y="314"/>
			<point x="359" y="314"/>
			<point x="340" y="314" type="curve" smooth="yes"/>
			<point x="270" y="314" type="line"/>
			<point x="302" y="462" type="line"/>
			<point x="372" y="462" type="line" smooth="yes"/>
			<point x="391" y="462"/>
			<point x="407" y="462"/>
			<point x="420" y="461" type="curve" smooth="yes"/>
			<point x="465" y="457"/>
			<point x="487" y="435"/>
			<point x="477" y="388" type="curve" smooth="yes"/>
			<point x="467" y="341"/>
			<point x="435" y="319"/>
		</contour>
	</outline>
</glyph>
<glyph name="germandbls" format="2">
	<advance width="666"/>
	<unicode hex="00DF"/>
	<note>
		germandbls
	</note>
	<outline>
		<contour>
			<point x="439" y="754" type="curve" smooth="yes"/>
			<point x="270" y="754"/>
			<point x="151" y="671"/>
			<point x="113" y="534" type="curve" smooth="yes"/>
			<point x="108" y="516"/>
			<point x="102" y="490"/>
			<point x="89" y="430" type="curve" smooth="yes"/>
			<point x="-2" y="0" type="line"/>
			<point x="178" y="0" type="line"/>
			<point x="271" y="438" type="line" smooth="yes"/>
			<point x="284" y="499"/>
			<point x="289" y="518"/>
			<point x="293" y="532" type="curve" smooth="yes"/>
			<point x="309" y="588"/>
			<point x="346" y="622"/>
			<point x="405" y="622" type="curve" smooth="yes"/>
			<point x="462" y="622"/>
			<point x="484" y="599"/>
			<point x="475" y="558" type="curve" smooth="yes"/>
			<point x="472" y="542"/>
			<point x="466" y="527"/>
			<point x="453" y="514" type="curve"/>
			<point x="400" y="484"/>
			<point x="371" y="448"/>
			<point x="360" y="398" type="curve" smooth="yes"/>
			<point x="348" y="341"/>
			<point x="366" y="311"/>
			<point x="406" y="257" type="curve" smooth="yes"/>
			<point x="430" y="226"/>
			<point x="439" y="202"/>
			<point x="433" y="175" type="curve" smooth="yes"/>
			<point x="426" y="145"/>
			<point x="403" y="128"/>
			<point x="367" y="128" type="curve" smooth="yes"/>
			<point x="345" y="128"/>
			<point x="317" y="130"/>
			<point x="276" y="141" type="curve"/>
			<point x="247" y="6" type="line"/>
			<point x="284" y="-2"/>
			<point x="310" y="-4"/>
			<point x="383" y="-4" type="curve" smooth="yes"/>
			<point x="486" y="-4"/>
			<point x="593" y="46"/>
			<point x="616" y="152" type="curve" smooth="yes"/>
			<point x="632" y="228"/>
			<point x="618" y="257"/>
			<point x="578" y="312" type="curve" smooth="yes"/>
			<point x="552" y="347"/>
			<point x="543" y="371"/>
			<point x="548" y="398" type="curve" smooth="yes"/>
			<point x="555" y="430"/>
			<point x="575" y="453"/>
			<point x="620" y="476" type="curve"/>
			<point x="642" y="501"/>
			<point x="656" y="525"/>
			<point x="664" y="560" type="curve" smooth="yes"/>
			<point x="688" y="675"/>
			<point x="608" y="754"/>
		</contour>
	</outline>
</glyph>
<glyph name="aring" format="2">
	<advance width="587"/>
	<unicode hex="00E5"/>
	<note>
		aring
	</note>
	<outline>
		<contour>
			<point x="357" y="567" type="curve" smooth="yes"/>
			<point x="427" y="567"/>
			<point x="485" y="610"/>
			<point x="499" y="674" type="curve" smooth="yes"/>
			<point x="513" y="738"/>
			<point x="473" y="781"/>
			<point x="403" y="781" type="curve" smooth="yes"/>
			<point x="333" y="781"/>
			<point x="275" y="738"/>
			<point x="261" y="674" type="curve" smooth="yes"/>
			<point x="247" y="610"/>
			<point x="287" y="567"/>
		</contour>
		<contour>
			<point x="389" y="715" type="curve" smooth="yes"/>
			<point x="410" y="715"/>
			<point x="421" y="700"/>
			<point x="416" y="674" type="curve" smooth="yes"/>
			<point x="410" y="648"/>
			<point x="392" y="633"/>
			<point x="371" y="633" type="curve" smooth="yes"/>
			<point x="350" y="633"/>
			<point x="338" y="648"/>
			<point x="344" y="674" type="curve" smooth="yes"/>
			<point x="349" y="700"/>
			<point x="368" y="715"/>
		</contour>
		<contour>
			<point x="315" y="78" type="line"/>
			<point x="311" y="0" type="line"/>
			<point x="487" y="0" type="line"/>
			<point x="491" y="59"/>
			<point x="497" y="95"/>
			<point x="505" y="135" type="curve" smooth="yes"/>
			<point x="537" y="285" type="line" smooth="yes"/>
			<point x="544" y="318"/>
			<point x="550" y="349"/>
			<point x="554" y="376" type="curve" smooth="yes"/>
			<point x="566" y="473"/>
			<point x="524" y="548"/>
			<point x="355" y="548" type="curve" smooth="yes"/>
			<point x="220" y="548"/>
			<point x="94" y="477"/>
			<point x="66" y="352" type="curve"/>
			<point x="237" y="353" type="line"/>
			<point x="249" y="399"/>
			<point x="279" y="426"/>
			<point x="321" y="426" type="curve" smooth="yes"/>
			<point x="360" y="426"/>
			<point x="377" y="402"/>
			<point x="374" y="375" type="curve" smooth="yes"/>
			<point x="373" y="358"/>
			<point x="370" y="347"/>
			<point x="368" y="336" type="curve" smooth="yes"/>
			<point x="366" y="328" type="line"/>
			<point x="332" y="328" type="line" smooth="yes"/>
			<point x="151" y="328"/>
			<point x="29" y="258"/>
			<point x="4" y="144" type="curve" smooth="yes"/>
			<point x="-18" y="41"/>
			<point x="54" y="-14"/>
			<point x="142" y="-14" type="curve" smooth="yes"/>
			<point x="191" y="-14"/>
			<point x="238" y="-2"/>
			<point x="281" y="22" type="curve"/>
		</contour>
		<contour>
			<point x="242" y="108" type="curve" smooth="yes"/>
			<point x="206" y="108"/>
			<point x="184" y="126"/>
			<point x="191" y="158" type="curve" smooth="yes"/>
			<point x="203" y="211"/>
			<point x="265" y="232"/>
			<point x="345" y="226" type="curve"/>
			<point x="337" y="191" type="line" smooth="yes"/>
			<point x="325" y="135"/>
			<point x="278" y="108"/>
		</contour>
	</outline>
</glyph>
<glyph name="ae" format="2">
	<advance width="974"/>
	<unicode hex="00E6"/>
	<note>
		ae
	</note>
	<outline>
		<contour>
			<point x="952" y="274" type="curve" smooth="yes"/>
			<point x="981" y="412"/>
			<point x="920" y="548"/>
			<point x="752" y="548" type="curve" smooth="yes"/>
			<point x="665" y="548"/>
			<point x="584" y="517"/>
			<point x="526" y="455" type="curve"/>
			<point x="509" y="514"/>
			<point x="452" y="548"/>
			<point x="355" y="548" type="curve" smooth="yes"/>
			<point x="220" y="548"/>
			<point x="94" y="477"/>
			<point x="66" y="352" type="curve"/>
			<point x="236" y="352" type="line"/>
			<point x="249" y="399"/>
			<point x="289" y="426"/>
			<point x="331" y="426" type="curve" smooth="yes"/>
			<point x="385" y="426"/>
			<point x="405" y="397"/>
			<point x="393" y="338" type="curve" smooth="yes"/>
			<point x="391" y="332" type="line"/>
			<point x="333" y="332" type="line" smooth="yes"/>
			<point x="162" y="332"/>
			<point x="31" y="271"/>
			<point x="5" y="149" type="curve" smooth="yes"/>
			<point x="-18" y="41"/>
			<point x="54" y="-14"/>
			<point x="182" y="-14" type="curve" smooth="yes"/>
			<point x="231" y="-14"/>
			<point x="288" y="-2"/>
			<point x="331" y="22" type="curve"/>
			<point x="414" y="100" type="line"/>
			<point x="445" y="23"/>
			<point x="515" y="-14"/>
			<point x="613" y="-14" type="curve" smooth="yes"/>
			<point x="750" y="-14"/>
			<point x="864" y="54"/>
			<point x="921" y="175" type="curve"/>
			<point x="744" y="175" type="line"/>
			<point x="728" y="134"/>
			<point x="692" y="108"/>
			<point x="641" y="108" type="curve" smooth="yes"/>
			<point x="590" y="108"/>
			<point x="556" y="133"/>
			<point x="566" y="222" type="curve"/>
			<point x="938" y="222" type="line"/>
			<point x="944" y="240"/>
			<point x="949" y="258"/>
		</contour>
		<contour>
			<point x="776" y="332" type="curve"/>
			<point x="595" y="332" type="line"/>
			<point x="622" y="397"/>
			<point x="661" y="426"/>
			<point x="707" y="426" type="curve" smooth="yes"/>
			<point x="756" y="426"/>
			<point x="780" y="394"/>
		</contour>
		<contour>
			<point x="369" y="222" type="curve"/>
			<point x="367" y="214" type="line" smooth="yes"/>
			<point x="353" y="146"/>
			<point x="308" y="108"/>
			<point x="253" y="108" type="curve" smooth="yes"/>
			<point x="206" y="108"/>
			<point x="184" y="126"/>
			<point x="192" y="163" type="curve" smooth="yes"/>
			<point x="202" y="210"/>
			<point x="256" y="228"/>
		</contour>
	</outline>
</glyph>
<glyph name="edieresis" format="2">
	<advance width="601"/>
	<unicode hex="00EB"/>
	<note>
		edieresis
	</note>
	<outline>
		<contour>
			<point x="579" y="274" type="curve" smooth="yes"/>
			<point x="608" y="412"/>
			<point x="547" y="548"/>
			<point x="369" y="548" type="curve" smooth="yes"/>
			<point x="191" y="548"/>
			<point x="57" y="421"/>
			<point x="24" y="265" type="curve" smooth="yes"/>
			<point x="-16" y="77"/>
			<point x="87" y="-14"/>
			<point x="240" y="-14" type="curve" smooth="yes"/>
			<point x="377" y="-14"/>
			<point x="491" y="54"/>
			<point x="548" y="175" type="curve"/>
			<point x="371" y="175" type="line"/>
			<point x="355" y="134"/>
			<point x="319" y="108"/>
			<point x="268" y="108" type="curve" smooth="yes"/>
			<point x="217" y="108"/>
			<point x="183" y="133"/>
			<point x="193" y="222" type="curve"/>
			<point x="565" y="222" type="line"/>
			<point x="571" y="240"/>
			<point x="576" y="258"/>
		</contour>
		<contour>
			<point x="334" y="426" type="curve" smooth="yes"/>
			<point x="382" y="426"/>
			<point x="407" y="395"/>
			<point x="403" y="332" type="curve"/>
			<point x="222" y="332" type="line"/>
			<point x="248" y="398"/>
			<point x="287" y="426"/>
		</contour>
		<contour>
			<point x="223" y="714" type="line"/>
			<point x="192" y="567" type="line"/>
			<point x="342" y="567" type="line"/>
			<point x="373" y="714" type="line"/>
		</contour>
		<contour>
			<point x="424" y="714" type="line"/>
			<point x="393" y="567" type="line"/>
			<point x="543" y="567" type="line"/>
			<point x="574" y="714" type="line"/>
		</contour>
	</outline>
</glyph>
<glyph name="igrave" format="2">
	<advance width="288"/>
	<unicode hex="00EC"/>
	<note>
		igrave
	</note>
	<outline>
		<contour>
			<point x="182" y="571" type="line"/>
			<point x="278" y="571" type="line"/>
			<point x="214" y="696" type="line"/>
			<point x="54" y="696" type="line"/>
		</contour>
		<contour>
			<point x="-2" y="0" type="line"/>
			<point x="178" y="0" type="line"/>
			<point x="291" y="534" type="line"/>
			<point x="111" y="534" type="line"/>
		</contour>
	</outline>
</glyph>
<glyph name="iacute" format="2">
	<advance width="288"/>
	<unicode hex="00ED"/>
	<note>
		iacute
	</note>
	<outline>
		<contour>
			<point x="155" y="571" type="line"/>
			<point x="251" y="571" type="line"/>
			<point x="433" y="696" type="line"/>
			<point x="273" y="696" type="line"/>
		</contour>
		<contour>
			<point x="-2" y="0" type="line"/>
			<point x="178" y="0" type="line"/>
			<point x="291" y="534" type="line"/>
			<point x="111" y="534" type="line"/>
		</contour>
	</outline>
</glyph>
<glyph name="icircumflex" format="2">
	<advance width="288"/>
	<unicode hex="00EE"/>
	<note>
		icircumflex
	</note>
	<outline>
		<contour>
			<point x="73" y="571" type="line"/>
			<point x="176" y="571" type="line"/>
			<point x="224" y="647" type="line"/>
			<point x="242" y="571" type="line"/>
			<point x="346" y="571" type="line"/>
			<point x="311" y="696" type="line"/>
			<point x="162" y="696" type="line"/>
		</contour>
		<contour>
			<point x="291" y="534" type="line"/>
			<point x="111" y="534" type="line"/>
			<point x="-2" y="0" type="line"/>
			<point x="178" y="0" type="line"/>
		</contour>
	</outline>
</glyph>
<glyph name="ntilde" format="2">
	<advance width="644"/>
	<unicode hex="00F1"/>
	<note>
		ntilde
	</note>
	<outline>
		<contour>
			<point x="340" y="605" type="curve" smooth="yes"/>
			<point x="348" y="605"/>
			<point x="360" y="600"/>
			<point x="382" y="590" type="curve" smooth="yes"/>
			<point x="416" y="574"/>
			<point x="431" y="571"/>
			<point x="460" y="571" type="curve" smooth="yes"/>
			<point x="522" y="571"/>
			<point x="559" y="612"/>
			<point x="579" y="705" type="curve"/>
			<point x="483" y="705" type="line"/>
			<point x="478" y="683"/>
			<point x="472" y="674"/>
			<point x="461" y="674" type="curve" smooth="yes"/>
			<point x="453" y="674"/>
			<point x="441" y="678"/>
			<point x="419" y="689" type="curve" smooth="yes"/>
			<point x="387" y="705"/>
			<point x="370" y="708"/>
			<point x="341" y="708" type="curve" smooth="yes"/>
			<point x="279" y="708"/>
			<point x="242" y="667"/>
			<point x="223" y="574" type="curve"/>
			<point x="319" y="574" type="line"/>
			<point x="323" y="596"/>
			<point x="329" y="605"/>
		</contour>
		<contour>
			<point x="620" y="403" type="curve" smooth="yes"/>
			<point x="626" y="496"/>
			<point x="572" y="548"/>
			<point x="462" y="548" type="curve" smooth="yes"/>
			<point x="413" y="548"/>
			<point x="373" y="537"/>
			<point x="336" y="517" type="curve"/>
			<point x="274" y="451" type="line"/>
			<point x="291" y="534" type="line"/>
			<point x="111" y="534" type="line"/>
			<point x="-2" y="0" type="line"/>
			<point x="178" y="0" type="line"/>
			<point x="231" y="252" type="line" smooth="yes"/>
			<point x="257" y="373"/>
			<point x="307" y="426"/>
			<point x="362" y="426" type="curve" smooth="yes"/>
			<point x="416" y="426"/>
			<point x="438" y="396"/>
			<point x="431" y="345" type="curve" smooth="yes"/>
			<point x="427" y="318"/>
			<point x="421" y="289"/>
			<point x="417" y="272" type="curve" smooth="yes"/>
			<point x="360" y="0" type="line"/>
			<point x="540" y="0" type="line"/>
			<point x="604" y="302" type="line" smooth="yes"/>
			<point x="613" y="345"/>
			<point x="619" y="376"/>
		</contour>
	</outline>
</glyph>
<glyph name="oacute" format="2">
	<advance width="622"/>
	<unicode hex="00F3"/>
	<note>
		oacute
	</note>
	<outline>
		<contour>
			<point x="322" y="571" type="line"/>
			<point x="418" y="571" type="line"/>
			<point x="600" y="696" type="line"/>
			<point x="440" y="696" type="line"/>
		</contour>
		<contour>
			<point x="371" y="548" type="curve" smooth="yes"/>
			<point x="196" y="548"/>
			<point x="61" y="439"/>
			<point x="24" y="267" type="curve" smooth="yes"/>
			<point x="-12" y="96"/>
			<point x="77" y="-14"/>
			<point x="252" y="-14" type="curve" smooth="yes"/>
			<point x="427" y="-14"/>
			<point x="562" y="96"/>
			<point x="598" y="267" type="curve" smooth="yes"/>
			<point x="635" y="439"/>
			<point x="546" y="548"/>
		</contour>
		<contour>
			<point x="278" y="108" type="curve" smooth="yes"/>
			<point x="214" y="108"/>
			<point x="186" y="161"/>
			<point x="208" y="267" type="curve" smooth="yes"/>
			<point x="231" y="374"/>
			<point x="281" y="426"/>
			<point x="345" y="426" type="curve" smooth="yes"/>
			<point x="409" y="426"/>
			<point x="437" y="374"/>
			<point x="414" y="267" type="curve" smooth="yes"/>
			<point x="392" y="161"/>
			<point x="342" y="108"/>
		</contour>
	</outline>
</glyph>
<glyph name="divide" format="2">
	<advance width="662"/>
	<unicode hex="00F7"/>
	<note>
		divide
	</note>
	<outline>
		<contour>
			<point x="399" y="585" type="curve" smooth="yes"/>
			<point x="354" y="585"/>
			<point x="312" y="550"/>
			<point x="302" y="505" type="curve" smooth="yes"/>
			<point x="292" y="460"/>
			<point x="320" y="425"/>
			<point x="365" y="425" type="curve" smooth="yes"/>
			<point x="410" y="425"/>
			<point x="452" y="460"/>
			<point x="462" y="505" type="curve" smooth="yes"/>
			<point x="472" y="550"/>
			<point x="444" y="585"/>
		</contour>
		<contour>
			<point x="87" y="269" type="line"/>
			<point x="577" y="269" type="line"/>
			<point x="597" y="365" type="line"/>
			<point x="107" y="365" type="line"/>
		</contour>
		<contour>
			<point x="319" y="209" type="curve" smooth="yes"/>
			<point x="274" y="209"/>
			<point x="232" y="174"/>
			<point x="222" y="129" type="curve" smooth="yes"/>
			<point x="213" y="84"/>
			<point x="240" y="49"/>
			<point x="285" y="49" type="curve" smooth="yes"/>
			<point x="330" y="49"/>
			<point x="373" y="84"/>
			<point x="382" y="129" type="curve" smooth="yes"/>
			<point x="392" y="174"/>
			<point x="364" y="209"/>
		</contour>
	</outline>
</glyph>
<glyph name="oslash" format="2">
	<advance width="638"/>
	<unicode hex="00F8"/>
	<note>
		oslash
	</note>
	<outline>
		<contour>
			<point x="592" y="433" type="curve"/>
			<point x="667" y="495" type="line"/>
			<point x="611" y="566" type="line"/>
			<point x="535" y="503" type="line"/>
			<point x="496" y="532"/>
			<point x="441" y="548"/>
			<point x="375" y="548" type="curve" smooth="yes"/>
			<point x="200" y="548"/>
			<point x="65" y="439"/>
			<point x="28" y="267" type="curve" smooth="yes"/>
			<point x="14" y="200"/>
			<point x="19" y="142"/>
			<point x="41" y="96" type="curve"/>
			<point x="-28" y="39" type="line"/>
			<point x="28" y="-32" type="line"/>
			<point x="101" y="28" type="line"/>
			<point x="139" y="1"/>
			<point x="192" y="-14"/>
			<point x="256" y="-14" type="curve" smooth="yes"/>
			<point x="431" y="-14"/>
			<point x="566" y="96"/>
			<point x="602" y="267" type="curve" smooth="yes"/>
			<point x="616" y="332"/>
			<point x="612" y="389"/>
		</contour>
		<contour>
			<point x="212" y="267" type="curve" smooth="yes"/>
			<point x="235" y="374"/>
			<point x="285" y="426"/>
			<point x="349" y="426" type="curve" smooth="yes"/>
			<point x="375" y="426"/>
			<point x="395" y="417"/>
			<point x="408" y="399" type="curve"/>
			<point x="207" y="233" type="line"/>
			<point x="208" y="243"/>
			<point x="210" y="255"/>
		</contour>
		<contour>
			<point x="418" y="267" type="curve" smooth="yes"/>
			<point x="396" y="161"/>
			<point x="346" y="108"/>
			<point x="282" y="108" type="curve" smooth="yes"/>
			<point x="258" y="108"/>
			<point x="238" y="116"/>
			<point x="226" y="131" type="curve"/>
			<point x="423" y="294" type="line"/>
			<point x="422" y="285"/>
			<point x="420" y="276"/>
		</contour>
	</outline>
</glyph>
<glyph name="ugrave" format="2">
	<advance width="640"/>
	<unicode hex="00F9"/>
	<note>
		ugrave
	</note>
	<outline>
		<contour>
			<point x="225" y="696" type="line"/>
			<point x="353" y="571" type="line"/>
			<point x="449" y="571" type="line"/>
			<point x="385" y="696" type="line"/>
		</contour>
		<contour>
			<point x="530" y="0" type="line"/>
			<point x="643" y="534" type="line"/>
			<point x="463" y="534" type="line"/>
			<point x="399" y="232" type="line" smooth="yes"/>
			<point x="384" y="161"/>
			<point x="339" y="108"/>
			<point x="282" y="108" type="curve" smooth="yes"/>
			<point x="225" y="108"/>
			<point x="207" y="138"/>
			<point x="212" y="189" type="curve" smooth="yes"/>
			<point x="215" y="216"/>
			<point x="220" y="245"/>
			<point x="223" y="262" type="curve" smooth="yes"/>
			<point x="281" y="534" type="line"/>
			<point x="101" y="534" type="line"/>
			<point x="35" y="222" type="line" smooth="yes"/>
			<point x="26" y="179"/>
			<point x="20" y="148"/>
			<point x="18" y="121" type="curve" smooth="yes"/>
			<point x="15" y="48"/>
			<point x="69" y="-14"/>
			<point x="179" y="-14" type="curve" smooth="yes"/>
			<point x="228" y="-14"/>
			<point x="268" y="-3"/>
			<point x="305" y="17" type="curve"/>
			<point x="369" y="90" type="line"/>
			<point x="350" y="0" type="line"/>
		</contour>
	</outline>
</glyph>
<glyph name="thorn" format="2">
	<advance width="669"/>
	<unicode hex="00FE"/>
	<note>
		thorn
	</note>
	<outline>
		<contour>
			<point x="470" y="548" type="curve" smooth="yes"/>
			<point x="416" y="548"/>
			<point x="362" y="537"/>
			<point x="327" y="515" type="curve"/>
			<point x="275" y="456" type="line"/>
			<point x="334" y="735" type="line"/>
			<point x="154" y="735" type="line"/>
			<point x="-44" y="-196" type="line"/>
			<point x="136" y="-196" type="line"/>
			<point x="192" y="69" type="line"/>
			<point x="215" y="12" type="line"/>
			<point x="239" y="-4"/>
			<point x="289" y="-14"/>
			<point x="333" y="-14" type="curve" smooth="yes"/>
			<point x="470" y="-14"/>
			<point x="608" y="89"/>
			<point x="648" y="279" type="curve" smooth="yes"/>
			<point x="682" y="437"/>
			<point x="615" y="548"/>
		</contour>
		<contour>
			<point x="310" y="108" type="curve" smooth="yes"/>
			<point x="256" y="108"/>
			<point x="208" y="144"/>
			<point x="231" y="251" type="curve" smooth="yes"/>
			<point x="236" y="274" type="line" smooth="yes"/>
			<point x="260" y="386"/>
			<point x="316" y="426"/>
			<point x="382" y="426" type="curve" smooth="yes"/>
			<point x="445" y="426"/>
			<point x="483" y="370"/>
			<point x="462" y="270" type="curve" smooth="yes"/>
			<point x="439" y="161"/>
			<point x="380" y="108"/>
		</contour>
	</outline>
</glyph>
<glyph name="Amacron" format="2">
	<advance width="707"/>
	<unicode hex="0100"/>
	<note>
		Amacron
	</note>
	<outline>
		<contour>
			<point x="318" y="760" type="line"/>
			<point x="618" y="760" type="line"/>
			<point x="639" y="856" type="line"/>
			<point x="339" y="856" type="line"/>
		</contour>
		<contour>
			<point x="235" y="179" type="line"/>
			<point x="450" y="179" type="line"/>
			<point x="470" y="0" type="line"/>
			<point x="666" y="0" type="line"/>
			<point x="563" y="690" type="line"/>
			<point x="343" y="690" type="line"/>
			<point x="-52" y="0" type="line"/>
			<point x="139" y="0" type="line"/>
		</contour>
		<contour>
			<point x="308" y="319" type="line"/>
			<point x="418" y="531" type="line"/>
			<point x="436" y="319" type="line"/>
		</contour>
	</outline>
</glyph>
<glyph name="Abreve" format="2">
	<advance width="707"/>
	<unicode hex="0102"/>
	<note>
		Abreve
	</note>
	<outline>
		<contour>
			<point x="461" y="728" type="curve" smooth="yes"/>
			<point x="532" y="728"/>
			<point x="603" y="761"/>
			<point x="624" y="860" type="curve"/>
			<point x="534" y="860" type="line"/>
			<point x="526" y="829"/>
			<point x="508" y="813"/>
			<point x="479" y="813" type="curve" smooth="yes"/>
			<point x="450" y="813"/>
			<point x="440" y="829"/>
			<point x="444" y="860" type="curve"/>
			<point x="354" y="860" type="line"/>
			<point x="333" y="761"/>
			<point x="389" y="728"/>
		</contour>
		<contour>
			<point x="235" y="179" type="line"/>
			<point x="450" y="179" type="line"/>
			<point x="470" y="0" type="line"/>
			<point x="666" y="0" type="line"/>
			<point x="563" y="690" type="line"/>
			<point x="343" y="690" type="line"/>
			<point x="-52" y="0" type="line"/>
			<point x="139" y="0" type="line"/>
		</contour>
		<contour>
			<point x="308" y="319" type="line"/>
			<point x="418" y="531" type="line"/>
			<point x="436" y="319" type="line"/>
		</contour>
	</outline>
</glyph>
<glyph name="Aogonek" format="2">
	<advance width="707"/>
	<unicode hex="0104"/>
	<note>
		Aogonek
	</note>
	<outline>
		<contour>
			<point x="533" y="-70" type="curve" smooth="yes"/>
			<point x="541" y="-32"/>
			<point x="568" y="0"/>
			<point x="593" y="0" type="curve" smooth="yes"/>
			<point x="666" y="0" type="line"/>
			<point x="563" y="690" type="line"/>
			<point x="343" y="690" type="line"/>
			<point x="-52" y="0" type="line"/>
			<point x="139" y="0" type="line"/>
			<point x="235" y="179" type="line"/>
			<point x="450" y="179" type="line"/>
			<point x="470" y="4" type="line"/>
			<point x="419" y="-21"/>
			<point x="367" y="-78"/>
			<point x="355" y="-137" type="curve" smooth="yes"/>
			<point x="341" y="-201"/>
			<point x="384" y="-223"/>
			<point x="450" y="-223" type="curve" smooth="yes"/>
			<point x="514" y="-223"/>
			<point x="561" y="-202"/>
			<point x="596" y="-173" type="curve"/>
			<point x="611" y="-100" type="line"/>
			<point x="592" y="-115"/>
			<point x="577" y="-121"/>
			<point x="563" y="-121" type="curve" smooth="yes"/>
			<point x="543" y="-121"/>
			<point x="525" y="-108"/>
		</contour>
		<contour>
			<point x="308" y="319" type="line"/>
			<point x="418" y="531" type="line"/>
			<point x="436" y="319" type="line"/>
		</contour>
	</outline>
</glyph>
<glyph name="Cacute" format="2">
	<advance width="734"/>
	<unicode hex="0106"/>
	<note>
		Cacute
	</note>
	<outline>
		<contour>
			<point x="430" y="735" type="line"/>
			<point x="526" y="735" type="line"/>
			<point x="707" y="860" type="line"/>
			<point x="547" y="860" type="line"/>
		</contour>
		<contour>
			<point x="488" y="704" type="curve" smooth="yes"/>
			<point x="301" y="704"/>
			<point x="121" y="580"/>
			<point x="70" y="340" type="curve" smooth="yes"/>
			<point x="20" y="106"/>
			<point x="144" y="-14"/>
			<point x="329" y="-14" type="curve" smooth="yes"/>
			<point x="502" y="-14"/>
			<point x="647" y="71"/>
			<point x="699" y="237" type="curve" smooth="yes"/>
			<point x="702" y="247" type="line"/>
			<point x="522" y="247" type="line"/>
			<point x="518" y="237" type="line" smooth="yes"/>
			<point x="487" y="161"/>
			<point x="433" y="118"/>
			<point x="363" y="118" type="curve" smooth="yes"/>
			<point x="283" y="118"/>
			<point x="223" y="177"/>
			<point x="260" y="351" type="curve" smooth="yes"/>
			<point x="292" y="500"/>
			<point x="372" y="572"/>
			<point x="458" y="572" type="curve" smooth="yes"/>
			<point x="531" y="572"/>
			<point x="569" y="537"/>
			<point x="568" y="463" type="curve" smooth="yes"/>
			<point x="568" y="453" type="line"/>
			<point x="748" y="453" type="line"/>
			<point x="749" y="463" type="line" smooth="yes"/>
			<point x="764" y="599"/>
			<point x="685" y="704"/>
		</contour>
	</outline>
</glyph>
<glyph name="cdotaccent" format="2">
	<advance width="587"/>
	<unicode hex="010B"/>
	<note>
		cdotaccent
	</note>
	<outline>
		<contour>
			<point x="396" y="751" type="curve" smooth="yes"/>
			<point x="340" y="751"/>
			<point x="296" y="717"/>
			<point x="285" y="663" type="curve" smooth="yes"/>
			<point x="273" y="609"/>
			<point x="303" y="575"/>
			<point x="359" y="575" type="curve" smooth="yes"/>
			<point x="415" y="575"/>
			<point x="459" y="609"/>
			<point x="471" y="663" type="curve" smooth="yes"/>
			<point x="482" y="717"/>
			<point x="452" y="751"/>
		</contour>
		<contour>
			<point x="365" y="548" type="curve" smooth="yes"/>
			<point x="208" y="548"/>
			<point x="62" y="445"/>
			<point x="23" y="261" type="curve" smooth="yes"/>
			<point x="-14" y="85"/>
			<point x="81" y="-14"/>
			<point x="234" y="-14" type="curve" smooth="yes"/>
			<point x="379" y="-14"/>
			<point x="501" y="58"/>
			<point x="550" y="196" type="curve"/>
			<point x="373" y="196" type="line"/>
			<point x="351" y="138"/>
			<point x="311" y="108"/>
			<point x="270" y="108" type="curve" smooth="yes"/>
			<point x="209" y="108"/>
			<point x="185" y="158"/>
			<point x="209" y="272" type="curve" smooth="yes"/>
			<point x="231" y="375"/>
			<point x="275" y="426"/>
			<point x="335" y="426" type="curve" smooth="yes"/>
			<point x="380" y="426"/>
			<point x="410" y="400"/>
			<point x="403" y="330" type="curve"/>
			<point x="577" y="330" type="line"/>
			<point x="597" y="450"/>
			<point x="522" y="548"/>
		</contour>
	</outline>
</glyph>
<glyph name="dcroat" format="2">
	<advance width="669"/>
	<unicode hex="0111"/>
	<note>
		dcroat
	</note>
	<outline>
		<contour>
			<point x="681" y="575" type="line"/>
			<point x="721" y="575" type="line"/>
			<point x="741" y="671" type="line"/>
			<point x="701" y="671" type="line"/>
			<point x="715" y="735" type="line"/>
			<point x="535" y="735" type="line"/>
			<point x="521" y="671" type="line"/>
			<point x="401" y="671" type="line"/>
			<point x="381" y="575" type="line"/>
			<point x="501" y="575" type="line"/>
			<point x="478" y="465" type="line"/>
			<point x="455" y="522" type="line"/>
			<point x="431" y="538"/>
			<point x="381" y="548"/>
			<point x="337" y="548" type="curve" smooth="yes"/>
			<point x="200" y="548"/>
			<point x="62" y="445"/>
			<point x="22" y="255" type="curve" smooth="yes"/>
			<point x="-12" y="97"/>
			<point x="55" y="-14"/>
			<point x="200" y="-14" type="curve" smooth="yes"/>
			<point x="254" y="-14"/>
			<point x="308" y="-3"/>
			<point x="343" y="19" type="curve"/>
			<point x="395" y="78" type="line"/>
			<point x="379" y="0" type="line"/>
			<point x="559" y="0" type="line"/>
		</contour>
		<contour>
			<point x="288" y="108" type="curve" smooth="yes"/>
			<point x="225" y="108"/>
			<point x="187" y="164"/>
			<point x="208" y="264" type="curve" smooth="yes"/>
			<point x="231" y="373"/>
			<point x="290" y="426"/>
			<point x="360" y="426" type="curve" smooth="yes"/>
			<point x="414" y="426"/>
			<point x="462" y="390"/>
			<point x="439" y="283" type="curve" smooth="yes"/>
			<point x="434" y="260" type="line" smooth="yes"/>
			<point x="410" y="148"/>
			<point x="354" y="108"/>
		</contour>
	</outline>
</glyph>
<glyph name="Ecaron" format="2">
	<advance width="639"/>
	<unicode hex="011A"/>
	<note>
		Ecaron
	</note>
	<outline>
		<contour>
			<point x="330" y="860" type="line"/>
			<point x="366" y="735" type="line"/>
			<point x="515" y="735" type="line"/>
			<point x="603" y="860" type="line"/>
			<point x="500" y="860" type="line"/>
			<point x="452" y="784" type="line"/>
			<point x="434" y="860" type="line"/>
		</contour>
		<contour>
			<point x="553" y="0" type="line"/>
			<point x="582" y="140" type="line"/>
			<point x="233" y="140" type="line"/>
			<point x="262" y="276" type="line"/>
			<point x="581" y="276" type="line"/>
			<point x="611" y="416" type="line"/>
			<point x="292" y="416" type="line"/>
			<point x="321" y="550" type="line"/>
			<point x="660" y="550" type="line"/>
			<point x="689" y="690" type="line"/>
			<point x="170" y="690" type="line"/>
			<point x="24" y="0" type="line"/>
		</contour>
	</outline>
</glyph>
<glyph name="gdotaccent" format="2">
	<advance width="669"/>
	<unicode hex="0121"/>
	<note>
		gdotaccent
	</note>
	<outline>
		<contour>
			<point x="396" y="575" type="curve" smooth="yes"/>
			<point x="452" y="575"/>
			<point x="496" y="609"/>
			<point x="508" y="663" type="curve" smooth="yes"/>
			<point x="519" y="717"/>
			<point x="489" y="751"/>
			<point x="433" y="751" type="curve" smooth="yes"/>
			<point x="377" y="751"/>
			<point x="333" y="717"/>
			<point x="322" y="663" type="curve" smooth="yes"/>
			<point x="310" y="609"/>
			<point x="340" y="575"/>
		</contour>
		<contour>
			<point x="588" y="136" type="curve" smooth="yes"/>
			<point x="672" y="534" type="line"/>
			<point x="492" y="534" type="line"/>
			<point x="478" y="465" type="line"/>
			<point x="455" y="522" type="line"/>
			<point x="431" y="538"/>
			<point x="381" y="548"/>
			<point x="337" y="548" type="curve" smooth="yes"/>
			<point x="200" y="548"/>
			<point x="64" y="453"/>
			<point x="24" y="263" type="curve" smooth="yes"/>
			<point x="-10" y="105"/>
			<point x="69" y="6"/>
			<point x="214" y="6" type="curve" smooth="yes"/>
			<point x="268" y="6"/>
			<point x="312" y="17"/>
			<point x="347" y="39" type="curve"/>
			<point x="400" y="98" type="line"/>
			<point x="396" y="83" type="line" smooth="yes"/>
			<point x="390" y="54"/>
			<point x="384" y="29"/>
			<point x="379" y="13" type="curve" smooth="yes"/>
			<point x="359" y="-59"/>
			<point x="304" y="-88"/>
			<point x="237" y="-88" type="curve" smooth="yes"/>
			<point x="181" y="-88"/>
			<point x="144" y="-68"/>
			<point x="148" y="-33" type="curve" smooth="yes"/>
			<point x="149" y="-23" type="line"/>
			<point x="-25" y="-23" type="line"/>
			<point x="-26" y="-33" type="line" smooth="yes"/>
			<point x="-39" y="-155"/>
			<point x="44" y="-220"/>
			<point x="204" y="-220" type="curve" smooth="yes"/>
			<point x="385" y="-220"/>
			<point x="521" y="-142"/>
			<point x="565" y="33" type="curve" smooth="yes"/>
			<point x="572" y="62"/>
			<point x="581" y="103"/>
		</contour>
		<contour>
			<point x="292" y="128" type="curve" smooth="yes"/>
			<point x="229" y="128"/>
			<point x="189" y="176"/>
			<point x="210" y="276" type="curve" smooth="yes"/>
			<point x="234" y="385"/>
			<point x="290" y="426"/>
			<point x="360" y="426" type="curve" smooth="yes"/>
			<point x="414" y="426"/>
			<point x="462" y="390"/>
			<point x="439" y="283" type="curve" smooth="yes"/>
			<point x="438" y="280" type="line" smooth="yes"/>
			<point x="414" y="168"/>
			<point x="358" y="128"/>
		</contour>
	</outline>
</glyph>
<glyph name="uni0122" format="2">
	<advance width="759"/>
	<unicode hex="0122"/>
	<note>
		Gcommaaccent
	</note>
	<outline>
		<contour>
			<point x="735" y="368" type="line"/>
			<point x="431" y="368" type="line"/>
			<point x="401" y="228" type="line"/>
			<point x="535" y="228" type="line"/>
			<point x="494" y="152"/>
			<point x="441" y="118"/>
			<point x="371" y="118" type="curve" smooth="yes"/>
			<point x="286" y="118"/>
			<point x="223" y="177"/>
			<point x="260" y="351" type="curve" smooth="yes"/>
			<point x="292" y="500"/>
			<point x="380" y="572"/>
			<point x="468" y="572" type="curve" smooth="yes"/>
			<point x="541" y="572"/>
			<point x="579" y="537"/>
			<point x="578" y="463" type="curve" smooth="yes"/>
			<point x="578" y="453" type="line"/>
			<point x="758" y="453" type="line"/>
			<point x="759" y="463" type="line" smooth="yes"/>
			<point x="774" y="599"/>
			<point x="695" y="704"/>
			<point x="498" y="704" type="curve" smooth="yes"/>
			<point x="309" y="704"/>
			<point x="121" y="580"/>
			<point x="70" y="340" type="curve" smooth="yes"/>
			<point x="21" y="108"/>
			<point x="124" y="-14"/>
			<point x="308" y="-14" type="curve" smooth="yes"/>
			<point x="381" y="-14"/>
			<point x="430" y="-3"/>
			<point x="476" y="30" type="curve"/>
			<point x="522" y="106" type="line"/>
			<point x="517" y="0" type="line"/>
			<point x="657" y="0" type="line"/>
		</contour>
		<contour>
			<point x="408" y="-37" type="line"/>
			<point x="294" y="-37" type="line"/>
			<point x="172" y="-216" type="line"/>
			<point x="269" y="-216" type="line"/>
			<point x="406" y="-47" type="line"/>
		</contour>
	</outline>
</glyph>
<glyph name="hbar" format="2">
	<advance width="656"/>
	<unicode hex="0127"/>
	<note>
		hbar
	</note>
	<outline>
		<contour>
			<point x="632" y="403" type="curve" smooth="yes"/>
			<point x="638" y="496"/>
			<point x="584" y="548"/>
			<point x="474" y="548" type="curve" smooth="yes"/>
			<point x="425" y="548"/>
			<point x="385" y="537"/>
			<point x="348" y="517" type="curve"/>
			<point x="286" y="451" type="line"/>
			<point x="312" y="575" type="line"/>
			<point x="420" y="575" type="line"/>
			<point x="440" y="671" type="line"/>
			<point x="332" y="671" type="line"/>
			<point x="347" y="740" type="line"/>
			<point x="167" y="740" type="line"/>
			<point x="152" y="671" type="line"/>
			<point x="100" y="671" type="line"/>
			<point x="80" y="575" type="line"/>
			<point x="132" y="575" type="line"/>
			<point x="10" y="0" type="line"/>
			<point x="190" y="0" type="line"/>
			<point x="243" y="252" type="line" smooth="yes"/>
			<point x="269" y="373"/>
			<point x="319" y="426"/>
			<point x="374" y="426" type="curve" smooth="yes"/>
			<point x="428" y="426"/>
			<point x="450" y="396"/>
			<point x="443" y="345" type="curve" smooth="yes"/>
			<point x="439" y="318"/>
			<point x="433" y="289"/>
			<point x="429" y="272" type="curve" smooth="yes"/>
			<point x="372" y="0" type="line"/>
			<point x="552" y="0" type="line"/>
			<point x="616" y="302" type="line" smooth="yes"/>
			<point x="625" y="345"/>
			<point x="631" y="376"/>
		</contour>
	</outline>
</glyph>
<glyph name="imacron" format="2">
	<advance width="288"/>
	<unicode hex="012B"/>
	<note>
		imacron
	</note>
	<outline>
		<contour>
			<point x="62" y="586" type="line"/>
			<point x="362" y="586" type="line"/>
			<point x="383" y="682" type="line"/>
			<point x="83" y="682" type="line"/>
		</contour>
		<contour>
			<point x="-2" y="0" type="line"/>
			<point x="178" y="0" type="line"/>
			<point x="291" y="534" type="line"/>
			<point x="111" y="534" type="line"/>
		</contour>
	</outline>
</glyph>
<glyph name="Idotaccent" format="2">
	<advance width="314"/>
	<unicode hex="0130"/>
	<note>
		Idotaccent
	</note>
	<outline>
		<contour>
			<point x="305" y="901" type="curve" smooth="yes"/>
			<point x="249" y="901"/>
			<point x="205" y="867"/>
			<point x="193" y="813" type="curve" smooth="yes"/>
			<point x="182" y="759"/>
			<point x="212" y="725"/>
			<point x="268" y="725" type="curve" smooth="yes"/>
			<point x="324" y="725"/>
			<point x="368" y="759"/>
			<point x="379" y="813" type="curve" smooth="yes"/>
			<point x="391" y="867"/>
			<point x="361" y="901"/>
		</contour>
		<contour>
			<point x="24" y="0" type="line"/>
			<point x="204" y="0" type="line"/>
			<point x="350" y="690" type="line"/>
			<point x="170" y="690" type="line"/>
		</contour>
	</outline>
</glyph>
<glyph name="IJ" format="2">
	<advance width="952"/>
	<unicode hex="0132"/>
	<note>
		IJ
	</note>
	<outline>
		<contour>
			<point x="24" y="0" type="line"/>
			<point x="204" y="0" type="line"/>
			<point x="350" y="690" type="line"/>
			<point x="170" y="690" type="line"/>
		</contour>
		<contour>
			<point x="907" y="299" type="curve" smooth="yes"/>
			<point x="990" y="690" type="line"/>
			<point x="810" y="690" type="line"/>
			<point x="721" y="271" type="line" smooth="yes"/>
			<point x="717" y="250"/>
			<point x="712" y="228"/>
			<point x="705" y="205" type="curve" smooth="yes"/>
			<point x="689" y="150"/>
			<point x="656" y="118"/>
			<point x="606" y="118" type="curve" smooth="yes"/>
			<point x="555" y="118"/>
			<point x="524" y="144"/>
			<point x="537" y="234" type="curve" smooth="yes"/>
			<point x="542" y="264" type="line"/>
			<point x="362" y="264" type="line"/>
			<point x="356" y="234" type="line" smooth="yes"/>
			<point x="330" y="84"/>
			<point x="386" y="-14"/>
			<point x="573" y="-14" type="curve" smooth="yes"/>
			<point x="752" y="-14"/>
			<point x="849" y="73"/>
			<point x="882" y="194" type="curve" smooth="yes"/>
			<point x="896" y="245"/>
			<point x="900" y="267"/>
		</contour>
	</outline>
</glyph>
<glyph name="Lacute" format="2">
	<advance width="628"/>
	<unicode hex="0139"/>
	<note>
		Lacute
	</note>
	<outline>
		<contour>
			<point x="216" y="735" type="line"/>
			<point x="312" y="735" type="line"/>
			<point x="493" y="860" type="line"/>
			<point x="333" y="860" type="line"/>
		</contour>
		<contour>
			<point x="553" y="0" type="line"/>
			<point x="585" y="152" type="line"/>
			<point x="236" y="152" type="line"/>
			<point x="350" y="690" type="line"/>
			<point x="170" y="690" type="line"/>
			<point x="24" y="0" type="line"/>
		</contour>
	</outline>
</glyph>
<glyph name="uni013B" format="2">
	<advance width="628"/>
	<unicode hex="013B"/>
	<note>
		Lcommaaccent
	</note>
	<outline>
		<contour>
			<point x="553" y="0" type="line"/>
			<point x="585" y="152" type="line"/>
			<point x="236" y="152" type="line"/>
			<point x="350" y="690" type="line"/>
			<point x="170" y="690" type="line"/>
			<point x="24" y="0" type="line"/>
		</contour>
		<contour>
			<point x="349" y="-37" type="line"/>
			<point x="235" y="-37" type="line"/>
			<point x="113" y="-216" type="line"/>
			<point x="210" y="-216" type="line"/>
			<point x="347" y="-47" type="line"/>
		</contour>
	</outline>
</glyph>
<glyph name="lcaron" format="2">
	<advance width="305"/>
	<unicode hex="013E"/>
	<note>
		lcaron
	</note>
	<outline>
		<contour>
			<point x="214" y="192" type="curve" smooth="yes"/>
			<point x="330" y="735" type="line"/>
			<point x="150" y="735" type="line"/>
			<point x="34" y="189" type="line" smooth="yes"/>
			<point x="25" y="149"/>
			<point x="20" y="122"/>
			<point x="16" y="94" type="curve" smooth="yes"/>
			<point x="5" y="23"/>
			<point x="45" y="-10"/>
			<point x="128" y="-10" type="curve" smooth="yes"/>
			<point x="168" y="-10"/>
			<point x="200" y="-8"/>
			<point x="234" y="-5" type="curve"/>
			<point x="260" y="117" type="line"/>
			<point x="212" y="115"/>
			<point x="205" y="122"/>
			<point x="206" y="143" type="curve" smooth="yes"/>
			<point x="207" y="156"/>
			<point x="209" y="167"/>
		</contour>
	</outline>
</glyph>
<glyph name="Ldot" format="2">
	<advance width="628"/>
	<unicode hex="013F"/>
	<note>
		Ldot
	</note>
	<outline>
		<contour>
			<point x="553" y="0" type="line"/>
			<point x="585" y="152" type="line"/>
			<point x="236" y="152" type="line"/>
			<point x="350" y="690" type="line"/>
			<point x="170" y="690" type="line"/>
			<point x="24" y="0" type="line"/>
		</contour>
		<contour>
			<point x="457" y="300" type="curve" smooth="yes"/>
			<point x="514" y="300"/>
			<point x="567" y="343"/>
			<point x="579" y="400" type="curve" smooth="yes"/>
			<point x="591" y="457"/>
			<point x="557" y="500"/>
			<point x="500" y="500" type="curve" smooth="yes"/>
			<point x="443" y="500"/>
			<point x="391" y="457"/>
			<point x="379" y="400" type="curve" smooth="yes"/>
			<point x="367" y="343"/>
			<point x="400" y="300"/>
		</contour>
	</outline>
</glyph>
<glyph name="lslash" format="2">
	<advance width="337"/>
	<unicode hex="0142"/>
	<note>
		lslash
	</note>
	<outline>
		<contour>
			<point x="228" y="143" type="curve" smooth="yes"/>
			<point x="229" y="156"/>
			<point x="231" y="167"/>
			<point x="236" y="192" type="curve" smooth="yes"/>
			<point x="264" y="320" type="line"/>
			<point x="332" y="358" type="line"/>
			<point x="357" y="477" type="line"/>
			<point x="289" y="439" type="line"/>
			<point x="352" y="735" type="line"/>
			<point x="172" y="735" type="line"/>
			<point x="85" y="325" type="line"/>
			<point x="17" y="287" type="line"/>
			<point x="-9" y="168" type="line"/>
			<point x="59" y="206" type="line"/>
			<point x="56" y="189" type="line" smooth="yes"/>
			<point x="47" y="149"/>
			<point x="42" y="122"/>
			<point x="38" y="94" type="curve" smooth="yes"/>
			<point x="27" y="23"/>
			<point x="67" y="-10"/>
			<point x="150" y="-10" type="curve" smooth="yes"/>
			<point x="190" y="-10"/>
			<point x="222" y="-8"/>
			<point x="256" y="-5" type="curve"/>
			<point x="282" y="117" type="line"/>
			<point x="234" y="115"/>
			<point x="227" y="122"/>
		</contour>
	</outline>
</glyph>
<glyph name="nacute" format="2">
	<advance width="644"/>
	<unicode hex="0144"/>
	<note>
		nacute
	</note>
	<outline>
		<contour>
			<point x="332" y="571" type="line"/>
			<point x="428" y="571" type="line"/>
			<point x="610" y="696" type="line"/>
			<point x="450" y="696" type="line"/>
		</contour>
		<contour>
			<point x="620" y="403" type="curve" smooth="yes"/>
			<point x="626" y="496"/>
			<point x="572" y="548"/>
			<point x="462" y="548" type="curve" smooth="yes"/>
			<point x="413" y="548"/>
			<point x="373" y="537"/>
			<point x="336" y="517" type="curve"/>
			<point x="274" y="451" type="line"/>
			<point x="291" y="534" type="line"/>
			<point x="111" y="534" type="line"/>
			<point x="-2" y="0" type="line"/>
			<point x="178" y="0" type="line"/>
			<point x="231" y="252" type="line" smooth="yes"/>
			<point x="257" y="373"/>
			<point x="307" y="426"/>
			<point x="362" y="426" type="curve" smooth="yes"/>
			<point x="416" y="426"/>
			<point x="438" y="396"/>
			<point x="431" y="345" type="curve" smooth="yes"/>
			<point x="427" y="318"/>
			<point x="421" y="289"/>
			<point x="417" y="272" type="curve" smooth="yes"/>
			<point x="360" y="0" type="line"/>
			<point x="540" y="0" type="line"/>
			<point x="604" y="302" type="line" smooth="yes"/>
			<point x="613" y="345"/>
			<point x="619" y="376"/>
		</contour>
	</outline>
</glyph>
<glyph name="eng" format="2">
	<advance width="644"/>
	<unicode hex="014B"/>
	<note>
		eng
	</note>
	<outline>
		<contour>
			<point x="620" y="403" type="curve" smooth="yes"/>
			<point x="626" y="496"/>
			<point x="572" y="548"/>
			<point x="462" y="548" type="curve" smooth="yes"/>
			<point x="413" y="548"/>
			<point x="373" y="537"/>
			<point x="336" y="517" type="curve"/>
			<point x="274" y="451" type="line"/>
			<point x="291" y="534" type="line"/>
			<point x="111" y="534" type="line"/>
			<point x="-2" y="0" type="line"/>
			<point x="178" y="0" type="line"/>
			<point x="231" y="252" type="line" smooth="yes"/>
			<point x="257" y="373"/>
			<point x="307" y="426"/>
			<point x="362" y="426" type="curve" smooth="yes"/>
			<point x="416" y="426"/>
			<point x="438" y="396"/>
			<point x="431" y="345" type="curve" smooth="yes"/>
			<point x="427" y="318"/>
			<point x="421" y="289"/>
			<point x="417" y="272" type="curve" smooth="yes"/>
			<point x="359" y="-3" type="line" smooth="yes"/>
			<point x="357" y="-13"/>
			<point x="354" y="-26"/>
			<point x="351" y="-35" type="curve" smooth="yes"/>
			<point x="340" y="-69"/>
			<point x="313" y="-78"/>
			<point x="268" y="-78" type="curve"/>
			<point x="240" y="-210" type="line"/>
			<point x="436" y="-210"/>
			<point x="495" y="-163"/>
			<point x="523" y="-75" type="curve" smooth="yes"/>
			<point x="527" y="-61"/>
			<point x="529" y="-52"/>
			<point x="532" y="-34" type="curve" smooth="yes"/>
			<point x="604" y="302" type="line" smooth="yes"/>
			<point x="613" y="345"/>
			<point x="619" y="376"/>
		</contour>
	</outline>
</glyph>
<glyph name="Ohungarumlaut" format="2">
	<advance width="788"/>
	<unicode hex="0150"/>
	<note>
		Ohungarumlaut
	</note>
	<outline>
		<contour>
			<point x="330" y="736" type="line"/>
			<point x="426" y="736" type="line"/>
			<point x="608" y="861" type="line"/>
			<point x="448" y="861" type="line"/>
		</contour>
		<contour>
			<point x="649" y="861" type="line"/>
			<point x="531" y="736" type="line"/>
			<point x="627" y="736" type="line"/>
			<point x="809" y="861" type="line"/>
		</contour>
		<contour>
			<point x="500" y="704" type="curve" smooth="yes"/>
			<point x="285" y="704"/>
			<point x="118" y="567"/>
			<point x="71" y="345" type="curve" smooth="yes"/>
			<point x="24" y="124"/>
			<point x="133" y="-14"/>
			<point x="348" y="-14" type="curve" smooth="yes"/>
			<point x="563" y="-14"/>
			<point x="730" y="124"/>
			<point x="777" y="345" type="curve" smooth="yes"/>
			<point x="824" y="567"/>
			<point x="715" y="704"/>
		</contour>
		<contour>
			<point x="376" y="118" type="curve" smooth="yes"/>
			<point x="272" y="118"/>
			<point x="224" y="199"/>
			<point x="255" y="345" type="curve" smooth="yes"/>
			<point x="286" y="492"/>
			<point x="368" y="572"/>
			<point x="472" y="572" type="curve" smooth="yes"/>
			<point x="576" y="572"/>
			<point x="624" y="492"/>
			<point x="593" y="345" type="curve" smooth="yes"/>
			<point x="562" y="199"/>
			<point x="480" y="118"/>
		</contour>
	</outline>
</glyph>
<glyph name="OE" format="2">
	<advance width="1135"/>
	<unicode hex="0152"/>
	<note>
		OE
	</note>
	<outline>
		<contour>
			<point x="1049" y="0" type="line"/>
			<point x="1078" y="140" type="line"/>
			<point x="729" y="140" type="line"/>
			<point x="758" y="276" type="line"/>
			<point x="1077" y="276" type="line"/>
			<point x="1107" y="416" type="line"/>
			<point x="788" y="416" type="line"/>
			<point x="817" y="550" type="line"/>
			<point x="1156" y="550" type="line"/>
			<point x="1185" y="690" type="line"/>
			<point x="666" y="690" type="line"/>
			<point x="645" y="588" type="line"/>
			<point x="627" y="656" type="line"/>
			<point x="585" y="694"/>
			<point x="547" y="704"/>
			<point x="460" y="704" type="curve" smooth="yes"/>
			<point x="285" y="704"/>
			<point x="118" y="567"/>
			<point x="71" y="345" type="curve" smooth="yes"/>
			<point x="24" y="124"/>
			<point x="133" y="-14"/>
			<point x="308" y="-14" type="curve" smooth="yes"/>
			<point x="397" y="-14"/>
			<point x="436" y="-4"/>
			<point x="495" y="36" type="curve"/>
			<point x="542" y="103" type="line"/>
			<point x="520" y="0" type="line"/>
		</contour>
		<contour>
			<point x="376" y="118" type="curve" smooth="yes"/>
			<point x="272" y="118"/>
			<point x="224" y="199"/>
			<point x="255" y="345" type="curve" smooth="yes"/>
			<point x="286" y="492"/>
			<point x="368" y="572"/>
			<point x="472" y="572" type="curve" smooth="yes"/>
			<point x="576" y="572"/>
			<point x="624" y="492"/>
			<point x="593" y="345" type="curve" smooth="yes"/>
			<point x="562" y="199"/>
			<point x="480" y="118"/>
		</contour>
	</outline>
</glyph>
<glyph name="uni0157" format="2">
	<advance width="420"/>
	<unicode hex="0157"/>
	<note>
		rcommaaccent
	</note>
	<outline>
		<contour>
			<point x="437" y="548" type="curve" smooth="yes"/>
			<point x="403" y="548"/>
			<point x="358" y="533"/>
			<point x="322" y="501" type="curve"/>
			<point x="268" y="426" type="line"/>
			<point x="291" y="534" type="line"/>
			<point x="111" y="534" type="line"/>
			<point x="-2" y="0" type="line"/>
			<point x="178" y="0" type="line"/>
			<point x="219" y="196" type="line" smooth="yes"/>
			<point x="254" y="357"/>
			<point x="313" y="407"/>
			<point x="446" y="398" type="curve"/>
			<point x="478" y="545" type="line"/>
			<point x="465" y="547"/>
			<point x="454" y="548"/>
		</contour>
		<contour>
			<point x="154" y="-37" type="line"/>
			<point x="40" y="-37" type="line"/>
			<point x="-82" y="-216" type="line"/>
			<point x="15" y="-216" type="line"/>
			<point x="152" y="-47" type="line"/>
		</contour>
	</outline>
</glyph>
<glyph name="sacute" format="2">
	<advance width="528"/>
	<unicode hex="015B"/>
	<note>
		sacute
	</note>
	<outline>
		<contour>
			<point x="280" y="571" type="line"/>
			<point x="376" y="571" type="line"/>
			<point x="558" y="696" type="line"/>
			<point x="398" y="696" type="line"/>
		</contour>
		<contour>
			<point x="334" y="548" type="curve" smooth="yes"/>
			<point x="192" y="548"/>
			<point x="86" y="482"/>
			<point x="64" y="376" type="curve" smooth="yes"/>
			<point x="44" y="285"/>
			<point x="95" y="238"/>
			<point x="192" y="214" type="curve" smooth="yes"/>
			<point x="282" y="192"/>
			<point x="312" y="173"/>
			<point x="305" y="139" type="curve" smooth="yes"/>
			<point x="299" y="111"/>
			<point x="272" y="98"/>
			<point x="240" y="98" type="curve" smooth="yes"/>
			<point x="202" y="98"/>
			<point x="175" y="125"/>
			<point x="174" y="166" type="curve"/>
			<point x="-3" y="166" type="line"/>
			<point x="-15" y="46"/>
			<point x="72" y="-14"/>
			<point x="217" y="-14" type="curve" smooth="yes"/>
			<point x="346" y="-14"/>
			<point x="464" y="39"/>
			<point x="488" y="153" type="curve" smooth="yes"/>
			<point x="510" y="256"/>
			<point x="450" y="298"/>
			<point x="358" y="322" type="curve" smooth="yes"/>
			<point x="261" y="347"/>
			<point x="242" y="367"/>
			<point x="248" y="397" type="curve" smooth="yes"/>
			<point x="253" y="420"/>
			<point x="274" y="436"/>
			<point x="299" y="436" type="curve" smooth="yes"/>
			<point x="331" y="436"/>
			<point x="345" y="415"/>
			<point x="345" y="378" type="curve"/>
			<point x="522" y="378" type="line"/>
			<point x="529" y="475"/>
			<point x="467" y="548"/>
		</contour>
	</outline>
</glyph>
<glyph name="Scedilla" format="2">
	<advance width="626"/>
	<unicode hex="015E"/>
	<note>
		Scedilla
	</note>
	<outline>
		<contour>
			<point x="594" y="194" type="curve" smooth="yes"/>
			<point x="616" y="300"/>
			<point x="571" y="376"/>
			<point x="426" y="412" type="curve" smooth="yes"/>
			<point x="318" y="439"/>
			<point x="292" y="466"/>
			<point x="301" y="510" type="curve" smooth="yes"/>
			<point x="310" y="552"/>
			<point x="342" y="572"/>
			<point x="383" y="572" type="curve" smooth="yes"/>
			<point x="442" y="572"/>
			<point x="464" y="534"/>
			<point x="460" y="477" type="curve"/>
			<point x="640" y="477" type="line"/>
			<point x="652" y="605"/>
			<point x="597" y="704"/>
			<point x="415" y="704" type="curve" smooth="yes"/>
			<point x="278" y="704"/>
			<point x="138" y="629"/>
			<point x="110" y="496" type="curve" smooth="yes"/>
			<point x="81" y="358"/>
			<point x="162" y="309"/>
			<point x="311" y="270" type="curve" smooth="yes"/>
			<point x="392" y="249"/>
			<point x="411" y="218"/>
			<point x="403" y="182" type="curve" smooth="yes"/>
			<point x="395" y="144"/>
			<point x="352" y="118"/>
			<point x="302" y="118" type="curve" smooth="yes"/>
			<point x="248" y="118"/>
			<point x="201" y="146"/>
			<point x="203" y="211" type="curve"/>
			<point x="23" y="211" type="line"/>
			<point x="4" y="81"/>
			<point x="74" y="10"/>
			<point x="201" y="-9" type="curve"/>
			<point x="146" y="-88" type="line"/>
			<point x="222" y="-83"/>
			<point x="242" y="-94"/>
			<point x="237" y="-114" type="curve" smooth="yes"/>
			<point x="234" y="-132"/>
			<point x="215" y="-141"/>
			<point x="172" y="-141" type="curve" smooth="yes"/>
			<point x="159" y="-141"/>
			<point x="139" y="-140"/>
			<point x="115" y="-134" type="curve"/>
			<point x="100" y="-204" type="line"/>
			<point x="118" y="-209"/>
			<point x="136" y="-210"/>
			<point x="156" y="-210" type="curve" smooth="yes"/>
			<point x="248" y="-210"/>
			<point x="330" y="-188"/>
			<point x="344" y="-119" type="curve" smooth="yes"/>
			<point x="354" y="-74"/>
			<point x="327" y="-49"/>
			<point x="266" y="-42" type="curve"/>
			<point x="286" y="-14" type="line"/>
			<point x="422" y="-12"/>
			<point x="565" y="58"/>
		</contour>
	</outline>
</glyph>
<glyph name="scedilla" format="2">
	<advance width="528"/>
	<unicode hex="015F"/>
	<note>
		scedilla
	</note>
	<outline>
		<contour>
			<point x="488" y="153" type="curve" smooth="yes"/>
			<point x="510" y="256"/>
			<point x="450" y="298"/>
			<point x="358" y="322" type="curve" smooth="yes"/>
			<point x="261" y="347"/>
			<point x="242" y="367"/>
			<point x="248" y="397" type="curve" smooth="yes"/>
			<point x="253" y="420"/>
			<point x="274" y="436"/>
			<point x="299" y="436" type="curve" smooth="yes"/>
			<point x="331" y="436"/>
			<point x="345" y="415"/>
			<point x="345" y="378" type="curve"/>
			<point x="522" y="378" type="line"/>
			<point x="529" y="475"/>
			<point x="467" y="548"/>
			<point x="334" y="548" type="curve" smooth="yes"/>
			<point x="192" y="548"/>
			<point x="86" y="482"/>
			<point x="64" y="376" type="curve" smooth="yes"/>
			<point x="44" y="285"/>
			<point x="95" y="238"/>
			<point x="192" y="214" type="curve" smooth="yes"/>
			<point x="282" y="192"/>
			<point x="312" y="173"/>
			<point x="305" y="139" type="curve" smooth="yes"/>
			<point x="299" y="111"/>
			<point x="272" y="98"/>
			<point x="240" y="98" type="curve" smooth="yes"/>
			<point x="202" y="98"/>
			<point x="175" y="125"/>
			<point x="174" y="166" type="curve"/>
			<point x="-3" y="166" type="line"/>
			<point x="-13" y="63"/>
			<point x="49" y="5"/>
			<point x="158" y="-10" type="curve"/>
			<point x="103" y="-88" type="line"/>
			<point x="179" y="-83"/>
			<point x="199" y="-94"/>
			<point x="194" y="-114" type="curve" smooth="yes"/>
			<point x="191" y="-132"/>
			<point x="172" y="-141"/>
			<point x="129" y="-141" type="curve" smooth="yes"/>
			<point x="116" y="-141"/>
			<point x="96" y="-140"/>
			<point x="72" y="-134" type="curve"/>
			<point x="57" y="-204" type="line"/>
			<point x="75" y="-209"/>
			<point x="93" y="-210"/>
			<point x="113" y="-210" type="curve" smooth="yes"/>
			<point x="205" y="-210"/>
			<point x="287" y="-188"/>
			<point x="301" y="-119" type="curve" smooth="yes"/>
			<point x="311" y="-74"/>
			<point x="284" y="-49"/>
			<point x="223" y="-42" type="curve"/>
			<point x="243" y="-13" type="line"/>
			<point x="361" y="-7"/>
			<point x="466" y="47"/>
		</contour>
	</outline>
</glyph>
<glyph name="Scaron" format="2">
	<advance width="626"/>
	<unicode hex="0160"/>
	<note>
		Scaron
	</note>
	<outline>
		<contour>
			<point x="316" y="860" type="line"/>
			<point x="352" y="735" type="line"/>
			<point x="501" y="735" type="line"/>
			<point x="589" y="860" type="line"/>
			<point x="486" y="860" type="line"/>
			<point x="438" y="784" type="line"/>
			<point x="420" y="860" type="line"/>
		</contour>
		<contour>
			<point x="426" y="412" type="curve" smooth="yes"/>
			<point x="318" y="439"/>
			<point x="292" y="466"/>
			<point x="301" y="510" type="curve" smooth="yes"/>
			<point x="310" y="552"/>
			<point x="342" y="572"/>
			<point x="383" y="572" type="curve" smooth="yes"/>
			<point x="442" y="572"/>
			<point x="464" y="534"/>
			<point x="460" y="477" type="curve"/>
			<point x="640" y="477" type="line"/>
			<point x="652" y="605"/>
			<point x="597" y="704"/>
			<point x="415" y="704" type="curve" smooth="yes"/>
			<point x="278" y="704"/>
			<point x="138" y="629"/>
			<point x="110" y="496" type="curve" smooth="yes"/>
			<point x="81" y="358"/>
			<point x="162" y="309"/>
			<point x="311" y="270" type="curve" smooth="yes"/>
			<point x="392" y="249"/>
			<point x="411" y="218"/>
			<point x="403" y="182" type="curve" smooth="yes"/>
			<point x="395" y="144"/>
			<point x="352" y="118"/>
			<point x="302" y="118" type="curve" smooth="yes"/>
			<point x="248" y="118"/>
			<point x="201" y="146"/>
			<point x="203" y="211" type="curve"/>
			<point x="23" y="211" type="line"/>
			<point x="1" y="56"/>
			<point x="104" y="-14"/>
			<point x="279" y="-14" type="curve" smooth="yes"/>
			<point x="418" y="-14"/>
			<point x="565" y="56"/>
			<point x="594" y="194" type="curve" smooth="yes"/>
			<point x="616" y="300"/>
			<point x="571" y="376"/>
		</contour>
	</outline>
</glyph>
<glyph name="uni0162" format="2">
	<advance width="632"/>
	<unicode hex="0162"/>
	<note>
		Tcedilla
	</note>
	<outline>
		<contour>
			<point x="282" y="-42" type="curve"/>
			<point x="311" y="0" type="line"/>
			<point x="362" y="0" type="line"/>
			<point x="479" y="550" type="line"/>
			<point x="703" y="550" type="line"/>
			<point x="732" y="690" type="line"/>
			<point x="104" y="690" type="line"/>
			<point x="75" y="550" type="line"/>
			<point x="299" y="550" type="line"/>
			<point x="182" y="0" type="line"/>
			<point x="224" y="0" type="line"/>
			<point x="162" y="-88" type="line"/>
			<point x="238" y="-83"/>
			<point x="258" y="-94"/>
			<point x="253" y="-114" type="curve" smooth="yes"/>
			<point x="250" y="-132"/>
			<point x="231" y="-141"/>
			<point x="188" y="-141" type="curve" smooth="yes"/>
			<point x="175" y="-141"/>
			<point x="155" y="-140"/>
			<point x="131" y="-134" type="curve"/>
			<point x="116" y="-204" type="line"/>
			<point x="134" y="-209"/>
			<point x="152" y="-210"/>
			<point x="172" y="-210" type="curve" smooth="yes"/>
			<point x="264" y="-210"/>
			<point x="346" y="-188"/>
			<point x="360" y="-119" type="curve" smooth="yes"/>
			<point x="370" y="-74"/>
			<point x="343" y="-49"/>
		</contour>
	</outline>
</glyph>
<glyph name="uni0163" format="2">
	<advance width="400"/>
	<unicode hex="0163"/>
	<note>
		tcedilla
	</note>
	<outline>
		<contour>
			<point x="261" y="221" type="curve" smooth="yes"/>
			<point x="303" y="418" type="line"/>
			<point x="421" y="418" type="line"/>
			<point x="444" y="530" type="line"/>
			<point x="326" y="530" type="line"/>
			<point x="356" y="668" type="line"/>
			<point x="176" y="668" type="line"/>
			<point x="146" y="530" type="line"/>
			<point x="61" y="530" type="line"/>
			<point x="38" y="418" type="line"/>
			<point x="123" y="418" type="line"/>
			<point x="75" y="195" type="line" smooth="yes"/>
			<point x="69" y="165"/>
			<point x="63" y="140"/>
			<point x="59" y="109" type="curve" smooth="yes"/>
			<point x="51" y="51"/>
			<point x="64" y="14"/>
			<point x="119" y="-3" type="curve"/>
			<point x="60" y="-88" type="line"/>
			<point x="136" y="-83"/>
			<point x="156" y="-94"/>
			<point x="151" y="-114" type="curve" smooth="yes"/>
			<point x="148" y="-132"/>
			<point x="129" y="-141"/>
			<point x="86" y="-141" type="curve" smooth="yes"/>
			<point x="73" y="-141"/>
			<point x="53" y="-140"/>
			<point x="29" y="-134" type="curve"/>
			<point x="14" y="-204" type="line"/>
			<point x="32" y="-209"/>
			<point x="50" y="-210"/>
			<point x="70" y="-210" type="curve" smooth="yes"/>
			<point x="162" y="-210"/>
			<point x="244" y="-188"/>
			<point x="258" y="-119" type="curve" smooth="yes"/>
			<point x="268" y="-74"/>
			<point x="241" y="-49"/>
			<point x="180" y="-42" type="curve"/>
			<point x="200" y="-14" type="line"/>
			<point x="212" y="-14" type="line" smooth="yes"/>
			<point x="250" y="-14"/>
			<point x="283" y="-11"/>
			<point x="320" y="-5" type="curve"/>
			<point x="343" y="107" type="line"/>
			<point x="258" y="103"/>
			<point x="243" y="115"/>
			<point x="251" y="169" type="curve" smooth="yes"/>
			<point x="253" y="183"/>
			<point x="257" y="203"/>
		</contour>
	</outline>
</glyph>
<glyph name="Tcaron" format="2">
	<advance width="632"/>
	<unicode hex="0164"/>
	<note>
		Tcaron
	</note>
	<outline>
		<contour>
			<point x="318" y="860" type="line"/>
			<point x="354" y="735" type="line"/>
			<point x="503" y="735" type="line"/>
			<point x="591" y="860" type="line"/>
			<point x="488" y="860" type="line"/>
			<point x="440" y="784" type="line"/>
			<point x="422" y="860" type="line"/>
		</contour>
		<contour>
			<point x="479" y="550" type="line"/>
			<point x="703" y="550" type="line"/>
			<point x="732" y="690" type="line"/>
			<point x="104" y="690" type="line"/>
			<point x="75" y="550" type="line"/>
			<point x="299" y="550" type="line"/>
			<point x="182" y="0" type="line"/>
			<point x="362" y="0" type="line"/>
		</contour>
	</outline>
</glyph>
<glyph name="Tbar" format="2">
	<advance width="632"/>
	<unicode hex="0166"/>
	<note>
		Tbar
	</note>
	<outline>
		<contour>
			<point x="444" y="389" type="line"/>
			<point x="479" y="550" type="line"/>
			<point x="703" y="550" type="line"/>
			<point x="732" y="690" type="line"/>
			<point x="104" y="690" type="line"/>
			<point x="75" y="550" type="line"/>
			<point x="299" y="550" type="line"/>
			<point x="264" y="389" type="line"/>
			<point x="174" y="389" type="line"/>
			<point x="154" y="293" type="line"/>
			<point x="244" y="293" type="line"/>
			<point x="182" y="0" type="line"/>
			<point x="362" y="0" type="line"/>
			<point x="424" y="293" type="line"/>
			<point x="514" y="293" type="line"/>
			<point x="534" y="389" type="line"/>
		</contour>
	</outline>
</glyph>
<glyph name="tbar" format="2">
	<advance width="400"/>
	<unicode hex="0167"/>
	<note>
		tbar
	</note>
	<outline>
		<contour>
			<point x="287" y="344" type="line"/>
			<point x="303" y="418" type="line"/>
			<point x="421" y="418" type="line"/>
			<point x="444" y="530" type="line"/>
			<point x="326" y="530" type="line"/>
			<point x="356" y="668" type="line"/>
			<point x="176" y="668" type="line"/>
			<point x="146" y="530" type="line"/>
			<point x="61" y="530" type="line"/>
			<point x="38" y="418" type="line"/>
			<point x="123" y="418" type="line"/>
			<point x="107" y="344" type="line"/>
			<point x="53" y="344" type="line"/>
			<point x="32" y="248" type="line"/>
			<point x="86" y="248" type="line"/>
			<point x="75" y="195" type="line" smooth="yes"/>
			<point x="69" y="165"/>
			<point x="63" y="140"/>
			<point x="59" y="109" type="curve" smooth="yes"/>
			<point x="47" y="27"/>
			<point x="79" y="-14"/>
			<point x="212" y="-14" type="curve" smooth="yes"/>
			<point x="250" y="-14"/>
			<point x="283" y="-11"/>
			<point x="320" y="-5" type="curve"/>
			<point x="343" y="107" type="line"/>
			<point x="258" y="103"/>
			<point x="243" y="115"/>
			<point x="251" y="169" type="curve" smooth="yes"/>
			<point x="253" y="183"/>
			<point x="257" y="203"/>
			<point x="261" y="221" type="curve" smooth="yes"/>
			<point x="266" y="248" type="line"/>
			<point x="332" y="248" type="line"/>
			<point x="353" y="344" type="line"/>
		</contour>
	</outline>
</glyph>
<glyph name="Uring" format="2">
	<advance width="718"/>
	<unicode hex="016E"/>
	<note>
		Uring
	</note>
	<outline>
		<contour>
			<point x="516" y="932" type="curve" smooth="yes"/>
			<point x="446" y="932"/>
			<point x="388" y="889"/>
			<point x="374" y="827" type="curve" smooth="yes"/>
			<point x="361" y="765"/>
			<point x="401" y="722"/>
			<point x="471" y="722" type="curve" smooth="yes"/>
			<point x="541" y="722"/>
			<point x="599" y="765"/>
			<point x="612" y="827" type="curve" smooth="yes"/>
			<point x="626" y="889"/>
			<point x="586" y="932"/>
		</contour>
		<contour>
			<point x="502" y="866" type="curve" smooth="yes"/>
			<point x="523" y="866"/>
			<point x="534" y="850"/>
			<point x="529" y="827" type="curve" smooth="yes"/>
			<point x="525" y="804"/>
			<point x="506" y="788"/>
			<point x="485" y="788" type="curve" smooth="yes"/>
			<point x="464" y="788"/>
			<point x="453" y="804"/>
			<point x="457" y="827" type="curve" smooth="yes"/>
			<point x="462" y="850"/>
			<point x="481" y="866"/>
		</contour>
		<contour>
			<point x="688" y="303" type="curve" smooth="yes"/>
			<point x="770" y="690" type="line"/>
			<point x="590" y="690" type="line"/>
			<point x="501" y="270" type="line" smooth="yes"/>
			<point x="497" y="251"/>
			<point x="495" y="241"/>
			<point x="491" y="229" type="curve" smooth="yes"/>
			<point x="471" y="157"/>
			<point x="422" y="118"/>
			<point x="343" y="118" type="curve" smooth="yes"/>
			<point x="264" y="118"/>
			<point x="231" y="157"/>
			<point x="241" y="229" type="curve" smooth="yes"/>
			<point x="243" y="241"/>
			<point x="245" y="251"/>
			<point x="249" y="270" type="curve" smooth="yes"/>
			<point x="338" y="690" type="line"/>
			<point x="158" y="690" type="line"/>
			<point x="76" y="303" type="line" smooth="yes"/>
			<point x="69" y="268"/>
			<point x="64" y="247"/>
			<point x="58" y="206" type="curve" smooth="yes"/>
			<point x="42" y="90"/>
			<point x="102" y="-14"/>
			<point x="315" y="-14" type="curve" smooth="yes"/>
			<point x="528" y="-14"/>
			<point x="632" y="90"/>
			<point x="664" y="206" type="curve" smooth="yes"/>
			<point x="676" y="247"/>
			<point x="681" y="268"/>
		</contour>
	</outline>
</glyph>
<glyph name="Uhungarumlaut" format="2">
	<advance width="718"/>
	<unicode hex="0170"/>
	<note>
		Uhungarumlaut
	</note>
	<outline>
		<contour>
			<point x="297" y="736" type="line"/>
			<point x="393" y="736" type="line"/>
			<point x="575" y="861" type="line"/>
			<point x="415" y="861" type="line"/>
		</contour>
		<contour>
			<point x="498" y="736" type="line"/>
			<point x="594" y="736" type="line"/>
			<point x="776" y="861" type="line"/>
			<point x="616" y="861" type="line"/>
		</contour>
		<contour>
			<point x="688" y="303" type="curve" smooth="yes"/>
			<point x="770" y="690" type="line"/>
			<point x="590" y="690" type="line"/>
			<point x="501" y="270" type="line" smooth="yes"/>
			<point x="497" y="251"/>
			<point x="495" y="241"/>
			<point x="491" y="229" type="curve" smooth="yes"/>
			<point x="471" y="157"/>
			<point x="422" y="118"/>
			<point x="343" y="118" type="curve" smooth="yes"/>
			<point x="264" y="118"/>
			<point x="231" y="157"/>
			<point x="241" y="229" type="curve" smooth="yes"/>
			<point x="243" y="241"/>
			<point x="245" y="251"/>
			<point x="249" y="270" type="curve" smooth="yes"/>
			<point x="338" y="690" type="line"/>
			<point x="158" y="690" type="line"/>
			<point x="76" y="303" type="line" smooth="yes"/>
			<point x="69" y="268"/>
			<point x="64" y="247"/>
			<point x="58" y="206" type="curve" smooth="yes"/>
			<point x="42" y="90"/>
			<point x="102" y="-14"/>
			<point x="315" y="-14" type="curve" smooth="yes"/>
			<point x="528" y="-14"/>
			<point x="632" y="90"/>
			<point x="664" y="206" type="curve" smooth="yes"/>
			<point x="676" y="247"/>
			<point x="681" y="268"/>
		</contour>
	</outline>
</glyph>
<glyph name="Ycircumflex" format="2">
	<advance width="663"/>
	<unicode hex="0176"/>
	<note>
		Ycircumflex
	</note>
	<outline>
		<contour>
			<point x="311" y="735" type="line"/>
			<point x="414" y="735" type="line"/>
			<point x="462" y="811" type="line"/>
			<point x="480" y="735" type="line"/>
			<point x="584" y="735" type="line"/>
			<point x="548" y="860" type="line"/>
			<point x="399" y="860" type="line"/>
		</contour>
		<contour>
			<point x="381" y="0" type="line"/>
			<point x="437" y="264" type="line"/>
			<point x="770" y="690" type="line"/>
			<point x="573" y="690" type="line"/>
			<point x="384" y="417" type="line"/>
			<point x="306" y="690" type="line"/>
			<point x="104" y="690" type="line"/>
			<point x="257" y="264" type="line"/>
			<point x="201" y="0" type="line"/>
		</contour>
	</outline>
</glyph>
<glyph name="Zacute" format="2">
	<advance width="648"/>
	<unicode hex="0179"/>
	<note>
		Zacute
	</note>
	<outline>
		<contour>
			<point x="387" y="735" type="line"/>
			<point x="483" y="735" type="line"/>
			<point x="664" y="860" type="line"/>
			<point x="504" y="860" type="line"/>
		</contour>
		<contour>
			<point x="562" y="0" type="line"/>
			<point x="591" y="140" type="line"/>
			<point x="249" y="140" type="line"/>
			<point x="675" y="551" type="line"/>
			<point x="704" y="690" type="line"/>
			<point x="171" y="690" type="line"/>
			<point x="142" y="550" type="line"/>
			<point x="455" y="550" type="line"/>
			<point x="26" y="136" type="line"/>
			<point x="-3" y="0" type="line"/>
		</contour>
	</outline>
</glyph>
<glyph name="zacute" format="2">
	<advance width="526"/>
	<unicode hex="017A"/>
	<note>
		zacute
	</note>
	<outline>
		<contour>
			<point x="287" y="571" type="line"/>
			<point x="383" y="571" type="line"/>
			<point x="565" y="696" type="line"/>
			<point x="405" y="696" type="line"/>
		</contour>
		<contour>
			<point x="441" y="0" type="line"/>
			<point x="464" y="112" type="line"/>
			<point x="194" y="112" type="line"/>
			<point x="527" y="420" type="line"/>
			<point x="550" y="530" type="line"/>
			<point x="105" y="530" type="line"/>
			<point x="82" y="418" type="line"/>
			<point x="337" y="418" type="line"/>
			<point x="0" y="105" type="line"/>
			<point x="-22" y="0" type="line"/>
		</contour>
	</outline>
</glyph>
<glyph name="Zdotaccent" format="2">
	<advance width="648"/>
	<unicode hex="017B"/>
	<note>
		Zdotaccent
	</note>
	<outline>
		<contour>
			<point x="439" y="725" type="curve" smooth="yes"/>
			<point x="495" y="725"/>
			<point x="539" y="759"/>
			<point x="550" y="813" type="curve" smooth="yes"/>
			<point x="562" y="867"/>
			<point x="532" y="901"/>
			<point x="476" y="901" type="curve" smooth="yes"/>
			<point x="420" y="901"/>
			<point x="376" y="867"/>
			<point x="364" y="813" type="curve" smooth="yes"/>
			<point x="353" y="759"/>
			<point x="383" y="725"/>
		</contour>
		<contour>
			<point x="562" y="0" type="line"/>
			<point x="591" y="140" type="line"/>
			<point x="249" y="140" type="line"/>
			<point x="675" y="551" type="line"/>
			<point x="704" y="690" type="line"/>
			<point x="171" y="690" type="line"/>
			<point x="142" y="550" type="line"/>
			<point x="455" y="550" type="line"/>
			<point x="26" y="136" type="line"/>
			<point x="-3" y="0" type="line"/>
		</contour>
	</outline>
</glyph>
<glyph name="zcaron" format="2">
	<advance width="526"/>
	<unicode hex="017E"/>
	<note>
		zcaron
	</note>
	<outline>
		<contour>
			<point x="232" y="696" type="line"/>
			<point x="267" y="571" type="line"/>
			<point x="416" y="571" type="line"/>
			<point x="505" y="696" type="line"/>
			<point x="402" y="696" type="line"/>
			<point x="353" y="620" type="line"/>
			<point x="336" y="696" type="line"/>
		</contour>
		<contour>
			<point x="441" y="0" type="line"/>
			<point x="464" y="112" type="line"/>
			<point x="194" y="112" type="line"/>
			<point x="527" y="420" type="line"/>
			<point x="550" y="530" type="line"/>
			<point x="105" y="530" type="line"/>
			<point x="82" y="418" type="line"/>
			<point x="337" y="418" type="line"/>
			<point x="0" y="105" type="line"/>
			<point x="-22" y="0" type="line"/>
		</contour>
	</outline>
</glyph>
<glyph name="uni0218" format="2">
	<advance width="626"/>
	<unicode hex="0218"/>
	<note>
		Scommaaccent
	</note>
	<outline>
		<contour>
			<point x="415" y="704" type="curve" smooth="yes"/>
			<point x="278" y="704"/>
			<point x="138" y="629"/>
			<point x="110" y="496" type="curve" smooth="yes"/>
			<point x="81" y="358"/>
			<point x="162" y="309"/>
			<point x="311" y="270" type="curve" smooth="yes"/>
			<point x="392" y="249"/>
			<point x="411" y="218"/>
			<point x="403" y="182" type="curve" smooth="yes"/>
			<point x="395" y="144"/>
			<point x="352" y="118"/>
			<point x="302" y="118" type="curve" smooth="yes"/>
			<point x="248" y="118"/>
			<point x="201" y="146"/>
			<point x="203" y="211" type="curve"/>
			<point x="23" y="211" type="line"/>
			<point x="1" y="56"/>
			<point x="104" y="-14"/>
			<point x="279" y="-14" type="curve" smooth="yes"/>
			<point x="418" y="-14"/>
			<point x="565" y="56"/>
			<point x="594" y="194" type="curve" smooth="yes"/>
			<point x="616" y="300"/>
			<point x="571" y="376"/>
			<point x="426" y="412" type="curve" smooth="yes"/>
			<point x="318" y="439"/>
			<point x="292" y="466"/>
			<point x="301" y="510" type="curve" smooth="yes"/>
			<point x="310" y="552"/>
			<point x="342" y="572"/>
			<point x="383" y="572" type="curve" smooth="yes"/>
			<point x="442" y="572"/>
			<point x="464" y="534"/>
			<point x="460" y="477" type="curve"/>
			<point x="640" y="477" type="line"/>
			<point x="652" y="605"/>
			<point x="597" y="704"/>
		</contour>
		<contour>
			<point x="183" y="-216" type="line"/>
			<point x="320" y="-47" type="line"/>
			<point x="322" y="-37" type="line"/>
			<point x="208" y="-37" type="line"/>
			<point x="86" y="-216" type="line"/>
		</contour>
	</outline>
</glyph>
<glyph name="uni021A" format="2">
	<advance width="632"/>
	<unicode hex="021A"/>
	<note>
		uni021A
	</note>
	<outline>
		<contour>
			<point x="479" y="550" type="line"/>
			<point x="703" y="550" type="line"/>
			<point x="732" y="690" type="line"/>
			<point x="104" y="690" type="line"/>
			<point x="75" y="550" type="line"/>
			<point x="299" y="550" type="line"/>
			<point x="182" y="0" type="line"/>
			<point x="362" y="0" type="line"/>
		</contour>
		<contour>
			<point x="338" y="-37" type="line"/>
			<point x="224" y="-37" type="line"/>
			<point x="102" y="-216" type="line"/>
			<point x="199" y="-216" type="line"/>
			<point x="336" y="-47" type="line"/>
		</contour>
	</outline>
</glyph>
<glyph name="uni021B" format="2">
	<advance width="400"/>
	<unicode hex="021B"/>
	<note>
		uni021B
	</note>
	<outline>
		<contour>
			<point x="261" y="221" type="curve" smooth="yes"/>
			<point x="303" y="418" type="line"/>
			<point x="421" y="418" type="line"/>
			<point x="444" y="530" type="line"/>
			<point x="326" y="530" type="line"/>
			<point x="356" y="668" type="line"/>
			<point x="176" y="668" type="line"/>
			<point x="146" y="530" type="line"/>
			<point x="61" y="530" type="line"/>
			<point x="38" y="418" type="line"/>
			<point x="123" y="418" type="line"/>
			<point x="75" y="195" type="line" smooth="yes"/>
			<point x="69" y="165"/>
			<point x="63" y="140"/>
			<point x="59" y="109" type="curve" smooth="yes"/>
			<point x="47" y="27"/>
			<point x="79" y="-14"/>
			<point x="212" y="-14" type="curve" smooth="yes"/>
			<point x="250" y="-14"/>
			<point x="283" y="-11"/>
			<point x="320" y="-5" type="curve"/>
			<point x="343" y="107" type="line"/>
			<point x="258" y="103"/>
			<point x="243" y="115"/>
			<point x="251" y="169" type="curve" smooth="yes"/>
			<point x="253" y="183"/>
			<point x="257" y="203"/>
		</contour>
		<contour>
			<point x="236" y="-37" type="line"/>
			<point x="122" y="-37" type="line"/>
			<point x="0" y="-216" type="line"/>
			<point x="97" y="-216" type="line"/>
			<point x="234" y="-47" type="line"/>
		</contour>
	</outline>
</glyph>
<glyph name="caron" format="2">
	<advance width="300"/>
	<unicode hex="02C7"/>
	<note>
		caron
	</note>
	<outline>
		<contour>
			<point x="290" y="571" type="line"/>
			<point x="379" y="696" type="line"/>
			<point x="276" y="696" type="line"/>
			<point x="227" y="620" type="line"/>
			<point x="210" y="696" type="line"/>
			<point x="106" y="696" type="line"/>
			<point x="141" y="571" type="line"/>
		</contour>
	</outline>
</glyph>
<glyph name="breve" format="2">
	<advance width="300"/>
	<unicode hex="02D8"/>
	<note>
		breve
	</note>
	<outline>
		<contour>
			<point x="377" y="696" type="curve"/>
			<point x="287" y="696" type="line"/>
			<point x="279" y="669"/>
			<point x="261" y="653"/>
			<point x="232" y="653" type="curve" smooth="yes"/>
			<point x="203" y="653"/>
			<point x="193" y="669"/>
			<point x="197" y="696" type="curve"/>
			<point x="107" y="696" type="line"/>
			<point x="86" y="597"/>
			<point x="142" y="568"/>
			<point x="214" y="568" type="curve" smooth="yes"/>
			<point x="285" y="568"/>
			<point x="356" y="597"/>
		</contour>
	</outline>
</glyph>
<glyph name="dotaccent" format="2">
	<advance width="300"/>
	<unicode hex="02D9"/>
	<note>
		dotaccent
	</note>
	<outline>
		<contour>
			<point x="253" y="751" type="curve" smooth="yes"/>
			<point x="197" y="751"/>
			<point x="153" y="717"/>
			<point x="142" y="663" type="curve" smooth="yes"/>
			<point x="130" y="609"/>
			<point x="160" y="575"/>
			<point x="216" y="575" type="curve" smooth="yes"/>
			<point x="272" y="575"/>
			<point x="316" y="609"/>
			<point x="328" y="663" type="curve" smooth="yes"/>
			<point x="339" y="717"/>
			<point x="309" y="751"/>
		</contour>
	</outline>
</glyph>
<glyph name="ring" format="2">
	<advance width="300"/>
	<unicode hex="02DA"/>
	<note>
		ring
	</note>
	<outline>
		<contour>
			<point x="260" y="781" type="curve" smooth="yes"/>
			<point x="190" y="781"/>
			<point x="132" y="738"/>
			<point x="118" y="674" type="curve" smooth="yes"/>
			<point x="104" y="610"/>
			<point x="144" y="567"/>
			<point x="214" y="567" type="curve" smooth="yes"/>
			<point x="284" y="567"/>
			<point x="342" y="610"/>
			<point x="356" y="674" type="curve" smooth="yes"/>
			<point x="370" y="738"/>
			<point x="330" y="781"/>
		</contour>
		<contour>
			<point x="246" y="715" type="curve" smooth="yes"/>
			<point x="267" y="715"/>
			<point x="278" y="700"/>
			<point x="273" y="674" type="curve" smooth="yes"/>
			<point x="267" y="648"/>
			<point x="249" y="633"/>
			<point x="228" y="633" type="curve" smooth="yes"/>
			<point x="207" y="633"/>
			<point x="195" y="648"/>
			<point x="201" y="674" type="curve" smooth="yes"/>
			<point x="206" y="700"/>
			<point x="225" y="715"/>
		</contour>
	</outline>
</glyph>
<glyph name="tilde" format="2">
	<advance width="300"/>
	<unicode hex="02DC"/>
	<note>
		tilde
	</note>
	<outline>
		<contour>
			<point x="170" y="708" type="curve" smooth="yes"/>
			<point x="108" y="708"/>
			<point x="71" y="667"/>
			<point x="52" y="574" type="curve"/>
			<point x="148" y="574" type="line"/>
			<point x="152" y="596"/>
			<point x="158" y="605"/>
			<point x="169" y="605" type="curve" smooth="yes"/>
			<point x="177" y="605"/>
			<point x="189" y="600"/>
			<point x="211" y="590" type="curve" smooth="yes"/>
			<point x="245" y="574"/>
			<point x="260" y="571"/>
			<point x="289" y="571" type="curve" smooth="yes"/>
			<point x="351" y="571"/>
			<point x="388" y="612"/>
			<point x="408" y="705" type="curve"/>
			<point x="312" y="705" type="line"/>
			<point x="307" y="683"/>
			<point x="301" y="674"/>
			<point x="290" y="674" type="curve" smooth="yes"/>
			<point x="282" y="674"/>
			<point x="270" y="678"/>
			<point x="248" y="689" type="curve" smooth="yes"/>
			<point x="216" y="705"/>
			<point x="199" y="708"/>
		</contour>
	</outline>
</glyph>
<glyph name="hungarumlaut" format="2">
	<advance width="300"/>
	<unicode hex="02DD"/>
	<note>
		hungarumlaut
	</note>
	<outline>
		<contour>
			<point x="43" y="571" type="line"/>
			<point x="139" y="571" type="line"/>
			<point x="321" y="696" type="line"/>
			<point x="161" y="696" type="line"/>
		</contour>
		<contour>
			<point x="234" y="571" type="line"/>
			<point x="330" y="571" type="line"/>
			<point x="512" y="696" type="line"/>
			<point x="352" y="696" type="line"/>
		</contour>
	</outline>
</glyph>
<glyph name="wgrave" format="2">
	<advance width="868"/>
	<unicode hex="1E81"/>
	<note>
		wgrave
	</note>
	<outline>
		<contour>
			<point x="348" y="696" type="line"/>
			<point x="476" y="571" type="line"/>
			<point x="572" y="571" type="line"/>
			<point x="508" y="696" type="line"/>
		</contour>
		<contour>
			<point x="651" y="0" type="line"/>
			<point x="933" y="534" type="line"/>
			<point x="739" y="534" type="line"/>
			<point x="590" y="151" type="line"/>
			<point x="602" y="530" type="line"/>
			<point x="388" y="530" type="line"/>
			<point x="244" y="152" type="line"/>
			<point x="255" y="534" type="line"/>
			<point x="57" y="534" type="line"/>
			<point x="113" y="0" type="line"/>
			<point x="314" y="0" type="line"/>
			<point x="458" y="360" type="line"/>
			<point x="450" y="0" type="line"/>
		</contour>
	</outline>
</glyph>
<glyph name="wacute" format="2">
	<advance width="868"/>
	<unicode hex="1E83"/>
	<note>
		wacute
	</note>
	<outline>
		<contour>
			<point x="449" y="571" type="line"/>
			<point x="545" y="571" type="line"/>
			<point x="727" y="696" type="line"/>
			<point x="567" y="696" type="line"/>
		</contour>
		<contour>
			<point x="651" y="0" type="line"/>
			<point x="933" y="534" type="line"/>
			<point x="739" y="534" type="line"/>
			<point x="590" y="151" type="line"/>
			<point x="602" y="530" type="line"/>
			<point x="388" y="530" type="line"/>
			<point x="244" y="152" type="line"/>
			<point x="255" y="534" type="line"/>
			<point x="57" y="534" type="line"/>
			<point x="113" y="0" type="line"/>
			<point x="314" y="0" type="line"/>
			<point x="458" y="360" type="line"/>
			<point x="450" y="0" type="line"/>
		</contour>
	</outline>
</glyph>
<glyph name="wdieresis" format="2">
	<advance width="868"/>
	<unicode hex="1E85"/>
	<note>
		wdieresis
	</note>
	<outline>
		<contour>
			<point x="651" y="0" type="line"/>
			<point x="933" y="534" type="line"/>
			<point x="739" y="534" type="line"/>
			<point x="590" y="151" type="line"/>
			<point x="602" y="530" type="line"/>
			<point x="388" y="530" type="line"/>
			<point x="244" y="152" type="line"/>
			<point x="255" y="534" type="line"/>
			<point x="57" y="534" type="line"/>
			<point x="113" y="0" type="line"/>
			<point x="314" y="0" type="line"/>
			<point x="458" y="360" type="line"/>
			<point x="450" y="0" type="line"/>
		</contour>
		<contour>
			<point x="359" y="715" type="line"/>
			<point x="328" y="568" type="line"/>
			<point x="478" y="568" type="line"/>
			<point x="509" y="715" type="line"/>
		</contour>
		<contour>
			<point x="560" y="715" type="line"/>
			<point x="529" y="568" type="line"/>
			<point x="679" y="568" type="line"/>
			<point x="710" y="715" type="line"/>
		</contour>
	</outline>
</glyph>
<glyph name="emdash" format="2">
	<advance width="1000"/>
	<unicode hex="2014"/>
	<note>
		emdash
	</note>
	<outline>
		<contour>
			<point x="85" y="242" type="line"/>
			<point x="905" y="242" type="line"/>
			<point x="926" y="338" type="line"/>
			<point x="106" y="338" type="line"/>
		</contour>
	</outline>
</glyph>
<glyph name="quoteright" format="2">
	<advance width="322"/>
	<unicode hex="2019"/>
	<note>
		quoteright
	</note>
	<outline>
		<contour>
			<point x="192" y="439" type="line"/>
			<point x="362" y="725" type="line"/>
			<point x="364" y="735" type="line"/>
			<point x="197" y="735" type="line"/>
			<point x="54" y="439" type="line"/>
		</contour>
	</outline>
</glyph>
<glyph name="dagger" format="2">
	<advance width="570"/>
	<unicode hex="2020"/>
	<note>
		dagger
	</note>
	<outline>
		<contour>
			<point x="371" y="342" type="line"/>
			<point x="550" y="338" type="line"/>
			<point x="581" y="488" type="line"/>
			<point x="403" y="484" type="line"/>
			<point x="456" y="690" type="line"/>
			<point x="294" y="690" type="line"/>
			<point x="261" y="484" type="line"/>
			<point x="83" y="488" type="line"/>
			<point x="52" y="338" type="line"/>
			<point x="231" y="342" type="line"/>
			<point x="114" y="-160" type="line"/>
			<point x="276" y="-160" type="line"/>
		</contour>
	</outline>
</glyph>
<glyph name="ellipsis" format="2">
	<advance width="826"/>
	<unicode hex="2026"/>
	<note>
		ellipsis
	</note>
	<outline>
		<contour>
			<point x="27" y="191" type="line"/>
			<point x="-16" y="-11" type="line"/>
			<point x="184" y="-11" type="line"/>
			<point x="227" y="191" type="line"/>
		</contour>
		<contour>
			<point x="303" y="191" type="line"/>
			<point x="260" y="-11" type="line"/>
			<point x="460" y="-11" type="line"/>
			<point x="503" y="191" type="line"/>
		</contour>
		<contour>
			<point x="582" y="191" type="line"/>
			<point x="539" y="-11" type="line"/>
			<point x="739" y="-11" type="line"/>
			<point x="782" y="191" type="line"/>
		</contour>
	</outline>
</glyph>
<glyph name="guilsinglright" format="2">
	<advance width="424"/>
	<unicode hex="203A"/>
	<note>
		guilsinglright
	</note>
	<outline>
		<contour>
			<point x="134" y="82" type="line"/>
			<point x="306" y="248" type="line"/>
			<point x="205" y="414" type="line"/>
			<point x="76" y="414" type="line"/>
			<point x="177" y="248" type="line"/>
			<point x="5" y="82" type="line"/>
		</contour>
	</outline>
</glyph>
<glyph name="Euro" format="2">
	<advance width="662"/>
	<unicode hex="20AC"/>
	<note>
		Euro
	</note>
	<outline>
		<contour>
			<point x="304" y="224" type="curve"/>
			<point x="483" y="224" type="line"/>
			<point x="523" y="320" type="line"/>
			<point x="313" y="320" type="line"/>
			<point x="314" y="328"/>
			<point x="316" y="337"/>
			<point x="318" y="346" type="curve" smooth="yes"/>
			<point x="323" y="370" type="line"/>
			<point x="544" y="370" type="line"/>
			<point x="586" y="466" type="line"/>
			<point x="358" y="466" type="line"/>
			<point x="393" y="536"/>
			<point x="441" y="572"/>
			<point x="503" y="572" type="curve" smooth="yes"/>
			<point x="557" y="572"/>
			<point x="590" y="561"/>
			<point x="627" y="531" type="curve"/>
			<point x="712" y="642" type="line"/>
			<point x="682" y="679"/>
			<point x="622" y="704"/>
			<point x="522" y="704" type="curve" smooth="yes"/>
			<point x="378" y="704"/>
			<point x="243" y="629"/>
			<point x="170" y="466" type="curve"/>
			<point x="131" y="466" type="line"/>
			<point x="90" y="370" type="line"/>
			<point x="136" y="370" type="line"/>
			<point x="133" y="361"/>
			<point x="131" y="352"/>
			<point x="129" y="342" type="curve" smooth="yes"/>
			<point x="125" y="320" type="line"/>
			<point x="69" y="320" type="line"/>
			<point x="28" y="224" type="line"/>
			<point x="114" y="224" type="line"/>
			<point x="109" y="54"/>
			<point x="198" y="-14"/>
			<point x="341" y="-14" type="curve" smooth="yes"/>
			<point x="440" y="-14"/>
			<point x="488" y="0"/>
			<point x="543" y="28" type="curve"/>
			<point x="570" y="157" type="line"/>
			<point x="521" y="131"/>
			<point x="470" y="118"/>
			<point x="415" y="118" type="curve" smooth="yes"/>
			<point x="350" y="118"/>
			<point x="308" y="141"/>
		</contour>
	</outline>
</glyph>
<glyph name="trademark" format="2">
	<advance width="537"/>
	<unicode hex="2122"/>
	<note>
		trademark
	</note>
	<outline>
		<contour>
			<point x="300" y="615" type="line"/>
			<point x="310" y="660" type="line"/>
			<point x="106" y="660" type="line"/>
			<point x="96" y="615" type="line"/>
			<point x="168" y="615" type="line"/>
			<point x="135" y="456" type="line"/>
			<point x="195" y="456" type="line"/>
			<point x="228" y="615" type="line"/>
		</contour>
		<contour>
			<point x="535" y="456" type="line"/>
			<point x="578" y="659" type="line"/>
			<point x="491" y="659" type="line"/>
			<point x="428" y="517" type="line"/>
			<point x="425" y="659" type="line"/>
			<point x="334" y="659" type="line"/>
			<point x="291" y="456" type="line"/>
			<point x="351" y="456" type="line"/>
			<point x="380" y="597" type="line"/>
			<point x="383" y="460" type="line"/>
			<point x="445" y="460" type="line"/>
			<point x="507" y="598" type="line"/>
			<point x="475" y="456" type="line"/>
		</contour>
	</outline>
</glyph>
<glyph name="partialdiff" format="2">
	<advance width="662"/>
	<unicode hex="2202"/>
	<note>
		partialdiff
	</note>
	<outline>
		<contour>
			<point x="417" y="758" type="curve" smooth="yes"/>
			<point x="332" y="758"/>
			<point x="273" y="742"/>
			<point x="198" y="702" type="curve"/>
			<point x="227" y="587" type="line"/>
			<point x="273" y="613"/>
			<point x="316" y="626"/>
			<point x="361" y="626" type="curve" smooth="yes"/>
			<point x="448" y="626"/>
			<point x="480" y="578"/>
			<point x="467" y="468" type="curve"/>
			<point x="452" y="495"/>
			<point x="420" y="515"/>
			<point x="352" y="515" type="curve" smooth="yes"/>
			<point x="209" y="515"/>
			<point x="77" y="429"/>
			<point x="38" y="247" type="curve" smooth="yes"/>
			<point x="0" y="68"/>
			<point x="106" y="-14"/>
			<point x="262" y="-14" type="curve" smooth="yes"/>
			<point x="444" y="-14"/>
			<point x="581" y="104"/>
			<point x="634" y="353" type="curve" smooth="yes"/>
			<point x="689" y="611"/>
			<point x="618" y="758"/>
		</contour>
		<contour>
			<point x="297" y="118" type="curve" smooth="yes"/>
			<point x="236" y="118"/>
			<point x="209" y="167"/>
			<point x="227" y="252" type="curve" smooth="yes"/>
			<point x="244" y="333"/>
			<point x="294" y="383"/>
			<point x="361" y="383" type="curve" smooth="yes"/>
			<point x="400" y="383"/>
			<point x="434" y="372"/>
			<point x="445" y="333" type="curve"/>
			<point x="411" y="174"/>
			<point x="366" y="118"/>
		</contour>
	</outline>
</glyph>
<glyph name="emptyset" format="2">
	<advance width="838"/>
	<unicode hex="2205"/>
	<note>
		emptyset
	</note>
	<outline>
		<contour>
			<point x="818" y="595" type="curve"/>
			<point x="914" y="674" type="line"/>
			<point x="860" y="743" type="line"/>
			<point x="766" y="666" type="line"/>
			<point x="708" y="726"/>
			<point x="624" y="762"/>
			<point x="525" y="762" type="curve" smooth="yes"/>
			<point x="305" y="762"/>
			<point x="81" y="586"/>
			<point x="32" y="355" type="curve" smooth="yes"/>
			<point x="11" y="254"/>
			<point x="27" y="163"/>
			<point x="71" y="93" type="curve"/>
			<point x="-46" y="-4" type="line"/>
			<point x="8" y="-73" type="line"/>
			<point x="128" y="26" type="line"/>
			<point x="186" y="-24"/>
			<point x="262" y="-53"/>
			<point x="351" y="-53" type="curve" smooth="yes"/>
			<point x="571" y="-53"/>
			<point x="795" y="124"/>
			<point x="844" y="355" type="curve" smooth="yes"/>
			<point x="863" y="446"/>
			<point x="852" y="528"/>
		</contour>
		<contour>
			<point x="140" y="355" type="curve" smooth="yes"/>
			<point x="178" y="534"/>
			<point x="342" y="666"/>
			<point x="504" y="666" type="curve" smooth="yes"/>
			<point x="576" y="666"/>
			<point x="638" y="640"/>
			<point x="680" y="595" type="curve"/>
			<point x="160" y="166" type="line"/>
			<point x="133" y="217"/>
			<point x="125" y="282"/>
		</contour>
		<contour>
			<point x="736" y="355" type="curve" smooth="yes"/>
			<point x="698" y="176"/>
			<point x="534" y="44"/>
			<point x="372" y="44" type="curve" smooth="yes"/>
			<point x="310" y="44"/>
			<point x="255" y="63"/>
			<point x="214" y="97" type="curve"/>
			<point x="727" y="520" type="line"/>
			<point x="744" y="473"/>
			<point x="749" y="417"/>
		</contour>
	</outline>
</glyph>
<glyph name="radical" format="2">
	<advance width="662"/>
	<unicode hex="221A"/>
	<note>
		radical
	</note>
	<outline>
		<contour>
			<point x="300" y="-160" type="line"/>
			<point x="725" y="780" type="line"/>
			<point x="619" y="780" type="line"/>
			<point x="254" y="-51" type="line"/>
			<point x="220" y="310" type="line"/>
			<point x="57" y="310" type="line"/>
			<point x="38" y="222" type="line"/>
			<point x="120" y="222" type="line"/>
			<point x="166" y="-160" type="line"/>
		</contour>
	</outline>
</glyph>
<glyph name="infinity" format="2">
	<advance width="1022"/>
	<unicode hex="221E"/>
	<note>
		infinity
	</note>
	<outline>
		<contour>
			<point x="800" y="544" type="curve" smooth="yes"/>
			<point x="700" y="544"/>
			<point x="628" y="517"/>
			<point x="558" y="431" type="curve"/>
			<point x="523" y="517"/>
			<point x="450" y="544"/>
			<point x="350" y="544" type="curve" smooth="yes"/>
			<point x="195" y="544"/>
			<point x="61" y="437"/>
			<point x="24" y="265" type="curve" smooth="yes"/>
			<point x="-12" y="94"/>
			<point x="77" y="-14"/>
			<point x="222" y="-14" type="curve" smooth="yes"/>
			<point x="322" y="-14"/>
			<point x="397" y="13"/>
			<point x="467" y="99" type="curve"/>
			<point x="502" y="13"/>
			<point x="572" y="-14"/>
			<point x="672" y="-14" type="curve" smooth="yes"/>
			<point x="827" y="-14"/>
			<point x="962" y="94"/>
			<point x="998" y="265" type="curve" smooth="yes"/>
			<point x="1035" y="437"/>
			<point x="945" y="544"/>
		</contour>
		<contour>
			<point x="269" y="108" type="curve" smooth="yes"/>
			<point x="211" y="108"/>
			<point x="188" y="169"/>
			<point x="208" y="265" type="curve" smooth="yes"/>
			<point x="229" y="362"/>
			<point x="277" y="422"/>
			<point x="335" y="422" type="curve" smooth="yes"/>
			<point x="387" y="422"/>
			<point x="410" y="381"/>
			<point x="401" y="265" type="curve"/>
			<point x="366" y="151"/>
			<point x="321" y="108"/>
		</contour>
		<contour>
			<point x="687" y="108" type="curve" smooth="yes"/>
			<point x="635" y="108"/>
			<point x="616" y="149"/>
			<point x="625" y="265" type="curve"/>
			<point x="660" y="379"/>
			<point x="701" y="422"/>
			<point x="753" y="422" type="curve" smooth="yes"/>
			<point x="811" y="422"/>
			<point x="835" y="362"/>
			<point x="814" y="265" type="curve" smooth="yes"/>
			<point x="794" y="169"/>
			<point x="745" y="108"/>
		</contour>
	</outline>
</glyph>
<glyph name="integral" format="2">
	<advance width="661"/>
	<unicode hex="222B"/>
	<note>
		integral
	</note>
	<outline>
		<contour>
			<point x="482" y="754" type="curve" smooth="yes"/>
			<point x="378" y="754"/>
			<point x="299" y="678"/>
			<point x="278" y="579" type="curve" smooth="yes"/>
			<point x="262" y="505"/>
			<point x="261" y="439"/>
			<point x="281" y="290" type="curve" smooth="yes"/>
			<point x="305" y="119"/>
			<point x="300" y="67"/>
			<point x="288" y="10" type="curve" smooth="yes"/>
			<point x="277" y="-43"/>
			<point x="237" y="-64"/>
			<point x="199" y="-64" type="curve" smooth="yes"/>
			<point x="174" y="-64"/>
			<point x="156" y="-60"/>
			<point x="137" y="-48" type="curve"/>
			<point x="103" y="-138" type="line"/>
			<point x="126" y="-155"/>
			<point x="154" y="-160"/>
			<point x="193" y="-160" type="curve" smooth="yes"/>
			<point x="297" y="-160"/>
			<point x="376" y="-84"/>
			<point x="397" y="15" type="curve" smooth="yes"/>
			<point x="413" y="89"/>
			<point x="414" y="155"/>
			<point x="393" y="304" type="curve" smooth="yes"/>
			<point x="370" y="475"/>
			<point x="375" y="527"/>
			<point x="387" y="584" type="curve" smooth="yes"/>
			<point x="398" y="637"/>
			<point x="438" y="658"/>
			<point x="476" y="658" type="curve" smooth="yes"/>
			<point x="501" y="658"/>
			<point x="519" y="654"/>
			<point x="537" y="642" type="curve"/>
			<point x="571" y="732" type="line"/>
			<point x="549" y="749"/>
			<point x="521" y="754"/>
		</contour>
	</outline>
</glyph>
<glyph name="lessequal" format="2">
	<advance width="662"/>
	<unicode hex="2264"/>
	<note>
		lessequal
	</note>
	<outline>
		<contour>
			<point x="232" y="320" type="line"/>
			<point x="591" y="410" type="line"/>
			<point x="614" y="520" type="line"/>
			<point x="146" y="388" type="line"/>
			<point x="117" y="252" type="line"/>
			<point x="529" y="120" type="line"/>
			<point x="551" y="224" type="line"/>
		</contour>
		<contour>
			<point x="524" y="96" type="line"/>
			<point x="84" y="96" type="line"/>
			<point x="64" y="0" type="line"/>
			<point x="504" y="0" type="line"/>
		</contour>
	</outline>
</glyph>
<glyph name="lozenge" format="2">
	<advance width="554"/>
	<unicode hex="25CA"/>
	<note>
		lozenge
	</note>
	<outline>
		<contour>
			<point x="297" y="0" type="line"/>
			<point x="527" y="345" type="line"/>
			<point x="443" y="690" type="line"/>
			<point x="291" y="690" type="line"/>
			<point x="61" y="345" type="line"/>
			<point x="145" y="0" type="line"/>
		</contour>
		<contour>
			<point x="343" y="576" type="line"/>
			<point x="395" y="345" type="line"/>
			<point x="245" y="114" type="line"/>
			<point x="193" y="345" type="line"/>
		</contour>
	</outline>
</glyph>
<glyph name="fi" format="2">
	<advance width="666"/>
	<unicode hex="FB01"/>
	<note>
		fi
	</note>
	<outline>
		<contour>
			<point x="556" y="0" type="line"/>
			<point x="668" y="530" type="line"/>
			<point x="312" y="530" type="line"/>
			<point x="313" y="534" type="line" smooth="yes"/>
			<point x="316" y="547"/>
			<point x="319" y="560"/>
			<point x="323" y="574" type="curve" smooth="yes"/>
			<point x="338" y="621"/>
			<point x="376" y="637"/>
			<point x="509" y="629" type="curve"/>
			<point x="534" y="746" type="line"/>
			<point x="507" y="751"/>
			<point x="487" y="754"/>
			<point x="446" y="754" type="curve" smooth="yes"/>
			<point x="251" y="754"/>
			<point x="176" y="692"/>
			<point x="147" y="592" type="curve" smooth="yes"/>
			<point x="142" y="574"/>
			<point x="137" y="550"/>
			<point x="133" y="534" type="curve" smooth="yes"/>
			<point x="132" y="530" type="line"/>
			<point x="75" y="530" type="line"/>
			<point x="52" y="418" type="line"/>
			<point x="109" y="418" type="line"/>
			<point x="20" y="0" type="line"/>
			<point x="200" y="0" type="line"/>
			<point x="289" y="418" type="line"/>
			<point x="465" y="418" type="line"/>
			<point x="376" y="0" type="line"/>
		</contour>
	</outline>
</glyph>
<glyph name="A_E" format="2">
	<advance width="928"/>
	<unicode hex="F1010"/>
	<outline>
		<contour>
			<point x="179" y="179" type="line"/>
			<point x="351" y="179" type="line"/>
			<point x="292" y="-97" type="line"/>
			<point x="821" y="-97" type="line"/>
			<point x="851" y="43" type="line"/>
			<point x="502" y="43" type="line"/>
			<point x="531" y="179" type="line"/>
			<point x="850" y="179" type="line"/>
			<point x="879" y="319" type="line"/>
			<point x="560" y="319" type="line"/>
			<point x="589" y="453" type="line"/>
			<point x="928" y="453" type="line"/>
			<point x="958" y="593" type="line"/>
			<point x="521" y="593" type="line"/>
			<point x="507" y="690" type="line"/>
			<point x="287" y="690" type="line"/>
			<point x="-108" y="0" type="line"/>
			<point x="83" y="0" type="line"/>
		</contour>
		<contour>
			<point x="252" y="319" type="line"/>
			<point x="362" y="531" type="line"/>
			<point x="380" y="319" type="line"/>
		</contour>
	</outline>
</glyph>
<glyph name="a_e" format="2">
	<advance width="931"/>
	<unicode hex="F1110"/>
	<outline>
		<contour>
			<point x="315" y="78" type="line"/>
			<point x="311" y="0" type="line"/>
			<point x="487" y="0" type="line"/>
			<point x="491" y="59"/>
			<point x="497" y="95"/>
			<point x="505" y="135" type="curve" smooth="yes"/>
			<point x="524" y="222" type="line"/>
			<point x="895" y="222" type="line"/>
			<point x="901" y="240"/>
			<point x="906" y="258"/>
			<point x="909" y="274" type="curve" smooth="yes"/>
			<point x="938" y="412"/>
			<point x="877" y="548"/>
			<point x="699" y="548" type="curve" smooth="yes"/>
			<point x="633" y="548"/>
			<point x="572" y="530"/>
			<point x="521" y="500" type="curve"/>
			<point x="491" y="530"/>
			<point x="438" y="548"/>
			<point x="355" y="548" type="curve" smooth="yes"/>
			<point x="220" y="548"/>
			<point x="94" y="477"/>
			<point x="66" y="352" type="curve"/>
			<point x="237" y="353" type="line"/>
			<point x="249" y="399"/>
			<point x="279" y="426"/>
			<point x="321" y="426" type="curve" smooth="yes"/>
			<point x="360" y="426"/>
			<point x="377" y="402"/>
			<point x="374" y="375" type="curve" smooth="yes"/>
			<point x="373" y="358"/>
			<point x="370" y="347"/>
			<point x="368" y="336" type="curve" smooth="yes"/>
			<point x="366" y="328" type="line"/>
			<point x="332" y="328" type="line" smooth="yes"/>
			<point x="151" y="328"/>
			<point x="29" y="258"/>
			<point x="4" y="144" type="curve" smooth="yes"/>
			<point x="-18" y="41"/>
			<point x="54" y="-14"/>
			<point x="142" y="-14" type="curve" smooth="yes"/>
			<point x="191" y="-14"/>
			<point x="238" y="-2"/>
			<point x="281" y="22" type="curve"/>
		</contour>
		<contour>
			<point x="191" y="158" type="curve" smooth="yes"/>
			<point x="203" y="211"/>
			<point x="265" y="232"/>
			<point x="345" y="226" type="curve"/>
			<point x="337" y="191" type="line" smooth="yes"/>
			<point x="325" y="135"/>
			<point x="278" y="108"/>
			<point x="242" y="108" type="curve" smooth="yes"/>
			<point x="206" y="108"/>
			<point x="184" y="126"/>
		</contour>
		<contour>
			<point x="552" y="332" type="line"/>
			<point x="578" y="398"/>
			<point x="617" y="426"/>
			<point x="664" y="426" type="curve" smooth="yes"/>
			<point x="712" y="426"/>
			<point x="737" y="395"/>
			<point x="733" y="332" type="curve"/>
		</contour>
	</outline>
</glyph>
<glyph name="a_o" format="2">
	<advance width="952"/>
	<unicode hex="F1130"/>
	<outline>
		<contour>
			<point x="242" y="108" type="curve" smooth="yes"/>
			<point x="206" y="108"/>
			<point x="184" y="126"/>
			<point x="191" y="158" type="curve" smooth="yes"/>
			<point x="203" y="211"/>
			<point x="265" y="232"/>
			<point x="345" y="226" type="curve"/>
			<point x="337" y="191" type="line" smooth="yes"/>
			<point x="325" y="135"/>
			<point x="278" y="108"/>
		</contour>
		<contour>
			<point x="4" y="144" type="curve" smooth="yes"/>
			<point x="-18" y="41"/>
			<point x="54" y="-14"/>
			<point x="142" y="-14" type="curve" smooth="yes"/>
			<point x="191" y="-14"/>
			<point x="238" y="-2"/>
			<point x="281" y="22" type="curve"/>
			<point x="362" y="108" type="line"/>
			<point x="393" y="31"/>
			<point x="470" y="-14"/>
			<point x="582" y="-14" type="curve" smooth="yes"/>
			<point x="757" y="-14"/>
			<point x="892" y="96"/>
			<point x="928" y="267" type="curve" smooth="yes"/>
			<point x="965" y="439"/>
			<point x="876" y="548"/>
			<point x="701" y="548" type="curve" smooth="yes"/>
			<point x="633" y="548"/>
			<point x="572" y="532"/>
			<point x="519" y="502" type="curve"/>
			<point x="489" y="531"/>
			<point x="437" y="548"/>
			<point x="355" y="548" type="curve" smooth="yes"/>
			<point x="220" y="548"/>
			<point x="94" y="477"/>
			<point x="66" y="352" type="curve"/>
			<point x="237" y="353" type="line"/>
			<point x="249" y="399"/>
			<point x="279" y="426"/>
			<point x="321" y="426" type="curve" smooth="yes"/>
			<point x="360" y="426"/>
			<point x="377" y="402"/>
			<point x="374" y="375" type="curve" smooth="yes"/>
			<point x="373" y="358"/>
			<point x="370" y="347"/>
			<point x="368" y="336" type="curve" smooth="yes"/>
			<point x="366" y="328" type="line"/>
			<point x="332" y="328" type="line" smooth="yes"/>
			<point x="151" y="328"/>
			<point x="29" y="258"/>
		</contour>
		<contour>
			<point x="538" y="267" type="curve" smooth="yes"/>
			<point x="561" y="374"/>
			<point x="611" y="426"/>
			<point x="675" y="426" type="curve" smooth="yes"/>
			<point x="739" y="426"/>
			<point x="767" y="374"/>
			<point x="744" y="267" type="curve" smooth="yes"/>
			<point x="722" y="161"/>
			<point x="672" y="108"/>
			<point x="608" y="108" type="curve" smooth="yes"/>
			<point x="544" y="108"/>
			<point x="516" y="161"/>
		</contour>
	</outline>
</glyph>
<glyph name="C_H" format="2">
	<advance width="1029"/>
	<unicode hex="F1410"/>
	<outline>
		<contour>
			<point x="488" y="704" type="curve" smooth="yes"/>
			<point x="301" y="704"/>
			<point x="121" y="580"/>
			<point x="70" y="340" type="curve" smooth="yes"/>
			<point x="20" y="106"/>
			<point x="144" y="-14"/>
			<point x="329" y="-14" type="curve" smooth="yes"/>
			<point x="502" y="-14"/>
			<point x="647" y="71"/>
			<point x="699" y="237" type="curve" smooth="yes"/>
			<point x="702" y="247" type="line"/>
			<point x="522" y="247" type="line"/>
			<point x="518" y="237" type="line" smooth="yes"/>
			<point x="487" y="161"/>
			<point x="433" y="118"/>
			<point x="363" y="118" type="curve" smooth="yes"/>
			<point x="283" y="118"/>
			<point x="223" y="177"/>
			<point x="260" y="351" type="curve" smooth="yes"/>
			<point x="292" y="500"/>
			<point x="372" y="572"/>
			<point x="458" y="572" type="curve" smooth="yes"/>
			<point x="531" y="572"/>
			<point x="569" y="537"/>
			<point x="568" y="463" type="curve" smooth="yes"/>
			<point x="568" y="453" type="line"/>
			<point x="748" y="453" type="line"/>
			<point x="749" y="463" type="line" smooth="yes"/>
			<point x="764" y="599"/>
			<point x="685" y="704"/>
		</contour>
		<contour>
			<point x="529" y="280" type="line"/>
			<point x="798" y="280" type="line"/>
			<point x="739" y="0" type="line"/>
			<point x="919" y="0" type="line"/>
			<point x="1065" y="690" type="line"/>
			<point x="885" y="690" type="line"/>
			<point x="828" y="420" type="line"/>
			<point x="559" y="420" type="line"/>
		</contour>
	</outline>
</glyph>
<glyph name="C_Q" format="2">
	<advance width="1255"/>
	<unicode hex="F1440"/>
	<outline>
		<contour>
			<point x="488" y="704" type="curve" smooth="yes"/>
			<point x="301" y="704"/>
			<point x="121" y="580"/>
			<point x="70" y="340" type="curve" smooth="yes"/>
			<point x="20" y="106"/>
			<point x="144" y="-14"/>
			<point x="329" y="-14" type="curve" smooth="yes"/>
			<point x="427" y="-14"/>
			<point x="515" y="13"/>
			<point x="584" y="67" type="curve"/>
			<point x="633" y="14"/>
			<point x="711" y="-14"/>
			<point x="812" y="-14" type="curve" smooth="yes"/>
			<point x="838" y="-14"/>
			<point x="861" y="-12"/>
			<point x="884" y="-7" type="curve" smooth="yes"/>
			<point x="913" y="-1"/>
			<point x="931" y="2"/>
			<point x="959" y="2" type="curve" smooth="yes"/>
			<point x="1006" y="2"/>
			<point x="1035" y="-9"/>
			<point x="1090" y="-48" type="curve"/>
			<point x="1201" y="66" type="line"/>
			<point x="1170" y="97"/>
			<point x="1141" y="116"/>
			<point x="1107" y="127" type="curve"/>
			<point x="1177" y="182"/>
			<point x="1223" y="261"/>
			<point x="1241" y="345" type="curve" smooth="yes"/>
			<point x="1288" y="567"/>
			<point x="1180" y="705"/>
			<point x="965" y="705" type="curve" smooth="yes"/>
			<point x="867" y="705"/>
			<point x="778" y="677"/>
			<point x="707" y="625" type="curve"/>
			<point x="665" y="674"/>
			<point x="594" y="704"/>
		</contour>
		<contour>
			<point x="260" y="351" type="curve" smooth="yes"/>
			<point x="292" y="500"/>
			<point x="372" y="572"/>
			<point x="458" y="572" type="curve" smooth="yes"/>
			<point x="531" y="572"/>
			<point x="569" y="537"/>
			<point x="568" y="463" type="curve" smooth="yes"/>
			<point x="568" y="453" type="line"/>
			<point x="748" y="453" type="line"/>
			<point x="790" y="532"/>
			<point x="861" y="573"/>
			<point x="936" y="573" type="curve" smooth="yes"/>
			<point x="1040" y="573"/>
			<point x="1088" y="492"/>
			<point x="1057" y="345" type="curve" smooth="yes"/>
			<point x="1026" y="199"/>
			<point x="944" y="118"/>
			<point x="840" y="118" type="curve" smooth="yes"/>
			<point x="760" y="118"/>
			<point x="705" y="159"/>
			<point x="702" y="247" type="curve"/>
			<point x="522" y="247" type="line"/>
			<point x="518" y="237" type="line" smooth="yes"/>
			<point x="487" y="161"/>
			<point x="433" y="118"/>
			<point x="363" y="118" type="curve" smooth="yes"/>
			<point x="283" y="118"/>
			<point x="223" y="177"/>
		</contour>
	</outline>
</glyph>
<glyph name="c_h" format="2">
	<advance width="977"/>
	<unicode hex="F1510"/>
	<outline>
		<contour>
			<point x="365" y="548" type="curve" smooth="yes"/>
			<point x="208" y="548"/>
			<point x="62" y="445"/>
			<point x="23" y="261" type="curve" smooth="yes"/>
			<point x="-14" y="85"/>
			<point x="81" y="-14"/>
			<point x="234" y="-14" type="curve" smooth="yes"/>
			<point x="379" y="-14"/>
			<point x="501" y="58"/>
			<point x="550" y="196" type="curve"/>
			<point x="373" y="196" type="line"/>
			<point x="351" y="138"/>
			<point x="311" y="108"/>
			<point x="270" y="108" type="curve" smooth="yes"/>
			<point x="209" y="108"/>
			<point x="185" y="158"/>
			<point x="209" y="272" type="curve" smooth="yes"/>
			<point x="231" y="375"/>
			<point x="275" y="426"/>
			<point x="335" y="426" type="curve" smooth="yes"/>
			<point x="380" y="426"/>
			<point x="410" y="400"/>
			<point x="403" y="330" type="curve"/>
			<point x="577" y="330" type="line" smooth="yes"/>
			<point x="579" y="330"/>
			<point x="640" y="426"/>
			<point x="695" y="426" type="curve" smooth="yes"/>
			<point x="749" y="426"/>
			<point x="771" y="396"/>
			<point x="764" y="345" type="curve" smooth="yes"/>
			<point x="760" y="318"/>
			<point x="754" y="289"/>
			<point x="750" y="272" type="curve" smooth="yes"/>
			<point x="693" y="0" type="line"/>
			<point x="873" y="0" type="line"/>
			<point x="937" y="302" type="line" smooth="yes"/>
			<point x="946" y="345"/>
			<point x="952" y="376"/>
			<point x="953" y="403" type="curve" smooth="yes"/>
			<point x="959" y="496"/>
			<point x="905" y="548"/>
			<point x="795" y="548" type="curve" smooth="yes"/>
			<point x="746" y="548"/>
			<point x="706" y="537"/>
			<point x="669" y="517" type="curve"/>
			<point x="607" y="451" type="line"/>
			<point x="668" y="740" type="line"/>
			<point x="488" y="740" type="line"/>
			<point x="446" y="538" type="line"/>
			<point x="422" y="544"/>
			<point x="395" y="548"/>
		</contour>
	</outline>
</glyph>
<glyph name="c_q" format="2">
	<advance width="1029"/>
	<unicode hex="F1540"/>
	<outline>
		<contour>
			<point x="365" y="548" type="curve" smooth="yes"/>
			<point x="208" y="548"/>
			<point x="62" y="445"/>
			<point x="23" y="261" type="curve" smooth="yes"/>
			<point x="-14" y="85"/>
			<point x="81" y="-14"/>
			<point x="234" y="-14" type="curve" smooth="yes"/>
			<point x="304" y="-14"/>
			<point x="369" y="3"/>
			<point x="423" y="36" type="curve"/>
			<point x="455" y="4"/>
			<point x="501" y="-14"/>
			<point x="560" y="-14" type="curve" smooth="yes"/>
			<point x="614" y="-14"/>
			<point x="668" y="-3"/>
			<point x="703" y="19" type="curve"/>
			<point x="755" y="78" type="line"/>
			<point x="697" y="-196" type="line"/>
			<point x="877" y="-196" type="line"/>
			<point x="1032" y="534" type="line"/>
			<point x="852" y="534" type="line"/>
			<point x="838" y="465" type="line"/>
			<point x="815" y="522" type="line"/>
			<point x="791" y="538"/>
			<point x="741" y="548"/>
			<point x="697" y="548" type="curve" smooth="yes"/>
			<point x="639" y="548"/>
			<point x="580" y="529"/>
			<point x="529" y="493" type="curve"/>
			<point x="493" y="527"/>
			<point x="438" y="548"/>
		</contour>
		<contour>
			<point x="209" y="272" type="curve" smooth="yes"/>
			<point x="231" y="375"/>
			<point x="275" y="426"/>
			<point x="335" y="426" type="curve" smooth="yes"/>
			<point x="380" y="426"/>
			<point x="410" y="400"/>
			<point x="403" y="330" type="curve"/>
			<point x="589" y="330" type="line"/>
			<point x="618" y="394"/>
			<point x="666" y="426"/>
			<point x="720" y="426" type="curve" smooth="yes"/>
			<point x="774" y="426"/>
			<point x="822" y="390"/>
			<point x="799" y="283" type="curve" smooth="yes"/>
			<point x="794" y="260" type="line" smooth="yes"/>
			<point x="770" y="148"/>
			<point x="714" y="108"/>
			<point x="648" y="108" type="curve" smooth="yes"/>
			<point x="601" y="108"/>
			<point x="567" y="139"/>
			<point x="562" y="196" type="curve"/>
			<point x="373" y="196" type="line"/>
			<point x="351" y="138"/>
			<point x="311" y="108"/>
			<point x="270" y="108" type="curve" smooth="yes"/>
			<point x="209" y="108"/>
			<point x="185" y="158"/>
		</contour>
	</outline>
</glyph>
<glyph name="D_E" format="2">
	<advance width="1092"/>
	<unicode hex="F1610"/>
	<outline>
		<contour>
			<point x="355" y="142" type="curve" smooth="yes"/>
			<point x="331" y="140"/>
			<point x="315" y="140"/>
			<point x="289" y="140" type="curve" smooth="yes"/>
			<point x="233" y="140" type="line"/>
			<point x="321" y="550" type="line"/>
			<point x="377" y="550" type="line" smooth="yes"/>
			<point x="403" y="550"/>
			<point x="419" y="550"/>
			<point x="441" y="548" type="curve" smooth="yes"/>
			<point x="529" y="540"/>
			<point x="577" y="474"/>
			<point x="551" y="351" type="curve" smooth="yes"/>
			<point x="525" y="228"/>
			<point x="447" y="150"/>
		</contour>
		<contour>
			<point x="24" y="0" type="line"/>
			<point x="1006" y="0" type="line"/>
			<point x="1035" y="140" type="line"/>
			<point x="636" y="140" type="line"/>
			<point x="669" y="178"/>
			<point x="697" y="223"/>
			<point x="717" y="276" type="curve"/>
			<point x="1034" y="276" type="line"/>
			<point x="1064" y="416" type="line"/>
			<point x="749" y="416" type="line"/>
			<point x="753" y="469"/>
			<point x="746" y="513"/>
			<point x="731" y="550" type="curve"/>
			<point x="1113" y="550" type="line"/>
			<point x="1142" y="690" type="line"/>
			<point x="170" y="690" type="line"/>
		</contour>
	</outline>
</glyph>
<glyph name="d_e" format="2">
	<advance width="1012"/>
	<unicode hex="F1710"/>
	<outline>
		<contour>
			<point x="559" y="0" type="line"/>
			<point x="606" y="222" type="line"/>
			<point x="976" y="222" type="line"/>
			<point x="982" y="240"/>
			<point x="987" y="258"/>
			<point x="990" y="274" type="curve" smooth="yes"/>
			<point x="1019" y="412"/>
			<point x="958" y="548"/>
			<point x="780" y="548" type="curve" smooth="yes"/>
			<point x="742" y="548"/>
			<point x="705" y="542"/>
			<point x="672" y="531" type="curve"/>
			<point x="715" y="735" type="line"/>
			<point x="535" y="735" type="line"/>
			<point x="478" y="465" type="line"/>
			<point x="455" y="522" type="line"/>
			<point x="431" y="538"/>
			<point x="381" y="548"/>
			<point x="337" y="548" type="curve" smooth="yes"/>
			<point x="200" y="548"/>
			<point x="62" y="445"/>
			<point x="22" y="255" type="curve" smooth="yes"/>
			<point x="-12" y="97"/>
			<point x="55" y="-14"/>
			<point x="200" y="-14" type="curve" smooth="yes"/>
			<point x="254" y="-14"/>
			<point x="308" y="-3"/>
			<point x="343" y="19" type="curve"/>
			<point x="395" y="78" type="line"/>
			<point x="379" y="0" type="line"/>
		</contour>
		<contour>
			<point x="208" y="264" type="curve" smooth="yes"/>
			<point x="231" y="373"/>
			<point x="290" y="426"/>
			<point x="360" y="426" type="curve" smooth="yes"/>
			<point x="414" y="426"/>
			<point x="462" y="390"/>
			<point x="439" y="283" type="curve" smooth="yes"/>
			<point x="434" y="260" type="line" smooth="yes"/>
			<point x="410" y="148"/>
			<point x="354" y="108"/>
			<point x="288" y="108" type="curve" smooth="yes"/>
			<point x="225" y="108"/>
			<point x="187" y="164"/>
		</contour>
		<contour>
			<point x="633" y="332" type="line"/>
			<point x="659" y="398"/>
			<point x="698" y="426"/>
			<point x="745" y="426" type="curve" smooth="yes"/>
			<point x="793" y="426"/>
			<point x="818" y="395"/>
			<point x="814" y="332" type="curve"/>
		</contour>
	</outline>
</glyph>
<glyph name="Eacute_E" format="2">
	<advance width="956"/>
	<unicode hex="F1820"/>
	<outline>
		<contour>
			<point x="386" y="735" type="line"/>
			<point x="482" y="735" type="line"/>
			<point x="663" y="860" type="line"/>
			<point x="503" y="860" type="line"/>
		</contour>
		<contour>
			<point x="24" y="0" type="line"/>
			<point x="870" y="0" type="line"/>
			<point x="899" y="140" type="line"/>
			<point x="550" y="140" type="line"/>
			<point x="579" y="276" type="line"/>
			<point x="898" y="276" type="line"/>
			<point x="928" y="416" type="line"/>
			<point x="609" y="416" type="line"/>
			<point x="638" y="550" type="line"/>
			<point x="977" y="550" type="line"/>
			<point x="1006" y="690" type="line"/>
			<point x="170" y="690" type="line"/>
		</contour>
		<contour>
			<point x="233" y="140" type="line"/>
			<point x="262" y="276" type="line"/>
			<point x="399" y="276" type="line"/>
			<point x="370" y="140" type="line"/>
		</contour>
		<contour>
			<point x="292" y="416" type="line"/>
			<point x="321" y="550" type="line"/>
			<point x="458" y="550" type="line"/>
			<point x="429" y="416" type="line"/>
		</contour>
	</outline>
</glyph>
<glyph name="E_S" format="2">
	<advance width="1022"/>
	<unicode hex="F1850"/>
	<outline>
		<contour>
			<point x="796" y="633" type="curve" smooth="yes"/>
			<point x="754" y="633"/>
			<point x="712" y="626"/>
			<point x="673" y="612" type="curve"/>
			<point x="689" y="690" type="line"/>
			<point x="170" y="690" type="line"/>
			<point x="24" y="0" type="line"/>
			<point x="429" y="0" type="line"/>
			<point x="470" y="-58"/>
			<point x="551" y="-85"/>
			<point x="660" y="-85" type="curve" smooth="yes"/>
			<point x="799" y="-85"/>
			<point x="945" y="-15"/>
			<point x="975" y="123" type="curve" smooth="yes"/>
			<point x="997" y="229"/>
			<point x="952" y="305"/>
			<point x="807" y="341" type="curve" smooth="yes"/>
			<point x="699" y="368"/>
			<point x="673" y="395"/>
			<point x="682" y="439" type="curve" smooth="yes"/>
			<point x="691" y="481"/>
			<point x="723" y="501"/>
			<point x="764" y="501" type="curve" smooth="yes"/>
			<point x="823" y="501"/>
			<point x="845" y="463"/>
			<point x="841" y="406" type="curve"/>
			<point x="1021" y="406" type="line"/>
			<point x="1033" y="534"/>
			<point x="978" y="633"/>
		</contour>
		<contour>
			<point x="233" y="140" type="line"/>
			<point x="262" y="276" type="line"/>
			<point x="524" y="276" type="line"/>
			<point x="559" y="241"/>
			<point x="617" y="219"/>
			<point x="692" y="199" type="curve" smooth="yes"/>
			<point x="773" y="178"/>
			<point x="792" y="147"/>
			<point x="784" y="111" type="curve" smooth="yes"/>
			<point x="776" y="73"/>
			<point x="733" y="47"/>
			<point x="683" y="47" type="curve" smooth="yes"/>
			<point x="629" y="47"/>
			<point x="582" y="75"/>
			<point x="583" y="140" type="curve"/>
		</contour>
		<contour>
			<point x="292" y="416" type="line"/>
			<point x="321" y="550" type="line"/>
			<point x="565" y="550" type="line"/>
			<point x="528" y="517"/>
			<point x="502" y="475"/>
			<point x="491" y="425" type="curve" smooth="yes"/>
			<point x="489" y="416" type="line"/>
		</contour>
	</outline>
</glyph>
<glyph name="F_F_E" format="2">
	<advance width="1499"/>
	<unicode hex="F2030"/>
	<outline>
		<contour>
			<point x="292" y="416" type="line"/>
			<point x="321" y="550" type="line"/>
			<point x="660" y="550" type="line"/>
			<point x="543" y="0" type="line"/>
			<point x="723" y="0" type="line"/>
			<point x="781" y="276" type="line"/>
			<point x="942" y="276" type="line"/>
			<point x="884" y="0" type="line"/>
			<point x="1413" y="0" type="line"/>
			<point x="1442" y="140" type="line"/>
			<point x="1093" y="140" type="line"/>
			<point x="1122" y="276" type="line"/>
			<point x="1441" y="276" type="line"/>
			<point x="1471" y="416" type="line"/>
			<point x="1152" y="416" type="line"/>
			<point x="1181" y="550" type="line"/>
			<point x="1520" y="550" type="line"/>
			<point x="1549" y="690" type="line"/>
			<point x="170" y="690" type="line"/>
			<point x="24" y="0" type="line"/>
			<point x="204" y="0" type="line"/>
			<point x="262" y="276" type="line"/>
			<point x="571" y="276" type="line"/>
			<point x="601" y="416" type="line"/>
		</contour>
		<contour>
			<point x="811" y="416" type="line"/>
			<point x="840" y="550" type="line"/>
			<point x="1001" y="550" type="line"/>
			<point x="972" y="416" type="line"/>
		</contour>
	</outline>
</glyph>
<glyph name="F_V" format="2">
	<advance width="1257"/>
	<unicode hex="F2050"/>
	<outline>
		<contour>
			<point x="292" y="416" type="line"/>
			<point x="321" y="550" type="line"/>
			<point x="658" y="550" type="line"/>
			<point x="740" y="0" type="line"/>
			<point x="960" y="0" type="line"/>
			<point x="1355" y="690" type="line"/>
			<point x="1164" y="690" type="line"/>
			<point x="881" y="139" type="line"/>
			<point x="833" y="690" type="line"/>
			<point x="170" y="690" type="line"/>
			<point x="24" y="0" type="line"/>
			<point x="204" y="0" type="line"/>
			<point x="262" y="276" type="line"/>
			<point x="571" y="276" type="line"/>
			<point x="601" y="416" type="line"/>
		</contour>
	</outline>
</glyph>
<glyph name="f_f_e" format="2">
	<advance width="1110"/>
	<unicode hex="F2130"/>
	<outline>
		<contour>
			<point x="323" y="574" type="curve" smooth="yes"/>
			<point x="338" y="621"/>
			<point x="389" y="640"/>
			<point x="451" y="629" type="curve"/>
			<point x="476" y="746" type="line"/>
			<point x="459" y="751"/>
			<point x="439" y="754"/>
			<point x="418" y="754" type="curve" smooth="yes"/>
			<point x="253" y="754"/>
			<point x="176" y="692"/>
			<point x="147" y="592" type="curve" smooth="yes"/>
			<point x="142" y="574"/>
			<point x="137" y="550"/>
			<point x="133" y="534" type="curve" smooth="yes"/>
			<point x="132" y="530" type="line"/>
			<point x="75" y="530" type="line"/>
			<point x="52" y="418" type="line"/>
			<point x="109" y="418" type="line"/>
			<point x="20" y="0" type="line"/>
			<point x="200" y="0" type="line"/>
			<point x="289" y="418" type="line"/>
			<point x="454" y="418" type="line"/>
			<point x="365" y="0" type="line"/>
			<point x="545" y="0" type="line"/>
			<point x="588" y="203" type="line"/>
			<point x="1070" y="203" type="line"/>
			<point x="1076" y="221"/>
			<point x="1080" y="239"/>
			<point x="1084" y="255" type="curve" smooth="yes"/>
			<point x="1113" y="393"/>
			<point x="1052" y="529"/>
			<point x="874" y="529" type="curve" smooth="yes"/>
			<point x="657" y="530" type="line"/>
			<point x="658" y="534" type="line" smooth="yes"/>
			<point x="661" y="547"/>
			<point x="664" y="560"/>
			<point x="668" y="574" type="curve" smooth="yes"/>
			<point x="683" y="621"/>
			<point x="734" y="640"/>
			<point x="796" y="629" type="curve"/>
			<point x="821" y="746" type="line"/>
			<point x="804" y="751"/>
			<point x="784" y="754"/>
			<point x="763" y="754" type="curve" smooth="yes"/>
			<point x="598" y="754"/>
			<point x="521" y="692"/>
			<point x="492" y="592" type="curve" smooth="yes"/>
			<point x="487" y="574"/>
			<point x="482" y="550"/>
			<point x="478" y="534" type="curve" smooth="yes"/>
			<point x="477" y="530" type="line"/>
			<point x="312" y="530" type="line"/>
			<point x="313" y="534" type="line" smooth="yes"/>
			<point x="316" y="547"/>
			<point x="319" y="560"/>
		</contour>
		<contour>
			<point x="727" y="313" type="line"/>
			<point x="753" y="379"/>
			<point x="792" y="407"/>
			<point x="839" y="407" type="curve" smooth="yes"/>
			<point x="887" y="407"/>
			<point x="912" y="376"/>
			<point x="908" y="313" type="curve"/>
		</contour>
	</outline>
</glyph>
<glyph name="f_v" format="2">
	<advance width="631"/>
	<unicode hex="F2150"/>
	<outline>
		<contour>
			<point x="323" y="574" type="curve" smooth="yes"/>
			<point x="338" y="621"/>
			<point x="389" y="640"/>
			<point x="451" y="629" type="curve"/>
			<point x="476" y="746" type="line"/>
			<point x="459" y="751"/>
			<point x="439" y="754"/>
			<point x="418" y="754" type="curve" smooth="yes"/>
			<point x="253" y="754"/>
			<point x="176" y="692"/>
			<point x="147" y="592" type="curve" smooth="yes"/>
			<point x="142" y="574"/>
			<point x="137" y="550"/>
			<point x="133" y="534" type="curve" smooth="yes"/>
			<point x="132" y="530" type="line"/>
			<point x="75" y="530" type="line"/>
			<point x="52" y="418" type="line"/>
			<point x="105" y="418" type="line"/>
			<point x="178" y="0" type="line"/>
			<point x="372" y="0" type="line"/>
			<point x="696" y="534" type="line"/>
			<point x="499" y="534" type="line"/>
			<point x="307" y="143" type="line"/>
			<point x="292" y="418" type="line"/>
			<point x="398" y="418" type="line"/>
			<point x="421" y="530" type="line"/>
			<point x="312" y="530" type="line"/>
			<point x="313" y="534" type="line" smooth="yes"/>
			<point x="316" y="547"/>
			<point x="319" y="560"/>
		</contour>
	</outline>
</glyph>
<glyph name="I_L" format="2">
	<advance width="945"/>
	<unicode hex="F2640"/>
	<outline>
		<contour>
			<point x="870" y="0" type="line"/>
			<point x="902" y="152" type="line"/>
			<point x="553" y="152" type="line"/>
			<point x="667" y="690" type="line"/>
			<point x="487" y="690" type="line"/>
			<point x="341" y="0" type="line"/>
		</contour>
		<contour>
			<point x="58" y="156" type="line"/>
			<point x="238" y="156" type="line"/>
			<point x="352" y="690" type="line"/>
			<point x="172" y="690" type="line"/>
		</contour>
		<contour>
			<point x="216" y="904" type="line"/>
			<point x="179" y="728" type="line"/>
			<point x="362" y="728" type="line"/>
			<point x="399" y="904" type="line"/>
		</contour>
	</outline>
</glyph>
<glyph name="i_e" format="2">
	<advance width="628"/>
	<unicode hex="F2710"/>
	<outline>
		<contour>
			<point x="-2" y="0" type="line"/>
			<point x="178" y="0" type="line"/>
			<point x="225" y="222" type="line"/>
			<point x="592" y="222" type="line"/>
			<point x="598" y="240"/>
			<point x="603" y="258"/>
			<point x="606" y="274" type="curve" smooth="yes"/>
			<point x="635" y="412"/>
			<point x="574" y="548"/>
			<point x="396" y="548" type="curve" smooth="yes"/>
			<point x="358" y="548"/>
			<point x="323" y="543"/>
			<point x="291" y="534" type="curve"/>
			<point x="111" y="534" type="line"/>
		</contour>
		<contour>
			<point x="118" y="572" type="line"/>
			<point x="301" y="572" type="line"/>
			<point x="339" y="748" type="line"/>
			<point x="156" y="748" type="line"/>
		</contour>
		<contour>
			<point x="249" y="332" type="line"/>
			<point x="275" y="398"/>
			<point x="314" y="426"/>
			<point x="361" y="426" type="curve" smooth="yes"/>
			<point x="409" y="426"/>
			<point x="434" y="395"/>
			<point x="430" y="332" type="curve"/>
		</contour>
	</outline>
</glyph>
<glyph name="i_l" format="2">
	<advance width="532"/>
	<unicode hex="F2740"/>
	<outline>
		<contour>
			<point x="-2" y="0" type="line"/>
			<point x="178" y="0" type="line"/>
			<point x="291" y="534" type="line"/>
			<point x="111" y="534" type="line"/>
		</contour>
		<contour>
			<point x="118" y="572" type="line"/>
			<point x="301" y="572" type="line"/>
			<point x="339" y="748" type="line"/>
			<point x="156" y="748" type="line"/>
		</contour>
		<contour>
			<point x="221" y="5" type="curve"/>
			<point x="247" y="127" type="line"/>
			<point x="293" y="125"/>
			<point x="304" y="132"/>
			<point x="312" y="153" type="curve" smooth="yes"/>
			<point x="316" y="166"/>
			<point x="318" y="177"/>
			<point x="324" y="202" type="curve" smooth="yes"/>
			<point x="439" y="745" type="line"/>
			<point x="620" y="745" type="line"/>
			<point x="504" y="199" type="line" smooth="yes"/>
			<point x="495" y="159"/>
			<point x="490" y="132"/>
			<point x="482" y="104" type="curve" smooth="yes"/>
			<point x="463" y="33"/>
			<point x="408" y="0"/>
			<point x="326" y="0" type="curve" smooth="yes"/>
			<point x="285" y="0"/>
			<point x="254" y="2"/>
		</contour>
	</outline>
</glyph>
<glyph name="l_u" format="2">
	<advance width="646"/>
	<unicode hex="F3350"/>
	<outline>
		<contour>
			<point x="536" y="0" type="line"/>
			<point x="649" y="534" type="line"/>
			<point x="469" y="534" type="line"/>
			<point x="405" y="232" type="line" smooth="yes"/>
			<point x="390" y="161"/>
			<point x="345" y="108"/>
			<point x="288" y="108" type="curve" smooth="yes"/>
			<point x="231" y="108"/>
			<point x="213" y="138"/>
			<point x="218" y="189" type="curve" smooth="yes"/>
			<point x="221" y="216"/>
			<point x="226" y="245"/>
			<point x="229" y="262" type="curve" smooth="yes"/>
			<point x="330" y="735" type="line"/>
			<point x="150" y="735" type="line"/>
			<point x="34" y="189" type="line"/>
			<point x="34" y="186" type="line" smooth="yes"/>
			<point x="29" y="161"/>
			<point x="26" y="140"/>
			<point x="24" y="121" type="curve" smooth="yes"/>
			<point x="21" y="48"/>
			<point x="75" y="-14"/>
			<point x="185" y="-14" type="curve" smooth="yes"/>
			<point x="234" y="-14"/>
			<point x="274" y="-3"/>
			<point x="311" y="17" type="curve"/>
			<point x="375" y="90" type="line"/>
			<point x="356" y="0" type="line"/>
		</contour>
	</outline>
</glyph>
<glyph name="M_P" format="2">
	<advance width="1253"/>
	<unicode hex="F3410"/>
	<outline>
		<contour>
			<point x="813" y="0" type="line"/>
			<point x="864" y="242" type="line"/>
			<point x="944" y="242" type="line" smooth="yes"/>
			<point x="987" y="242"/>
			<point x="1015" y="243"/>
			<point x="1053" y="247" type="curve" smooth="yes"/>
			<point x="1156" y="259"/>
			<point x="1262" y="330"/>
			<point x="1291" y="466" type="curve" smooth="yes"/>
			<point x="1320" y="602"/>
			<point x="1244" y="673"/>
			<point x="1146" y="685" type="curve" smooth="yes"/>
			<point x="1110" y="689"/>
			<point x="1082" y="690"/>
			<point x="1039" y="690" type="curve" smooth="yes"/>
			<point x="685" y="690" type="line"/>
			<point x="459" y="175" type="line"/>
			<point x="451" y="690" type="line"/>
			<point x="170" y="690" type="line"/>
			<point x="24" y="0" type="line"/>
			<point x="204" y="0" type="line"/>
			<point x="265" y="290" type="line" smooth="yes"/>
			<point x="278" y="350"/>
			<point x="297" y="439"/>
			<point x="310" y="509" type="curve"/>
			<point x="306" y="439"/>
			<point x="307" y="350"/>
			<point x="310" y="290" type="curve" smooth="yes"/>
			<point x="326" y="0" type="line"/>
			<point x="511" y="0" type="line"/>
			<point x="648" y="290" type="line" smooth="yes"/>
			<point x="676" y="348"/>
			<point x="712" y="430"/>
			<point x="738" y="498" type="curve"/>
			<point x="633" y="0" type="line"/>
		</contour>
		<contour>
			<point x="894" y="382" type="line"/>
			<point x="930" y="550" type="line"/>
			<point x="1000" y="550" type="line" smooth="yes"/>
			<point x="1019" y="550"/>
			<point x="1035" y="550"/>
			<point x="1047" y="549" type="curve" smooth="yes"/>
			<point x="1093" y="545"/>
			<point x="1114" y="518"/>
			<point x="1103" y="466" type="curve" smooth="yes"/>
			<point x="1092" y="414"/>
			<point x="1059" y="387"/>
			<point x="1012" y="383" type="curve" smooth="yes"/>
			<point x="999" y="382"/>
			<point x="983" y="382"/>
			<point x="964" y="382" type="curve" smooth="yes"/>
		</contour>
	</outline>
</glyph>
<glyph name="N_A" format="2">
	<advance width="1143"/>
	<unicode hex="F3610"/>
	<outline>
		<contour>
			<point x="449" y="0" type="line"/>
			<point x="684" y="0" type="line"/>
			<point x="722" y="179" type="line"/>
			<point x="830" y="179" type="line"/>
			<point x="850" y="0" type="line"/>
			<point x="1046" y="0" type="line"/>
			<point x="943" y="690" type="line"/>
			<point x="650" y="690" type="line"/>
			<point x="588" y="395" type="line" smooth="yes"/>
			<point x="579" y="355"/>
			<point x="565" y="284"/>
			<point x="555" y="214" type="curve"/>
			<point x="394" y="690" type="line"/>
			<point x="170" y="690" type="line"/>
			<point x="24" y="0" type="line"/>
			<point x="204" y="0" type="line"/>
			<point x="264" y="285" type="line" smooth="yes"/>
			<point x="273" y="325"/>
			<point x="286" y="386"/>
			<point x="295" y="456" type="curve"/>
		</contour>
		<contour>
			<point x="751" y="319" type="line"/>
			<point x="796" y="528" type="line"/>
			<point x="798" y="531" type="line"/>
			<point x="816" y="319" type="line"/>
		</contour>
	</outline>
</glyph>
<glyph name="N_N_E" format="2">
	<advance width="1599"/>
	<unicode hex="F3650"/>
	<outline>
		<contour>
			<point x="449" y="0" type="line"/>
			<point x="684" y="0" type="line"/>
			<point x="823" y="657" type="line"/>
			<point x="973" y="214" type="line"/>
			<point x="1558" y="214" type="line"/>
			<point x="1588" y="354" type="line"/>
			<point x="1239" y="354" type="line"/>
			<point x="1268" y="490" type="line"/>
			<point x="1587" y="490" type="line"/>
			<point x="1617" y="630" type="line"/>
			<point x="1298" y="630" type="line"/>
			<point x="1326" y="764" type="line"/>
			<point x="1665" y="764" type="line"/>
			<point x="1695" y="904" type="line"/>
			<point x="1175" y="904" type="line"/>
			<point x="1112" y="609" type="line" smooth="yes"/>
			<point x="1108" y="590"/>
			<point x="1103" y="564"/>
			<point x="1097" y="534" type="curve" smooth="yes"/>
			<point x="1077" y="437" type="line"/>
			<point x="919" y="904" type="line"/>
			<point x="695" y="904" type="line"/>
			<point x="551" y="227" type="line"/>
			<point x="394" y="690" type="line"/>
			<point x="170" y="690" type="line"/>
			<point x="24" y="0" type="line"/>
			<point x="204" y="0" type="line"/>
			<point x="264" y="285" type="line" smooth="yes"/>
			<point x="273" y="325"/>
			<point x="286" y="386"/>
			<point x="295" y="456" type="curve"/>
		</contour>
	</outline>
</glyph>
<glyph name="n_a" format="2">
	<advance width="964"/>
	<unicode hex="F3710"/>
	<outline>
		<contour>
			<point x="692" y="78" type="line"/>
			<point x="688" y="0" type="line"/>
			<point x="864" y="0" type="line"/>
			<point x="868" y="59"/>
			<point x="874" y="95"/>
			<point x="882" y="135" type="curve" smooth="yes"/>
			<point x="914" y="285" type="line" smooth="yes"/>
			<point x="921" y="318"/>
			<point x="927" y="349"/>
			<point x="931" y="376" type="curve" smooth="yes"/>
			<point x="943" y="473"/>
			<point x="901" y="548"/>
			<point x="732" y="548" type="curve" smooth="yes"/>
			<point x="678" y="548"/>
			<point x="626" y="537"/>
			<point x="581" y="515" type="curve"/>
			<point x="553" y="537"/>
			<point x="513" y="548"/>
			<point x="462" y="548" type="curve" smooth="yes"/>
			<point x="413" y="548"/>
			<point x="373" y="537"/>
			<point x="336" y="517" type="curve"/>
			<point x="274" y="451" type="line"/>
			<point x="291" y="534" type="line"/>
			<point x="111" y="534" type="line"/>
			<point x="-2" y="0" type="line"/>
			<point x="178" y="0" type="line"/>
			<point x="231" y="252" type="line" smooth="yes"/>
			<point x="257" y="373"/>
			<point x="307" y="426"/>
			<point x="362" y="426" type="curve" smooth="yes"/>
			<point x="416" y="426"/>
			<point x="438" y="396"/>
			<point x="431" y="345" type="curve" smooth="yes"/>
			<point x="427" y="318"/>
			<point x="421" y="288"/>
			<point x="417" y="272" type="curve" smooth="yes"/>
			<point x="400" y="195" type="line"/>
			<point x="391" y="179"/>
			<point x="385" y="162"/>
			<point x="381" y="144" type="curve" smooth="yes"/>
			<point x="359" y="41"/>
			<point x="431" y="-14"/>
			<point x="519" y="-14" type="curve" smooth="yes"/>
			<point x="568" y="-14"/>
			<point x="615" y="-2"/>
			<point x="658" y="22" type="curve"/>
		</contour>
		<contour>
			<point x="568" y="158" type="curve" smooth="yes"/>
			<point x="580" y="211"/>
			<point x="642" y="232"/>
			<point x="722" y="226" type="curve"/>
			<point x="714" y="191" type="line" smooth="yes"/>
			<point x="702" y="135"/>
			<point x="655" y="108"/>
			<point x="619" y="108" type="curve" smooth="yes"/>
			<point x="583" y="108"/>
			<point x="561" y="126"/>
		</contour>
		<contour>
			<point x="607" y="320" type="curve"/>
			<point x="614" y="353" type="line" smooth="yes"/>
			<point x="626" y="399"/>
			<point x="656" y="426"/>
			<point x="698" y="426" type="curve" smooth="yes"/>
			<point x="737" y="426"/>
			<point x="754" y="402"/>
			<point x="751" y="375" type="curve" smooth="yes"/>
			<point x="750" y="358"/>
			<point x="747" y="347"/>
			<point x="745" y="336" type="curve" smooth="yes"/>
			<point x="743" y="328" type="line"/>
			<point x="709" y="328" type="line" smooth="yes"/>
			<point x="673" y="328"/>
			<point x="638" y="325"/>
		</contour>
	</outline>
</glyph>
<glyph name="n_e" format="2">
	<advance width="996"/>
	<unicode hex="F3720"/>
	<outline>
		<contour>
			<point x="974" y="274" type="curve" smooth="yes"/>
			<point x="1003" y="412"/>
			<point x="942" y="548"/>
			<point x="764" y="548" type="curve" smooth="yes"/>
			<point x="700" y="548"/>
			<point x="642" y="532"/>
			<point x="592" y="503" type="curve"/>
			<point x="566" y="532"/>
			<point x="522" y="548"/>
			<point x="462" y="548" type="curve" smooth="yes"/>
			<point x="413" y="548"/>
			<point x="373" y="537"/>
			<point x="336" y="517" type="curve"/>
			<point x="274" y="451" type="line"/>
			<point x="291" y="534" type="line"/>
			<point x="111" y="534" type="line"/>
			<point x="-2" y="0" type="line"/>
			<point x="178" y="0" type="line"/>
			<point x="231" y="252" type="line" smooth="yes"/>
			<point x="257" y="373"/>
			<point x="307" y="426"/>
			<point x="362" y="426" type="curve" smooth="yes"/>
			<point x="416" y="426"/>
			<point x="438" y="396"/>
			<point x="431" y="345" type="curve" smooth="yes"/>
			<point x="427" y="318"/>
			<point x="421" y="289"/>
			<point x="417" y="272" type="curve" smooth="yes"/>
			<point x="360" y="0" type="line"/>
			<point x="540" y="0" type="line"/>
			<point x="587" y="222" type="line"/>
			<point x="588" y="222" type="line"/>
			<point x="960" y="222" type="line"/>
			<point x="966" y="240"/>
			<point x="971" y="258"/>
		</contour>
		<contour>
			<point x="617" y="332" type="line"/>
			<point x="643" y="398"/>
			<point x="682" y="426"/>
			<point x="729" y="426" type="curve" smooth="yes"/>
			<point x="777" y="426"/>
			<point x="802" y="395"/>
			<point x="798" y="332" type="curve"/>
		</contour>
	</outline>
</glyph>
<glyph name="n_n_e" format="2">
	<advance width="1357"/>
	<unicode hex="F3750"/>
	<outline>
		<contour>
			<point x="1382" y="496" type="curve" smooth="yes"/>
			<point x="1411" y="634"/>
			<point x="1350" y="770"/>
			<point x="1172" y="770" type="curve" smooth="yes"/>
			<point x="1109" y="770"/>
			<point x="1050" y="754"/>
			<point x="1001" y="726" type="curve"/>
			<point x="974" y="755"/>
			<point x="931" y="770"/>
			<point x="871" y="770" type="curve" smooth="yes"/>
			<point x="822" y="770"/>
			<point x="782" y="759"/>
			<point x="745" y="739" type="curve"/>
			<point x="683" y="673" type="line"/>
			<point x="700" y="756" type="line"/>
			<point x="520" y="756" type="line"/>
			<point x="476" y="548" type="line"/>
			<point x="462" y="548" type="line" smooth="yes"/>
			<point x="413" y="548"/>
			<point x="373" y="537"/>
			<point x="336" y="517" type="curve"/>
			<point x="274" y="451" type="line"/>
			<point x="291" y="534" type="line"/>
			<point x="111" y="534" type="line"/>
			<point x="-2" y="0" type="line"/>
			<point x="178" y="0" type="line"/>
			<point x="231" y="252" type="line" smooth="yes"/>
			<point x="257" y="373"/>
			<point x="307" y="426"/>
			<point x="362" y="426" type="curve" smooth="yes"/>
			<point x="416" y="426"/>
			<point x="438" y="396"/>
			<point x="431" y="345" type="curve" smooth="yes"/>
			<point x="427" y="318"/>
			<point x="421" y="289"/>
			<point x="417" y="272" type="curve" smooth="yes"/>
			<point x="360" y="0" type="line"/>
			<point x="540" y="0" type="line"/>
			<point x="640" y="474" type="line" smooth="yes"/>
			<point x="666" y="595"/>
			<point x="716" y="648"/>
			<point x="771" y="648" type="curve" smooth="yes"/>
			<point x="825" y="648"/>
			<point x="847" y="618"/>
			<point x="840" y="567" type="curve" smooth="yes"/>
			<point x="836" y="540"/>
			<point x="829" y="512"/>
			<point x="827" y="494" type="curve" smooth="yes"/>
			<point x="824" y="468" type="line" smooth="yes"/>
			<point x="794" y="293"/>
			<point x="895" y="208"/>
			<point x="1043" y="208" type="curve"/>
			<point x="1071" y="330" type="line"/>
			<point x="1020" y="330"/>
			<point x="986" y="355"/>
			<point x="996" y="444" type="curve"/>
			<point x="1368" y="444" type="line"/>
			<point x="1374" y="462"/>
			<point x="1379" y="480"/>
		</contour>
		<contour>
			<point x="1025" y="554" type="line"/>
			<point x="1051" y="620"/>
			<point x="1090" y="648"/>
			<point x="1137" y="648" type="curve" smooth="yes"/>
			<point x="1185" y="648"/>
			<point x="1210" y="617"/>
			<point x="1206" y="554" type="curve"/>
		</contour>
	</outline>
</glyph>
<glyph name="O_F" format="2">
	<advance width="1115"/>
	<unicode hex="F3810"/>
	<outline>
		<contour>
			<point x="500" y="704" type="curve" smooth="yes"/>
			<point x="285" y="704"/>
			<point x="118" y="567"/>
			<point x="71" y="345" type="curve" smooth="yes"/>
			<point x="24" y="124"/>
			<point x="133" y="-14"/>
			<point x="348" y="-14" type="curve" smooth="yes"/>
			<point x="539" y="-14"/>
			<point x="693" y="96"/>
			<point x="758" y="276" type="curve"/>
			<point x="1071" y="276" type="line"/>
			<point x="1101" y="416" type="line"/>
			<point x="792" y="416" type="line"/>
			<point x="821" y="550" type="line"/>
			<point x="1160" y="550" type="line"/>
			<point x="1189" y="690" type="line"/>
			<point x="670" y="690" type="line"/>
			<point x="666" y="667" type="line"/>
			<point x="621" y="691"/>
			<point x="566" y="704"/>
		</contour>
		<contour>
			<point x="255" y="345" type="curve" smooth="yes"/>
			<point x="286" y="492"/>
			<point x="368" y="572"/>
			<point x="472" y="572" type="curve" smooth="yes"/>
			<point x="576" y="572"/>
			<point x="624" y="492"/>
			<point x="593" y="345" type="curve" smooth="yes"/>
			<point x="562" y="199"/>
			<point x="480" y="118"/>
			<point x="376" y="118" type="curve" smooth="yes"/>
			<point x="272" y="118"/>
			<point x="224" y="199"/>
		</contour>
	</outline>
</glyph>
<glyph name="O_T_E" format="2">
	<advance width="1626"/>
	<unicode hex="F3850"/>
	<outline>
		<contour>
			<point x="500" y="704" type="curve" smooth="yes"/>
			<point x="285" y="704"/>
			<point x="118" y="567"/>
			<point x="71" y="345" type="curve" smooth="yes"/>
			<point x="24" y="124"/>
			<point x="133" y="-14"/>
			<point x="348" y="-14" type="curve" smooth="yes"/>
			<point x="563" y="-14"/>
			<point x="730" y="124"/>
			<point x="777" y="345" type="curve" smooth="yes"/>
			<point x="794" y="425"/>
			<point x="791" y="494"/>
			<point x="769" y="550" type="curve"/>
			<point x="821" y="550" type="line"/>
			<point x="704" y="0" type="line"/>
			<point x="884" y="0" type="line"/>
			<point x="1001" y="550" type="line"/>
			<point x="1128" y="550" type="line"/>
			<point x="1011" y="0" type="line"/>
			<point x="1540" y="0" type="line"/>
			<point x="1569" y="140" type="line"/>
			<point x="1220" y="140" type="line"/>
			<point x="1249" y="276" type="line"/>
			<point x="1568" y="276" type="line"/>
			<point x="1598" y="416" type="line"/>
			<point x="1279" y="416" type="line"/>
			<point x="1308" y="550" type="line"/>
			<point x="1647" y="550" type="line"/>
			<point x="1676" y="690" type="line"/>
			<point x="609" y="690" type="line"/>
			<point x="577" y="699"/>
			<point x="540" y="704"/>
		</contour>
		<contour>
			<point x="255" y="345" type="curve" smooth="yes"/>
			<point x="286" y="492"/>
			<point x="368" y="572"/>
			<point x="472" y="572" type="curve" smooth="yes"/>
			<point x="576" y="572"/>
			<point x="624" y="492"/>
			<point x="593" y="345" type="curve" smooth="yes"/>
			<point x="562" y="199"/>
			<point x="480" y="118"/>
			<point x="376" y="118" type="curve" smooth="yes"/>
			<point x="272" y="118"/>
			<point x="224" y="199"/>
		</contour>
	</outline>
</glyph>
<glyph name="O_Idieresis" format="2">
	<advance width="813"/>
	<unicode hex="F3870"/>
	<outline>
		<contour>
			<point x="500" y="704" type="curve" smooth="yes"/>
			<point x="285" y="704"/>
			<point x="118" y="567"/>
			<point x="71" y="345" type="curve" smooth="yes"/>
			<point x="24" y="124"/>
			<point x="133" y="-14"/>
			<point x="348" y="-14" type="curve" smooth="yes"/>
			<point x="563" y="-14"/>
			<point x="730" y="124"/>
			<point x="777" y="345" type="curve" smooth="yes"/>
			<point x="850" y="690" type="line"/>
			<point x="670" y="690" type="line"/>
			<point x="666" y="667" type="line"/>
			<point x="621" y="691"/>
			<point x="566" y="704"/>
		</contour>
		<contour>
			<point x="255" y="345" type="curve" smooth="yes"/>
			<point x="286" y="492"/>
			<point x="368" y="572"/>
			<point x="472" y="572" type="curve" smooth="yes"/>
			<point x="576" y="572"/>
			<point x="624" y="492"/>
			<point x="593" y="345" type="curve" smooth="yes"/>
			<point x="562" y="199"/>
			<point x="480" y="118"/>
			<point x="376" y="118" type="curve" smooth="yes"/>
			<point x="272" y="118"/>
			<point x="224" y="199"/>
		</contour>
		<contour>
			<point x="595" y="721" type="line"/>
			<point x="745" y="721" type="line"/>
			<point x="776" y="868" type="line"/>
			<point x="626" y="868" type="line"/>
		</contour>
		<contour>
			<point x="796" y="721" type="line"/>
			<point x="946" y="721" type="line"/>
			<point x="977" y="868" type="line"/>
			<point x="827" y="868" type="line"/>
		</contour>
	</outline>
</glyph>
<glyph name="o_f" format="2">
	<advance width="720"/>
	<unicode hex="F3910"/>
	<outline>
		<contour>
			<point x="371" y="548" type="curve" smooth="yes"/>
			<point x="196" y="548"/>
			<point x="61" y="439"/>
			<point x="24" y="267" type="curve" smooth="yes"/>
			<point x="-12" y="96"/>
			<point x="77" y="-14"/>
			<point x="252" y="-14" type="curve" smooth="yes"/>
			<point x="291" y="-14"/>
			<point x="328" y="-9"/>
			<point x="362" y="2" type="curve"/>
			<point x="362" y="0" type="line"/>
			<point x="364" y="2" type="line"/>
			<point x="483" y="39"/>
			<point x="570" y="135"/>
			<point x="598" y="267" type="curve" smooth="yes"/>
			<point x="631" y="418" type="line"/>
			<point x="740" y="418" type="line"/>
			<point x="763" y="530" type="line"/>
			<point x="654" y="530" type="line"/>
			<point x="655" y="534" type="line" smooth="yes"/>
			<point x="658" y="547"/>
			<point x="661" y="560"/>
			<point x="665" y="574" type="curve" smooth="yes"/>
			<point x="680" y="621"/>
			<point x="731" y="640"/>
			<point x="793" y="629" type="curve"/>
			<point x="818" y="746" type="line"/>
			<point x="801" y="751"/>
			<point x="781" y="754"/>
			<point x="760" y="754" type="curve" smooth="yes"/>
			<point x="595" y="754"/>
			<point x="518" y="692"/>
			<point x="489" y="592" type="curve" smooth="yes"/>
			<point x="484" y="574"/>
			<point x="479" y="550"/>
			<point x="475" y="534" type="curve" smooth="yes"/>
			<point x="475" y="532" type="line"/>
			<point x="445" y="543"/>
			<point x="410" y="548"/>
		</contour>
		<contour>
			<point x="208" y="267" type="curve" smooth="yes"/>
			<point x="231" y="374"/>
			<point x="281" y="426"/>
			<point x="345" y="426" type="curve" smooth="yes"/>
			<point x="409" y="426"/>
			<point x="437" y="374"/>
			<point x="414" y="267" type="curve" smooth="yes"/>
			<point x="392" y="161"/>
			<point x="342" y="108"/>
			<point x="278" y="108" type="curve" smooth="yes"/>
			<point x="214" y="108"/>
			<point x="186" y="161"/>
		</contour>
	</outline>
</glyph>
